<?xml version="1.0" encoding="UTF-8"?>
<svg xmlns="http://www.w3.org/2000/svg" xmlns:xlink="http://www.w3.org/1999/xlink" width="170px" height="60px" viewBox="0 0 169 60" version="1.1">
<g id="surface1">
<path style=" stroke:none;fill-rule:nonzero;fill:rgb(74.117647%,74.901961%,75.686275%);fill-opacity:1;" d="M 14.199219 45.625 C 12.894531 39.96875 12.691406 29.472656 21.585938 22.089844 C 23.425781 20.664062 31.152344 14.019531 43.980469 18.324219 C 45.542969 18.902344 47.054688 19.613281 48.496094 20.449219 C 51.277344 22.023438 53.707031 24.15625 55.632812 26.714844 C 53.824219 22.550781 48.945312 18.761719 46.46875 17.34375 C 45.070312 16.492188 43.585938 15.789062 42.046875 15.242188 C 29.519531 10.808594 21.269531 17.5 19.4375 18.964844 C 8.199219 28.359375 12.21875 42.6875 12.21875 42.6875 C 13.066406 46.261719 14.679688 49.609375 16.941406 52.5 C 15.695312 50.355469 14.765625 48.042969 14.191406 45.628906 "/>
<path style=" stroke:none;fill-rule:nonzero;fill:rgb(74.117647%,74.901961%,75.686275%);fill-opacity:1;" d="M 34.828125 16.15625 C 34.828125 16.15625 40.175781 18.871094 42.273438 33.285156 C 42.421875 34.300781 43.898438 47.332031 37.742188 56.90625 C 37.742188 56.90625 42.433594 52.058594 43.695312 39.292969 C 43.796875 38.289062 45.117188 25.910156 38.898438 16.675781 C 37.570312 16.320312 36.203125 16.140625 34.828125 16.15625 "/>
<path style=" stroke:none;fill-rule:nonzero;fill:rgb(74.117647%,74.901961%,75.686275%);fill-opacity:1;" d="M 19.390625 32.238281 C 21.75 30.753906 37.140625 23.835938 55.28125 33.121094 C 53.40625 31.582031 40.628906 23.664062 22.273438 28.652344 C 21.84375 28.804688 16.066406 30.292969 13.140625 35.039062 C 11.914062 37.175781 11.828125 39.730469 12.832031 41.339844 C 14.011719 43.21875 18.933594 45.496094 19.742188 45.753906 C 17.214844 44.492188 15.941406 43.097656 15.304688 42.0625 C 14.40625 40.554688 14.261719 38.707031 14.90625 37.070312 C 15.496094 35.574219 16.8125 33.914062 19.390625 32.238281 "/>
<path style=" stroke:none;fill-rule:nonzero;fill:rgb(74.117647%,74.901961%,75.686275%);fill-opacity:1;" d="M 57.59375 28.335938 C 58.878906 34 59.261719 44.515625 50.199219 51.804688 C 48.351562 53.222656 40.527344 59.792969 27.730469 55.550781 C 26.167969 54.96875 24.664062 54.253906 23.222656 53.414062 C 20.449219 51.832031 18.023438 49.691406 16.105469 47.125 C 17.898438 51.296875 22.769531 55.097656 25.238281 56.523438 C 26.636719 57.375 28.117188 58.085938 29.652344 58.636719 C 42.171875 63.105469 50.4375 56.4375 52.273438 54.980469 C 63.542969 45.621094 59.5625 31.28125 59.5625 31.28125 C 58.71875 27.703125 57.121094 24.347656 54.867188 21.457031 C 56.105469 23.597656 57.027344 25.914062 57.589844 28.332031 "/>
<path style=" stroke:none;fill-rule:nonzero;fill:rgb(74.117647%,74.901961%,75.686275%);fill-opacity:1;" d="M 35.203125 57.757812 C 35.203125 57.757812 29.859375 55.023438 27.804688 40.605469 C 27.664062 39.585938 26.226562 26.554688 32.40625 17 C 32.40625 17 27.703125 21.832031 26.398438 34.59375 C 26.300781 35.597656 24.941406 47.972656 31.136719 57.222656 C 32.460938 57.585938 33.832031 57.765625 35.203125 57.757812 "/>
<path style=" stroke:none;fill-rule:nonzero;fill:rgb(74.117647%,74.901961%,75.686275%);fill-opacity:1;" d="M 52.363281 41.417969 C 49.996094 42.898438 34.589844 49.765625 16.472656 40.425781 C 18.34375 41.972656 31.101562 49.929688 49.472656 44.992188 C 49.894531 44.847656 55.683594 43.375 58.621094 38.636719 C 59.675781 36.667969 59.582031 34.277344 58.378906 32.394531 C 57.210938 30.511719 53.660156 28.421875 52.851562 28.164062 C 54.457031 29.230469 55.78125 30.664062 56.71875 32.34375 C 57.3125 33.402344 57.527344 34.453125 56.859375 36.597656 C 56.265625 38.097656 54.941406 39.753906 52.363281 41.417969 "/>
<path style=" stroke:none;fill-rule:nonzero;fill:rgb(74.117647%,74.901961%,75.686275%);fill-opacity:1;" d="M 19.976562 46.128906 C 19.976562 46.128906 6.40625 37.765625 7.515625 26.65625 C 8.007812 21.691406 11.320312 14.941406 16.214844 12.0625 C 16.855469 11.683594 23.390625 6.164062 40.5625 5.144531 C 42.257812 5.042969 54.175781 3.621094 79.859375 8.007812 C 82.074219 8.304688 111.160156 14.148438 125.648438 21.222656 C 120.203125 17.769531 101.347656 8.621094 67.957031 2.519531 C 66.050781 2.191406 47.308594 -1.53125 27.351562 0.714844 C 25.660156 0.808594 4.796875 3.371094 0.613281 18.601562 C -0.980469 24.3125 -0.972656 35.046875 19.976562 46.128906 "/>
<path style=" stroke:none;fill-rule:nonzero;fill:rgb(97.254902%,27.058824%,14.509804%);fill-opacity:1;" d="M 52.117188 24.539062 C 54.074219 24.464844 56.019531 24.875 57.785156 25.734375 L 56.6875 29.285156 C 55.851562 28.808594 54.941406 28.46875 53.992188 28.28125 C 53 28.089844 51.980469 28.042969 50.972656 28.15625 C 48.96875 28.273438 47.085938 29.15625 45.707031 30.621094 C 44.253906 32.214844 43.261719 34.171875 42.832031 36.289062 C 42.589844 37.292969 42.488281 38.324219 42.515625 39.355469 C 42.539062 40.226562 42.738281 41.082031 43.101562 41.871094 C 43.445312 42.597656 43.984375 43.207031 44.660156 43.628906 C 45.453125 44.105469 46.351562 44.378906 47.273438 44.421875 C 49.410156 44.640625 51.5625 44.261719 53.492188 43.324219 L 52.984375 46.839844 C 51.015625 47.664062 48.902344 48.074219 46.769531 48.035156 C 45.203125 48.058594 43.648438 47.746094 42.214844 47.117188 C 41.007812 46.574219 39.960938 45.722656 39.179688 44.648438 C 38.402344 43.542969 37.914062 42.261719 37.75 40.917969 C 37.554688 39.363281 37.648438 37.78125 38.023438 36.257812 C 38.390625 34.636719 39.007812 33.082031 39.851562 31.65625 C 40.679688 30.253906 41.726562 28.996094 42.949219 27.925781 C 44.179688 26.863281 45.585938 26.015625 47.097656 25.425781 C 48.703125 24.804688 50.410156 24.480469 52.132812 24.476562 Z M 52.117188 24.539062 "/>
<path style=" stroke:none;fill-rule:nonzero;fill:rgb(97.254902%,27.058824%,14.509804%);fill-opacity:1;" d="M 67.300781 30.898438 C 68.566406 30.855469 69.828125 31.085938 71.003906 31.558594 C 71.921875 31.941406 72.71875 32.574219 73.300781 33.382812 C 73.855469 34.195312 74.199219 35.132812 74.304688 36.109375 C 74.425781 37.230469 74.355469 38.355469 74.089844 39.453125 C 73.832031 40.582031 73.417969 41.664062 72.855469 42.679688 C 71.691406 44.8125 69.808594 46.460938 67.546875 47.328125 C 66.230469 47.820312 64.839844 48.058594 63.433594 48.035156 C 62.175781 48.078125 60.917969 47.847656 59.753906 47.359375 C 58.847656 46.964844 58.0625 46.328125 57.492188 45.519531 C 56.945312 44.707031 56.613281 43.769531 56.523438 42.789062 C 56.414062 41.671875 56.488281 40.542969 56.753906 39.453125 C 57.011719 38.335938 57.421875 37.269531 57.972656 36.269531 C 58.539062 35.246094 59.277344 34.324219 60.152344 33.546875 C 61.078125 32.726562 62.136719 32.074219 63.289062 31.625 C 64.589844 31.121094 65.976562 30.875 67.371094 30.898438 Z M 66.621094 34.03125 C 65.945312 34.023438 65.277344 34.167969 64.660156 34.449219 C 64.070312 34.726562 63.535156 35.117188 63.089844 35.597656 C 62.613281 36.105469 62.226562 36.683594 61.925781 37.304688 C 61.59375 37.992188 61.34375 38.710938 61.179688 39.453125 C 61.019531 40.125 60.941406 40.8125 60.9375 41.503906 C 60.929688 42.097656 61.039062 42.683594 61.269531 43.230469 C 61.484375 43.722656 61.84375 44.132812 62.300781 44.40625 C 62.859375 44.722656 63.492188 44.871094 64.128906 44.84375 C 64.816406 44.851562 65.5 44.714844 66.128906 44.441406 C 66.730469 44.175781 67.273438 43.792969 67.71875 43.3125 C 68.191406 42.796875 68.582031 42.214844 68.878906 41.585938 C 69.214844 40.894531 69.464844 40.167969 69.628906 39.421875 C 69.789062 38.746094 69.867188 38.050781 69.859375 37.355469 C 69.855469 36.765625 69.734375 36.183594 69.492188 35.644531 C 69.269531 35.15625 68.902344 34.746094 68.445312 34.464844 C 67.878906 34.152344 67.234375 34 66.585938 34.03125 Z M 66.621094 34.03125 "/>
<path style=" stroke:none;fill-rule:nonzero;fill:rgb(97.254902%,27.058824%,14.509804%);fill-opacity:1;" d="M 88.335938 30.867188 C 89.167969 30.851562 89.996094 30.988281 90.78125 31.269531 C 91.460938 31.515625 92.054688 31.96875 92.480469 32.5625 C 92.933594 33.238281 93.207031 34.019531 93.277344 34.835938 C 93.371094 35.949219 93.277344 37.074219 93.003906 38.160156 L 90.863281 47.550781 L 86.753906 47.550781 L 88.839844 38.386719 C 88.96875 37.839844 89.058594 37.28125 89.109375 36.722656 C 89.15625 36.257812 89.109375 35.785156 88.972656 35.335938 C 88.835938 34.9375 88.566406 34.601562 88.210938 34.382812 C 87.710938 34.117188 87.144531 34.007812 86.582031 34.0625 C 86.105469 34.074219 85.628906 34.171875 85.183594 34.351562 C 84.648438 34.546875 84.140625 34.800781 83.664062 35.109375 C 83.183594 35.414062 82.75 35.78125 82.371094 36.207031 C 82.027344 36.574219 81.78125 37.023438 81.65625 37.511719 L 79.371094 47.550781 L 75.265625 47.550781 L 78.933594 31.417969 L 82.625 31.417969 L 82.230469 33.449219 C 83.097656 32.683594 84.078125 32.066406 85.132812 31.605469 C 86.128906 31.15625 87.207031 30.902344 88.300781 30.863281 Z M 88.335938 30.867188 "/>
<path style=" stroke:none;fill-rule:nonzero;fill:rgb(97.254902%,27.058824%,14.509804%);fill-opacity:1;" d="M 105.34375 30.898438 C 107.785156 30.898438 109.460938 31.339844 110.371094 32.21875 C 111.28125 33.105469 111.511719 34.542969 111.058594 36.546875 L 108.5625 47.519531 L 105 47.519531 L 105.4375 45.164062 C 104.527344 46.066406 103.460938 46.789062 102.289062 47.292969 C 101.152344 47.800781 99.921875 48.0625 98.675781 48.070312 C 97.972656 48.082031 97.269531 47.96875 96.597656 47.746094 C 96.019531 47.554688 95.5 47.214844 95.089844 46.761719 C 94.679688 46.285156 94.40625 45.703125 94.300781 45.082031 C 94.167969 44.285156 94.207031 43.464844 94.414062 42.679688 C 94.617188 41.773438 95.050781 40.933594 95.671875 40.242188 C 96.339844 39.515625 97.140625 38.921875 98.027344 38.496094 C 99.050781 38.007812 100.128906 37.652344 101.242188 37.433594 C 102.503906 37.183594 103.789062 37.035156 105.078125 36.996094 L 106.820312 36.96875 L 107.003906 36.160156 C 107.210938 35.257812 107.140625 34.621094 106.796875 34.253906 C 106.453125 33.890625 105.773438 33.707031 104.769531 33.707031 C 103.722656 33.71875 102.675781 33.824219 101.648438 34.011719 C 100.304688 34.257812 98.980469 34.609375 97.6875 35.0625 L 98.355469 32.121094 C 100.597656 31.367188 102.941406 30.964844 105.304688 30.929688 Z M 104.808594 39.320312 C 101.082031 39.320312 98.96875 40.429688 98.464844 42.644531 C 98.25 43.316406 98.351562 44.046875 98.738281 44.632812 C 99.191406 45.152344 99.859375 45.421875 100.546875 45.359375 C 101.132812 45.355469 101.71875 45.25 102.265625 45.050781 C 102.835938 44.847656 103.375 44.558594 103.859375 44.195312 C 104.347656 43.832031 104.773438 43.390625 105.121094 42.886719 C 105.476562 42.378906 105.726562 41.800781 105.859375 41.191406 L 106.285156 39.320312 Z M 104.808594 39.320312 "/>
<path style=" stroke:none;fill-rule:nonzero;fill:rgb(97.254902%,27.058824%,14.509804%);fill-opacity:1;" d="M 126.691406 31.480469 L 126.011719 34.480469 L 121.128906 34.480469 L 119.359375 42.261719 C 119.144531 42.925781 119.125 43.636719 119.3125 44.308594 C 119.492188 44.730469 119.992188 44.941406 120.804688 44.941406 C 121.753906 44.894531 122.695312 44.6875 123.574219 44.324219 L 123.113281 47.070312 C 121.820312 47.582031 120.441406 47.847656 119.050781 47.84375 C 117.300781 47.824219 116.117188 47.34375 115.492188 46.40625 C 114.875 45.472656 114.777344 44.066406 115.199219 42.195312 L 116.972656 34.417969 L 113.566406 34.417969 L 114.25 31.417969 L 117.65625 31.417969 L 118.785156 26.445312 L 122.957031 26.445312 L 121.824219 31.417969 Z M 126.691406 31.480469 "/>
<path style=" stroke:none;fill-rule:nonzero;fill:rgb(97.254902%,27.058824%,14.509804%);fill-opacity:1;" d="M 126.019531 47.550781 L 129.691406 31.417969 L 133.796875 31.417969 L 130.128906 47.550781 Z M 126.019531 47.550781 "/>
<path style=" stroke:none;fill-rule:nonzero;fill:rgb(97.254902%,27.058824%,14.509804%);fill-opacity:1;" d="M 138.601562 47.550781 L 136.046875 31.414062 L 140.699219 31.414062 L 141.933594 44.195312 L 148.984375 31.414062 L 153.640625 31.414062 L 143.738281 47.550781 Z M 138.601562 47.550781 "/>
<path style=" stroke:none;fill-rule:nonzero;fill:rgb(97.254902%,27.058824%,14.509804%);fill-opacity:1;" d="M 162.996094 30.929688 C 163.90625 30.925781 164.8125 31.070312 165.679688 31.347656 C 166.523438 31.613281 167.277344 32.105469 167.859375 32.769531 C 168.488281 33.523438 168.898438 34.429688 169.058594 35.402344 C 169.261719 36.753906 169.179688 38.132812 168.828125 39.453125 L 168.515625 40.675781 L 156.734375 40.675781 C 156.546875 42.164062 156.808594 43.261719 157.527344 43.96875 C 158.242188 44.679688 159.335938 45.042969 160.808594 45.066406 C 162.695312 45.082031 164.570312 44.738281 166.332031 44.066406 L 165.910156 46.910156 C 163.84375 47.671875 161.660156 48.054688 159.457031 48.035156 C 158.3125 48.058594 157.175781 47.882812 156.09375 47.519531 C 155.167969 47.214844 154.332031 46.675781 153.667969 45.953125 C 153.015625 45.210938 152.582031 44.289062 152.425781 43.308594 C 152.238281 42.042969 152.308594 40.753906 152.632812 39.515625 C 153.097656 37.058594 154.375 34.832031 156.253906 33.1875 C 158.148438 31.652344 160.53125 30.847656 162.964844 30.929688 Z M 162.367188 33.832031 C 161.175781 33.792969 160.007812 34.214844 159.113281 35.011719 C 158.207031 35.871094 157.5625 36.972656 157.265625 38.191406 L 165.097656 38.191406 C 165.371094 36.8125 165.289062 35.75 164.863281 34.996094 C 164.4375 34.242188 163.613281 33.867188 162.386719 33.867188 Z M 162.367188 33.832031 "/>
<path style=" stroke:none;fill-rule:nonzero;fill:rgb(22.745098%,23.137255%,23.529412%);fill-opacity:1;" d="M 57.058594 53.53125 L 57.40625 53.53125 L 57.40625 56.625 L 57.058594 56.625 Z M 57.058594 53.53125 "/>
<path style=" stroke:none;fill-rule:nonzero;fill:rgb(22.745098%,23.137255%,23.529412%);fill-opacity:1;" d="M 58.226562 53.53125 L 58.554688 53.53125 L 60.492188 56.011719 L 60.492188 53.53125 L 60.832031 53.53125 L 60.832031 56.625 L 60.554688 56.625 L 58.566406 54.089844 L 58.566406 56.625 L 58.226562 56.625 Z M 58.226562 53.53125 "/>
<path style=" stroke:none;fill-rule:nonzero;fill:rgb(22.745098%,23.137255%,23.529412%);fill-opacity:1;" d="M 61.617188 53.53125 L 61.945312 53.53125 L 63.886719 56.011719 L 63.886719 53.53125 L 64.222656 53.53125 L 64.222656 56.625 L 63.945312 56.625 L 61.957031 54.089844 L 61.957031 56.625 L 61.617188 56.625 Z M 61.617188 53.53125 "/>
<path style=" stroke:none;fill-rule:nonzero;fill:rgb(22.745098%,23.137255%,23.529412%);fill-opacity:1;" d="M 64.875 55.089844 L 64.875 55.082031 C 64.871094 54.207031 65.570312 53.5 66.4375 53.496094 C 67.304688 53.496094 68.007812 54.199219 68.011719 55.070312 L 68.011719 55.082031 C 68.011719 55.953125 67.3125 56.660156 66.445312 56.660156 C 65.582031 56.660156 64.878906 55.957031 64.875 55.089844 M 67.652344 55.089844 L 67.652344 55.082031 C 67.664062 54.746094 67.542969 54.425781 67.3125 54.183594 C 67.085938 53.945312 66.769531 53.808594 66.4375 53.804688 C 66.113281 53.804688 65.796875 53.941406 65.570312 54.179688 C 65.34375 54.421875 65.222656 54.742188 65.234375 55.070312 L 65.234375 55.082031 C 65.222656 55.414062 65.34375 55.738281 65.574219 55.980469 C 65.800781 56.214844 66.117188 56.355469 66.449219 56.355469 C 66.777344 56.355469 67.097656 56.21875 67.324219 55.980469 C 67.550781 55.742188 67.667969 55.417969 67.65625 55.089844 "/>
<path style=" stroke:none;fill-rule:nonzero;fill:rgb(22.745098%,23.137255%,23.529412%);fill-opacity:1;" d="M 68.222656 53.53125 L 68.609375 53.53125 L 69.703125 56.199219 L 70.804688 53.53125 L 71.175781 53.53125 L 69.855469 56.648438 L 69.546875 56.648438 Z M 68.222656 53.53125 "/>
<path style=" stroke:none;fill-rule:nonzero;fill:rgb(22.745098%,23.137255%,23.529412%);fill-opacity:1;" d="M 72.402344 53.511719 L 72.726562 53.511719 L 74.132812 56.625 L 73.753906 56.625 L 73.394531 55.808594 L 71.71875 55.808594 L 71.355469 56.625 L 71 56.625 Z M 73.257812 55.492188 L 72.558594 53.917969 L 71.855469 55.492188 Z M 73.257812 55.492188 "/>
<path style=" stroke:none;fill-rule:nonzero;fill:rgb(22.745098%,23.137255%,23.529412%);fill-opacity:1;" d="M 75.074219 53.855469 L 74.039062 53.855469 L 74.039062 53.535156 L 76.457031 53.535156 L 76.457031 53.855469 L 75.425781 53.855469 L 75.425781 56.628906 L 75.074219 56.628906 Z M 75.074219 53.855469 "/>
<path style=" stroke:none;fill-rule:nonzero;fill:rgb(22.745098%,23.137255%,23.529412%);fill-opacity:1;" d="M 77.058594 53.53125 L 77.40625 53.53125 L 77.40625 56.625 L 77.058594 56.625 Z M 77.058594 53.53125 "/>
<path style=" stroke:none;fill-rule:nonzero;fill:rgb(22.745098%,23.137255%,23.529412%);fill-opacity:1;" d="M 78.09375 55.089844 L 78.09375 55.082031 C 78.078125 54.507812 78.375 53.976562 78.863281 53.6875 C 79.351562 53.398438 79.957031 53.398438 80.449219 53.683594 C 80.9375 53.96875 81.234375 54.503906 81.230469 55.070312 L 81.230469 55.082031 C 81.238281 55.652344 80.945312 56.183594 80.457031 56.472656 C 79.964844 56.761719 79.363281 56.761719 78.867188 56.476562 C 78.378906 56.191406 78.082031 55.65625 78.09375 55.089844 M 80.871094 55.089844 L 80.871094 55.082031 C 80.878906 54.746094 80.757812 54.425781 80.527344 54.183594 C 80.300781 53.941406 79.984375 53.808594 79.65625 53.804688 C 79.324219 53.804688 79.011719 53.941406 78.78125 54.179688 C 78.554688 54.421875 78.433594 54.742188 78.449219 55.070312 L 78.449219 55.082031 C 78.4375 55.414062 78.558594 55.738281 78.789062 55.980469 C 79.019531 56.214844 79.332031 56.355469 79.664062 56.355469 C 79.992188 56.355469 80.308594 56.21875 80.535156 55.980469 C 80.761719 55.742188 80.882812 55.417969 80.871094 55.089844 "/>
<path style=" stroke:none;fill-rule:nonzero;fill:rgb(22.745098%,23.137255%,23.529412%);fill-opacity:1;" d="M 81.882812 53.53125 L 82.210938 53.53125 L 84.148438 56.011719 L 84.148438 53.53125 L 84.484375 53.53125 L 84.484375 56.625 L 84.207031 56.625 L 82.21875 54.089844 L 82.21875 56.625 L 81.882812 56.625 Z M 81.882812 53.53125 "/>
<path style=" stroke:none;fill-rule:nonzero;fill:rgb(22.745098%,23.137255%,23.529412%);fill-opacity:1;" d="M 101.941406 53.53125 L 103.089844 53.53125 C 103.789062 53.53125 104.246094 53.902344 104.246094 54.515625 L 104.246094 54.523438 C 104.246094 55.1875 103.691406 55.535156 103.035156 55.535156 L 102.289062 55.535156 L 102.289062 56.625 L 101.941406 56.625 Z M 103.046875 55.214844 C 103.558594 55.214844 103.894531 54.945312 103.894531 54.535156 L 103.894531 54.527344 C 103.894531 54.085938 103.566406 53.855469 103.066406 53.855469 L 102.289062 53.855469 L 102.289062 55.214844 Z M 103.046875 55.214844 "/>
<path style=" stroke:none;fill-rule:nonzero;fill:rgb(22.745098%,23.137255%,23.529412%);fill-opacity:1;" d="M 105.628906 53.511719 L 105.957031 53.511719 L 107.355469 56.625 L 106.984375 56.625 L 106.625 55.808594 L 104.949219 55.808594 L 104.585938 56.625 L 104.226562 56.625 Z M 106.484375 55.492188 L 105.785156 53.917969 L 105.082031 55.492188 Z M 106.484375 55.492188 "/>
<path style=" stroke:none;fill-rule:nonzero;fill:rgb(22.745098%,23.137255%,23.529412%);fill-opacity:1;" d="M 107.617188 56.175781 L 107.832031 55.921875 C 108.113281 56.203125 108.492188 56.359375 108.890625 56.355469 C 109.300781 56.355469 109.574219 56.136719 109.574219 55.832031 L 109.574219 55.820312 C 109.574219 55.535156 109.421875 55.371094 108.777344 55.234375 C 108.070312 55.082031 107.746094 54.851562 107.746094 54.339844 L 107.746094 54.335938 C 107.761719 54.082031 107.878906 53.851562 108.070312 53.695312 C 108.257812 53.535156 108.507812 53.460938 108.753906 53.492188 C 109.148438 53.476562 109.535156 53.613281 109.835938 53.871094 L 109.632812 54.136719 C 109.390625 53.921875 109.074219 53.800781 108.746094 53.800781 C 108.34375 53.800781 108.09375 54.023438 108.09375 54.304688 L 108.09375 54.3125 C 108.09375 54.601562 108.25 54.765625 108.925781 54.914062 C 109.613281 55.066406 109.929688 55.3125 109.929688 55.789062 L 109.929688 55.792969 C 109.929688 56.328125 109.488281 56.671875 108.878906 56.671875 C 108.414062 56.675781 107.960938 56.496094 107.621094 56.175781 "/>
<path style=" stroke:none;fill-rule:nonzero;fill:rgb(22.745098%,23.137255%,23.529412%);fill-opacity:1;" d="M 110.304688 56.175781 L 110.523438 55.921875 C 110.800781 56.203125 111.179688 56.359375 111.578125 56.355469 C 111.988281 56.355469 112.261719 56.136719 112.261719 55.832031 L 112.261719 55.820312 C 112.261719 55.535156 112.109375 55.371094 111.464844 55.234375 C 110.757812 55.082031 110.429688 54.851562 110.429688 54.339844 L 110.429688 54.335938 C 110.445312 54.082031 110.566406 53.855469 110.757812 53.695312 C 110.945312 53.535156 111.191406 53.460938 111.441406 53.492188 C 111.832031 53.476562 112.21875 53.613281 112.519531 53.871094 L 112.320312 54.136719 C 112.074219 53.921875 111.757812 53.800781 111.429688 53.800781 C 111.03125 53.800781 110.777344 54.023438 110.777344 54.304688 L 110.777344 54.3125 C 110.777344 54.601562 110.933594 54.765625 111.609375 54.914062 C 112.296875 55.066406 112.613281 55.3125 112.613281 55.789062 L 112.613281 55.792969 C 112.613281 56.328125 112.171875 56.671875 111.5625 56.671875 C 111.097656 56.675781 110.644531 56.496094 110.304688 56.175781 "/>
<path style=" stroke:none;fill-rule:nonzero;fill:rgb(22.745098%,23.137255%,23.529412%);fill-opacity:1;" d="M 113.273438 53.53125 L 113.621094 53.53125 L 113.621094 56.625 L 113.273438 56.625 Z M 113.273438 53.53125 "/>
<path style=" stroke:none;fill-rule:nonzero;fill:rgb(22.745098%,23.137255%,23.529412%);fill-opacity:1;" d="M 114.308594 55.089844 L 114.308594 55.082031 C 114.296875 54.507812 114.589844 53.976562 115.082031 53.6875 C 115.566406 53.398438 116.175781 53.398438 116.664062 53.683594 C 117.15625 53.96875 117.453125 54.503906 117.445312 55.070312 L 117.445312 55.082031 C 117.457031 55.652344 117.160156 56.183594 116.671875 56.472656 C 116.183594 56.761719 115.578125 56.761719 115.085938 56.476562 C 114.597656 56.191406 114.296875 55.65625 114.308594 55.089844 M 117.085938 55.089844 L 117.085938 55.082031 C 117.097656 54.746094 116.972656 54.425781 116.746094 54.183594 C 116.519531 53.941406 116.199219 53.804688 115.871094 53.804688 C 115.539062 53.804688 115.226562 53.941406 114.996094 54.179688 C 114.769531 54.421875 114.652344 54.742188 114.664062 55.070312 L 114.664062 55.082031 C 114.652344 55.414062 114.773438 55.738281 115.003906 55.980469 C 115.234375 56.214844 115.546875 56.355469 115.878906 56.355469 C 116.207031 56.355469 116.523438 56.21875 116.75 55.980469 C 116.976562 55.742188 117.097656 55.417969 117.085938 55.089844 "/>
<path style=" stroke:none;fill-rule:nonzero;fill:rgb(22.745098%,23.137255%,23.529412%);fill-opacity:1;" d="M 118.09375 53.53125 L 118.421875 53.53125 L 120.359375 56.011719 L 120.359375 53.53125 L 120.699219 53.53125 L 120.699219 56.625 L 120.421875 56.625 L 118.433594 54.089844 L 118.433594 56.625 L 118.09375 56.625 Z M 118.09375 53.53125 "/>
<path style=" stroke:none;fill-rule:nonzero;fill:rgb(22.745098%,23.137255%,23.529412%);fill-opacity:1;" d="M 138.585938 53.53125 L 139.652344 53.53125 C 140.078125 53.503906 140.492188 53.65625 140.804688 53.945312 C 141.113281 54.238281 141.289062 54.644531 141.285156 55.070312 L 141.285156 55.082031 C 141.289062 55.511719 141.113281 55.917969 140.804688 56.210938 C 140.492188 56.503906 140.078125 56.65625 139.652344 56.628906 L 138.585938 56.628906 Z M 138.933594 53.855469 L 138.933594 56.304688 L 139.652344 56.304688 C 139.988281 56.328125 140.316406 56.210938 140.554688 55.980469 C 140.800781 55.746094 140.933594 55.421875 140.925781 55.089844 L 140.925781 55.078125 C 140.933594 54.742188 140.800781 54.417969 140.554688 54.183594 C 140.316406 53.953125 139.988281 53.832031 139.652344 53.851562 Z M 138.933594 53.855469 "/>
<path style=" stroke:none;fill-rule:nonzero;fill:rgb(22.745098%,23.137255%,23.529412%);fill-opacity:1;" d="M 141.824219 53.53125 L 144.046875 53.53125 L 144.046875 53.851562 L 142.171875 53.851562 L 142.171875 54.90625 L 143.851562 54.90625 L 143.851562 55.226562 L 142.171875 55.226562 L 142.171875 56.308594 L 144.074219 56.308594 L 144.074219 56.625 L 141.828125 56.625 Z M 141.824219 53.53125 "/>
<path style=" stroke:none;fill-rule:nonzero;fill:rgb(22.745098%,23.137255%,23.529412%);fill-opacity:1;" d="M 144.570312 53.53125 L 145.636719 53.53125 C 146.0625 53.503906 146.476562 53.65625 146.789062 53.945312 C 147.097656 54.238281 147.273438 54.644531 147.273438 55.070312 L 147.273438 55.082031 C 147.273438 55.511719 147.097656 55.917969 146.789062 56.210938 C 146.476562 56.503906 146.0625 56.65625 145.636719 56.628906 L 144.570312 56.628906 Z M 144.917969 53.855469 L 144.917969 56.304688 L 145.636719 56.304688 C 145.972656 56.328125 146.296875 56.210938 146.542969 55.980469 C 146.78125 55.746094 146.917969 55.421875 146.910156 55.089844 L 146.910156 55.078125 C 146.917969 54.742188 146.785156 54.417969 146.542969 54.183594 C 146.296875 53.953125 145.972656 53.832031 145.636719 53.851562 Z M 144.917969 53.855469 "/>
<path style=" stroke:none;fill-rule:nonzero;fill:rgb(22.745098%,23.137255%,23.529412%);fill-opacity:1;" d="M 147.839844 53.53125 L 148.183594 53.53125 L 148.183594 56.625 L 147.839844 56.625 Z M 147.839844 53.53125 "/>
<path style=" stroke:none;fill-rule:nonzero;fill:rgb(22.745098%,23.137255%,23.529412%);fill-opacity:1;" d="M 148.75 55.089844 L 148.75 55.082031 C 148.738281 54.660156 148.898438 54.25 149.191406 53.949219 C 149.484375 53.648438 149.890625 53.476562 150.304688 53.480469 C 150.757812 53.46875 151.191406 53.644531 151.507812 53.96875 L 151.269531 54.226562 C 151.019531 53.957031 150.667969 53.800781 150.300781 53.800781 C 149.976562 53.804688 149.664062 53.941406 149.4375 54.179688 C 149.214844 54.417969 149.097656 54.738281 149.113281 55.066406 L 149.113281 55.078125 C 149.097656 55.40625 149.214844 55.726562 149.4375 55.96875 C 149.664062 56.207031 149.976562 56.347656 150.300781 56.355469 C 150.683594 56.351562 151.042969 56.191406 151.296875 55.90625 L 151.527344 56.132812 C 151.214844 56.484375 150.765625 56.683594 150.296875 56.675781 C 149.878906 56.679688 149.480469 56.507812 149.183594 56.210938 C 148.894531 55.910156 148.738281 55.5 148.75 55.082031 "/>
<path style=" stroke:none;fill-rule:nonzero;fill:rgb(22.745098%,23.137255%,23.529412%);fill-opacity:1;" d="M 153.070312 53.511719 L 153.394531 53.511719 L 154.800781 56.625 L 154.421875 56.625 L 154.0625 55.808594 L 152.390625 55.808594 L 152.027344 56.625 L 151.667969 56.625 Z M 153.925781 55.492188 L 153.230469 53.917969 L 152.527344 55.492188 Z M 153.925781 55.492188 "/>
<path style=" stroke:none;fill-rule:nonzero;fill:rgb(22.745098%,23.137255%,23.529412%);fill-opacity:1;" d="M 155.621094 53.855469 L 154.59375 53.855469 L 154.59375 53.535156 L 157.007812 53.535156 L 157.007812 53.855469 L 155.976562 53.855469 L 155.976562 56.628906 L 155.621094 56.628906 Z M 155.621094 53.855469 "/>
<path style=" stroke:none;fill-rule:nonzero;fill:rgb(22.745098%,23.137255%,23.529412%);fill-opacity:1;" d="M 157.492188 53.53125 L 157.835938 53.53125 L 157.835938 56.625 L 157.492188 56.625 Z M 157.492188 53.53125 "/>
<path style=" stroke:none;fill-rule:nonzero;fill:rgb(22.745098%,23.137255%,23.529412%);fill-opacity:1;" d="M 158.402344 55.089844 L 158.402344 55.082031 C 158.394531 54.507812 158.6875 53.976562 159.175781 53.6875 C 159.667969 53.398438 160.269531 53.398438 160.761719 53.683594 C 161.253906 53.96875 161.550781 54.503906 161.542969 55.070312 L 161.542969 55.082031 C 161.554688 55.652344 161.257812 56.183594 160.769531 56.472656 C 160.28125 56.761719 159.675781 56.761719 159.183594 56.476562 C 158.695312 56.191406 158.398438 55.65625 158.402344 55.089844 M 161.179688 55.089844 L 161.179688 55.082031 C 161.195312 54.746094 161.070312 54.425781 160.84375 54.183594 C 160.613281 53.941406 160.296875 53.804688 159.96875 53.804688 C 159.636719 53.804688 159.324219 53.941406 159.097656 54.179688 C 158.871094 54.421875 158.75 54.742188 158.765625 55.070312 L 158.765625 55.082031 C 158.75 55.414062 158.875 55.738281 159.101562 55.976562 C 159.332031 56.214844 159.644531 56.355469 159.972656 56.355469 C 160.304688 56.355469 160.621094 56.21875 160.847656 55.980469 C 161.074219 55.742188 161.195312 55.417969 161.179688 55.089844 "/>
<path style=" stroke:none;fill-rule:nonzero;fill:rgb(22.745098%,23.137255%,23.529412%);fill-opacity:1;" d="M 162.078125 53.53125 L 162.402344 53.53125 L 164.34375 56.011719 L 164.34375 53.53125 L 164.679688 53.53125 L 164.679688 56.625 L 164.402344 56.625 L 162.417969 54.089844 L 162.417969 56.625 L 162.078125 56.625 Z M 162.078125 53.53125 "/>
<path style=" stroke:none;fill-rule:nonzero;fill:rgb(97.254902%,27.058824%,14.509804%);fill-opacity:1;" d="M 92.683594 52.910156 C 92.722656 52.867188 92.773438 52.847656 92.824219 52.847656 C 92.878906 52.847656 92.933594 52.867188 92.96875 52.910156 L 94.960938 54.914062 C 95 54.949219 95.023438 55.003906 95.023438 55.058594 C 95.023438 55.113281 95 55.160156 94.960938 55.199219 L 92.96875 57.207031 C 92.886719 57.285156 92.761719 57.285156 92.683594 57.207031 L 90.6875 55.199219 C 90.648438 55.160156 90.628906 55.113281 90.628906 55.058594 C 90.628906 55 90.648438 54.949219 90.6875 54.914062 Z M 92.683594 52.910156 "/>
<path style=" stroke:none;fill-rule:nonzero;fill:rgb(97.254902%,27.058824%,14.509804%);fill-opacity:1;" d="M 130.265625 52.910156 C 130.304688 52.867188 130.355469 52.847656 130.40625 52.847656 C 130.460938 52.847656 130.515625 52.867188 130.550781 52.910156 L 132.542969 54.914062 C 132.625 54.992188 132.625 55.121094 132.542969 55.199219 L 130.550781 57.207031 C 130.472656 57.285156 130.34375 57.285156 130.265625 57.207031 L 128.269531 55.199219 C 128.234375 55.160156 128.210938 55.113281 128.210938 55.058594 C 128.210938 55 128.234375 54.949219 128.269531 54.914062 Z M 130.265625 52.910156 "/>
<path style=" stroke:none;fill-rule:nonzero;fill:rgb(74.117647%,74.901961%,75.686275%);fill-opacity:1;" d="M 136.035156 25.699219 C 135.84375 27.535156 134.3125 28.9375 132.476562 28.96875 C 131.628906 28.984375 130.816406 28.636719 130.246094 28.011719 C 129.675781 27.386719 129.398438 26.542969 129.488281 25.699219 C 129.679688 23.859375 131.207031 22.457031 133.042969 22.429688 C 133.890625 22.410156 134.703125 22.757812 135.273438 23.382812 C 135.847656 24.011719 136.125 24.855469 136.035156 25.699219 "/>
</g>
</svg>
