<svg xmlns="http://www.w3.org/2000/svg" width="78.999" height="78.999" viewBox="0 0 78.999 78.999">
  <g id="smile-wink" transform="translate(-31 -31)">
    <path id="Path_796" data-name="Path 796" d="M70.5,31A39.5,39.5,0,1,0,110,70.5,39.491,39.491,0,0,0,70.5,31Zm0,71.362A31.863,31.863,0,1,1,102.362,70.5,31.894,31.894,0,0,1,70.5,102.362ZM89.266,79.031a3.835,3.835,0,0,0-5.389.492,17.41,17.41,0,0,1-26.754,0,3.827,3.827,0,1,0-5.881,4.9,25.063,25.063,0,0,0,38.516,0A3.835,3.835,0,0,0,89.266,79.031ZM57.754,67.954a5.091,5.091,0,1,0-5.091-5.091A5.083,5.083,0,0,0,57.754,67.954Zm25.49-9.568c-4.09,0-8.9,2.686-9.533,6.706a1.912,1.912,0,0,0,3.16,1.72l1.51-1.352c2.352-2.107,7.356-2.107,9.708,0l1.51,1.352a1.912,1.912,0,0,0,3.16-1.72c-.614-4-5.425-6.706-9.515-6.706Z" fill="#eee"/>
  </g>
</svg>
