<svg xmlns="http://www.w3.org/2000/svg" width="17.138" height="17.107" viewBox="0 0 17.138 17.107">
  <g id="Icon" transform="translate(126.036 125.812)">
    <path id="Path_793" data-name="Path 793" d="M.282,5.9H3.834V17.331H.282ZM2.058.224A2.06,2.06,0,1,1,0,2.284,2.06,2.06,0,0,1,2.058.224" transform="translate(-126.036 -126.036)" fill="#fff"/>
    <path id="Path_794" data-name="Path 794" d="M89.163,79.893H92.57v1.563h.049a3.731,3.731,0,0,1,3.36-1.846c3.6,0,4.26,2.366,4.26,5.443V91.32h-3.55V85.763c0-1.326-.023-3.03-1.846-3.03-1.848,0-2.13,1.445-2.13,2.935V91.32h-3.55Z" transform="translate(-209.137 -200.025)" fill="#fff"/>
  </g>
</svg>
