<svg xmlns="http://www.w3.org/2000/svg" width="17.995" height="18" viewBox="0 0 17.995 18">
  <g id="Icon" transform="translate(-278 -978.037)">
    <path id="Path_78" data-name="Path 78" d="M34.494.028c-.037,0-.082.029-.1-.029H34.5c.012.007.016.014.011.02a.018.018,0,0,1-.013.009" transform="translate(248.191 978.038)" fill="#fff"/>
    <path id="Path_79" data-name="Path 79" d="M35.166.028c0-.01,0-.019,0-.029h.07c-.014.036-.042.036-.072.029" transform="translate(247.519 978.038)" fill="#fff"/>
    <path id="Path_80" data-name="Path 80" d="M99.3.029c-.03.005-.058,0-.072-.029h.07c.011.006.015.012.012.019s-.007.01-.01.01" transform="translate(191.994 978.037)" fill="#fff"/>
    <path id="Path_81" data-name="Path 81" d="M99.754.029c0-.01,0-.02,0-.029h.07c.011.006.015.013.012.019s-.007.01-.01.01h-.07" transform="translate(191.538 978.037)" fill="#fff"/>
    <path id="Path_82" data-name="Path 82" d="M100.28.03c0-.01,0-.02,0-.03h.07c-.009.043-.04.034-.069.03" transform="translate(191.081 978.037)" fill="#fff"/>
    <path id="Path_83" data-name="Path 83" d="M134.828,34.595c0-.029-.01-.059.029-.069v.07c-.011.016-.021.016-.029,0" transform="translate(161.137 948.111)" fill="#fff"/>
    <path id="Path_84" data-name="Path 84" d="M134.83,35.041l.029,0v.07c-.034-.014-.035-.041-.029-.072" transform="translate(161.135 947.664)" fill="#fff"/>
    <path id="Path_85" data-name="Path 85" d="M134.83,99.432c-.005-.03,0-.058.03-.072v.07c-.009.015-.019.016-.03,0" transform="translate(161.135 891.914)" fill="#fff"/>
    <path id="Path_86" data-name="Path 86" d="M134.823,99.888h.03v.07c-.042-.009-.034-.04-.03-.069" transform="translate(161.142 891.458)" fill="#fff"/>
    <path id="Path_87" data-name="Path 87" d="M17.995,4.459c-.05-.2-.028-.4-.078-.6A5.057,5.057,0,0,0,14.376.142,5.993,5.993,0,0,0,13.5,0h-.07c-.021.023-.049.017-.075.018h-.06c-.026,0-.054,0-.075-.018H4.757c-.022.024-.05.017-.077.018s-.07.01-.1-.018H4.476c-.2.049-.405.026-.6.075A4.98,4.98,0,0,0,1.28,1.6,4.7,4.7,0,0,0,0,4.828Q0,8.962,0,13.1a4.573,4.573,0,0,0,.158,1.282,4.953,4.953,0,0,0,1.707,2.554A4.845,4.845,0,0,0,5.022,18c2.691-.017,5.383-.007,8.074,0a4.6,4.6,0,0,0,1.748-.313,4.982,4.982,0,0,0,2.761-2.63,4.392,4.392,0,0,0,.39-1.5v-.176c-.022-.019-.017-.045-.018-.07s0-.051.018-.07V4.74c-.022-.019-.017-.045-.018-.07s0-.051.018-.07Zm-2.219,10.5a3.318,3.318,0,0,1-2.809,1.423q-3.958.008-7.916,0A3.353,3.353,0,0,1,1.793,14.1a3.438,3.438,0,0,1-.181-1.172q0-3.932,0-7.864a3.364,3.364,0,0,1,2.3-3.287,3.418,3.418,0,0,1,1.155-.178q3.941,0,7.881,0a3.36,3.36,0,0,1,3.275,2.287A3.546,3.546,0,0,1,16.4,5.089q0,1.948,0,3.9t0,3.914a3.378,3.378,0,0,1-.625,2.059" transform="translate(278 978.037)" fill="#fff"/>
    <path id="Path_88" data-name="Path 88" d="M96.21,22.582a1.166,1.166,0,1,1-1.165,1.175,1.176,1.176,0,0,1,1.165-1.175" transform="translate(195.618 958.464)" fill="#fff"/>
    <path id="Path_89" data-name="Path 89" d="M37.459,32.693a4.633,4.633,0,1,0,4.63,4.636,4.653,4.653,0,0,0-4.63-4.636m.007,7.668a3.035,3.035,0,1,1,3.026-3.04,3.041,3.041,0,0,1-3.026,3.04" transform="translate(249.55 949.7)" fill="#fff"/>
  </g>
</svg>
