<svg xmlns="http://www.w3.org/2000/svg" width="27.663" height="18.952" viewBox="0 0 27.663 18.952">
  <path id="Mail_Icon" data-name="Mail Icon" d="M27.658,2.467a2.385,2.385,0,0,0-.5-1.5A2.521,2.521,0,0,0,25.029,0Q15.09.008,5.151,0c-.864,0-1.729,0-2.593,0A2.467,2.467,0,0,0,.477,1,2.893,2.893,0,0,0,0,2.182V16.769a2.881,2.881,0,0,0,.493,1.206,2.545,2.545,0,0,0,2.146.976q11.2-.008,22.39,0c.054,0,.108,0,.162,0a2.42,2.42,0,0,0,2.465-2.464q.017-7.009,0-14.018m-2.829-.833c.013.088-.061.107-.1.142q-4.9,4.086-9.811,8.17a1.521,1.521,0,0,1-2.166,0Q7.841,5.864,2.936,1.779c-.04-.033-.078-.07-.161-.145ZM1.634,2.8,9.6,9.435l-7.965,5.3ZM25.92,16.933a.774.774,0,0,1-.565.374,3.271,3.271,0,0,1-.377.019H13.827q-5.6,0-11.206,0a.935.935,0,0,1-.854-.359c-.112-.162-.149-.284.07-.429q4.441-2.937,8.865-5.9a.263.263,0,0,1,.386.024,6.515,6.515,0,0,0,1.285.976,3.086,3.086,0,0,0,3.5-.391c.241-.188.48-.38.7-.589.139-.131.233-.117.386-.015q3.315,2.219,6.64,4.425c.741.493,1.476.993,2.225,1.473.187.12.193.233.09.388m.1-2.2L18.062,9.435l7.955-6.625Z" transform="translate(0 0)" fill="#f84525"/>
</svg>
