<svg xmlns="http://www.w3.org/2000/svg" width="20.019" height="20.105" viewBox="0 0 20.019 20.105">
  <g id="Icon" transform="translate(-1183.407 -106)">
    <path id="Path_46" data-name="Path 46" d="M161.774,177l-.15-.072c-.533-.254-1.063-.515-1.6-.76-.317-.144-.427-.1-.639.174-.231.3-.474.584-.709.878a.39.39,0,0,1-.5.129,6.842,6.842,0,0,1-3.434-2.956.378.378,0,0,1,.042-.493,9.1,9.1,0,0,0,.606-.8.514.514,0,0,0,.048-.531c-.247-.575-.5-1.149-.72-1.733-.149-.389-.351-.655-.805-.54a1.072,1.072,0,0,0-1.065.409,2.862,2.862,0,0,0-.6,2.9,6.527,6.527,0,0,0,1.156,2.042,9.984,9.984,0,0,0,4.738,3.659,4.571,4.571,0,0,0,2.143.321,2.216,2.216,0,0,0,1.9-1.854c.069-.5.039-.557-.414-.778" transform="translate(1036.105 -58.906)" fill="#f84525"/>
    <path id="Path_47" data-name="Path 47" d="M19.542,7.019A9.673,9.673,0,0,0,11.294.106,9.384,9.384,0,0,0,4.881,1.461,9.947,9.947,0,0,0,1.329,14.8a.383.383,0,0,1,.037.315c-.456,1.65-.905,3.3-1.367,4.99.088-.02.148-.031.206-.046q2.454-.643,4.906-1.289a.377.377,0,0,1,.3.022,9.668,9.668,0,0,0,4.407,1.142A9.959,9.959,0,0,0,19.542,7.019M13.12,17.569a8.05,8.05,0,0,1-7.574-.521.533.533,0,0,0-.447-.066c-.953.258-1.909.505-2.9.766.265-.97.517-1.909.78-2.845a.446.446,0,0,0-.062-.4,8.07,8.07,0,0,1-1.33-4.98,8.105,8.105,0,0,1,2.745-5.7A7.988,7.988,0,0,1,8.572,1.794,8.274,8.274,0,0,1,13.12,17.569" transform="translate(1183.407 105.999)" fill="#f84525"/>
  </g>
</svg>
