<svg xmlns="http://www.w3.org/2000/svg" width="32.767" height="39.307" viewBox="0 0 32.767 39.307">
  <g id="Icon" transform="translate(0)">
    <path id="Path_774" data-name="Path 774" d="M26.4,19.639,4.348,6.077v.7q0,10.7,0,21.4a2.166,2.166,0,0,1-1.865,2.364,2.161,2.161,0,0,1-2.463-1.9C0,28.463,0,28.292,0,28.122Q0,15.248,0,2.374A2.183,2.183,0,0,1,1.991.011,2.606,2.606,0,0,1,3.665.525Q13.441,6.544,23.219,12.56q4.159,2.559,8.317,5.12A2.123,2.123,0,0,1,32.5,20.6a3.232,3.232,0,0,1-1.1,1.089Q19.2,29.229,6.971,36.733c-1.234.759-2.457,1.538-3.71,2.264a2.116,2.116,0,0,1-2.828-.58,2.151,2.151,0,0,1,.19-2.808,3.871,3.871,0,0,1,.736-.545Q13.6,27.525,25.842,19.994c.159-.1.315-.2.559-.356" transform="translate(0 0)" fill="#fff"/>
  </g>
</svg>
