<svg xmlns="http://www.w3.org/2000/svg" xmlns:xlink="http://www.w3.org/1999/xlink" width="57.667" height="36.977" viewBox="0 0 57.667 36.977">
  <defs>
    <clipPath id="clip-path">
      <rect id="Rectangle_532" data-name="Rectangle 532" width="57.667" height="36.977" fill="#f84525"/>
    </clipPath>
  </defs>
  <g id="Group_20" data-name="Group 20" clip-path="url(#clip-path)">
    <path id="Path_772" data-name="Path 772" d="M27.031,10.751A13.27,13.27,0,0,0,11.8.193c-5.809.923-9.464,4.458-11.232,10A25.274,25.274,0,0,0,0,12.989v2.7c.036.162.067.326.107.487A27.91,27.91,0,0,0,.99,19.595C2.305,22.957,4.9,25.058,8.107,26.5c.319.144.642.279.981.425a8.892,8.892,0,0,1-3.322,5.185C5.2,32.544,4.575,32.9,4,33.318a2.02,2.02,0,0,0,.807,3.626,2.865,2.865,0,0,0,.952.013,28.286,28.286,0,0,0,7.712-1.97A24.358,24.358,0,0,0,25.788,22.625a18.138,18.138,0,0,0,1.243-11.874M21.5,22.209a20.733,20.733,0,0,1-10.352,9.3c-.155.065-.314.122-.473.178a.871.871,0,0,1-.2-.009,11.09,11.09,0,0,0,3.069-7.6c-.65-.2-1.3-.362-1.929-.6a25.707,25.707,0,0,1-2.849-1.188A8.1,8.1,0,0,1,4.11,15.506,10.406,10.406,0,0,1,7.649,6.325a9.392,9.392,0,0,1,15.309,4.891A14.219,14.219,0,0,1,21.5,22.209" transform="translate(0 -0.013)" fill="#f84525"/>
    <path id="Path_773" data-name="Path 773" d="M283.822,11.308A13.476,13.476,0,0,0,267.047.43a14.183,14.183,0,0,0-10.211,16.2,12.176,12.176,0,0,0,7,9.4c.613.316,1.251.585,1.884.879a.87.87,0,0,1,0,.171c-.027.128-.06.255-.1.381a9.07,9.07,0,0,1-3.883,5.142c-.377.247-.77.473-1.123.749a1.905,1.905,0,0,0-.752,1.943,1.864,1.864,0,0,0,1.428,1.574,3.159,3.159,0,0,0,1.167.066,32.279,32.279,0,0,0,7.093-1.708,23.021,23.021,0,0,0,9.613-7.311c3.989-4.843,5.763-10.335,4.661-16.611m-5.637,10.861A20.83,20.83,0,0,1,267.8,31.5c-.185.078-.377.138-.565.206a12.393,12.393,0,0,0,2.629-4.958c.186-.74.217-1.518.345-2.274.057-.338-.077-.458-.378-.549-.949-.289-1.9-.59-2.831-.918a10.513,10.513,0,0,1-1.333-.6c-3.8-1.967-5.33-5.036-4.865-9.335.438-4.044,2.539-7.043,6.366-8.4,6.331-2.239,11.65,1.6,12.7,7.533a14.721,14.721,0,0,1-1.685,9.952" transform="translate(-226.476 -0.001)" fill="#f84525"/>
  </g>
</svg>
