<svg xmlns="http://www.w3.org/2000/svg" width="10.621" height="22.867" viewBox="0 0 10.621 22.867">
    <path data-name="Path 1016" d="M7 22.854c-.039 0-.073.006-.107.006-1.39.015-4.487.007-4.621-.013a.64.64 0 0 1-.01-.072V11.47c-.035-.04-.073-.029-.106-.03H.01c0-.031-.008-.056-.01-.081s0-.061 0-.091V7.419A.469.469 0 0 1 .08 7.4h2.159a.22.22 0 0 0 .019-.134V4.721a5.614 5.614 0 0 1 .415-2.106 4.12 4.12 0 0 1 .987-1.449A4.055 4.055 0 0 1 5.323.231 5.271 5.271 0 0 1 6.559.019C6.8.007 7.031 0 7.267 0q1.58 0 3.16.016c.043 0 .086 0 .135.005 0 .031.008.056.01.081s0 .061 0 .091V3.912a.3.3 0 0 1-.146.016H8.05A1.228 1.228 0 0 0 7.625 4a.852.852 0 0 0-.522.5 1.421 1.421 0 0 0-.094.538v2.347a.574.574 0 0 0 .08.017H10.459a.645.645 0 0 1 .161.009v.118c-.019.2-.039.391-.06.586l-.067.638-.1.938-.087.846-.085.834a.5.5 0 0 1-.014.057c-.035 0-.069.008-.1.009H7.023a.735.735 0 0 0-.014.083v11.144a.656.656 0 0 1-.009.19" transform="translate(.001)" style="fill:#fff"/>
</svg>
