<svg xmlns="http://www.w3.org/2000/svg" width="61.473" height="54.5" viewBox="0 0 61.473 54.5">
    <path data-name="Path 1174" d="m124.968 130.18 17.957 31.031a2.753 2.753 0 0 1 .386 1.035l1.569 10.328a1.545 1.545 0 0 1-2.486 1.42l-8.327-6.644a1.84 1.84 0 0 1-.459-.6l-16.147-27.854-1.11.65a.645.645 0 0 0-.266.963l6.855 11.844a1.545 1.545 0 0 1-2.679 1.541l-6.831-11.845c-.956-1.825-1.182-3.688 1.376-5.176l1.11-.65-.362-.626a4.079 4.079 0 0 1 1.5-5.537l2.342-1.372a4.031 4.031 0 0 1 5.576 1.493z" transform="translate(-111.622 -119.818)" style="fill:#fff;fill-rule:evenodd"/>
    <path data-name="Path 1175" d="M119.983 397.37a1.541 1.541 0 1 1 0 3.082H105.15a1.541 1.541 0 1 1 0-3.082h14.834z" transform="translate(-103.607 -355.479)" style="fill:#fff;fill-rule:evenodd"/>
    <path data-name="Path 1176" d="M150.651 61.567a1.6 1.6 0 0 1 1.4 1.55V66.2h5.392a7.651 7.651 0 0 1 5.807 2.467 8.115 8.115 0 0 1 0 10.588 6.817 6.817 0 0 1-.982.917 6.842 6.842 0 0 1 .982.917 8.115 8.115 0 0 1 0 10.588 6.872 6.872 0 0 1-.982.917 6.816 6.816 0 0 1 .982.917 8.115 8.115 0 0 1 0 10.588 7.635 7.635 0 0 1-5.807 2.445h-18.187a1.581 1.581 0 0 1-1.506-1.528 1.6 1.6 0 0 1 1.506-1.55h18.184a4.391 4.391 0 0 0 3.515-1.419 5.151 5.151 0 0 0 0-6.505 4.391 4.391 0 0 0-3.515-1.419h-24.473a1.6 1.6 0 0 1-1.528-1.528 1.621 1.621 0 0 1 1.528-1.55h24.473a4.391 4.391 0 0 0 3.515-1.419 5.151 5.151 0 0 0 0-6.505 4.391 4.391 0 0 0-3.515-1.421h-5.392v4.388a1.586 1.586 0 0 1-.851 1.375 1.559 1.559 0 0 1-1.593-.153l-6.942-5.2-6.921 5.2a1.565 1.565 0 0 1-1.615.174 1.6 1.6 0 0 1-.873-1.4V81.7h-7.881a1.6 1.6 0 0 1-1.528-1.528 1.621 1.621 0 0 1 1.528-1.55h7.881v-9.347h-27.967a1.6 1.6 0 0 1-1.528-1.528 1.621 1.621 0 0 1 1.528-1.55h27.966v-3.079a1.617 1.617 0 0 1 1.55-1.55h15.849zm6.79 7.706h-5.392v9.344h5.392a4.391 4.391 0 0 0 3.515-1.419 5.151 5.151 0 0 0 0-6.505 4.391 4.391 0 0 0-3.515-1.419z" transform="translate(-103.739 -61.567)" style="fill:#fff;fill-rule:evenodd"/>
</svg>
