<svg xmlns="http://www.w3.org/2000/svg" width="55.678" height="54.366" viewBox="0 0 55.678 54.366">
    <path data-name="Path 1168" d="M0 48.567a9.417 9.417 0 0 1 4.95-5.3 36.817 36.817 0 0 0 10.528-8.842 1.945 1.945 0 0 0 .215-1.245c-.025-.52-.25-1.03-.275-1.55-.1-2.074 1.129-3.248 3.124-2.717a2.634 2.634 0 0 0 2.929-.961c2.771-2.874 5.618-5.675 8.5-8.573-.845-.84-1.638-1.657-2.468-2.433a2.017 2.017 0 0 0-.755-.289c-.072-.023-.174.036-.241.008-.692-.292-1.737-.409-2-.926-.967-1.876-3.649-2.305-3.877-4.688a2.2 2.2 0 0 1 .454-1.564c2.956-3.045 5.97-6.034 8.983-9.023A3.458 3.458 0 0 1 30.91 0h.736a4.422 4.422 0 0 1 2.673 2.337 2.01 2.01 0 0 0 .875.75 3.593 3.593 0 0 1 2.017 2.871A2.27 2.27 0 0 0 37.8 7.21c3.016 3.05 6.066 6.067 9.11 9.09a4.326 4.326 0 0 0 2.3 1.19c.834.178 1.53 1.063 2.255 1.673a11.692 11.692 0 0 0 1.311 1.255c2.09 1.244 2.207 3.4.848 4.69-2.693 2.559-5.347 5.168-7.872 7.89a2.942 2.942 0 0 1-4.713-.843 4.116 4.116 0 0 0-1.265-1.3A3.333 3.333 0 0 1 37.968 28a1.821 1.821 0 0 0-.437-1.067c-.71-.836-1.485-1.615-2.395-2.587-3.274 3.333-6.428 6.528-9.547 9.756-.178.185-.114.64-.1.966a8.761 8.761 0 0 1 .119 2.273c-.377 1.567-2.01 2.223-3.913 1.508a1.752 1.752 0 0 0-2.093.5 38.1 38.1 0 0 0-8.656 10.532 13.511 13.511 0 0 1-2.26 2.874C5.732 55.822.859 54.177.194 50.581c-.02-.107-.127-.2-.194-.3v-1.714M32.721 3.05c-.975-1.574-1.142-1.654-2.288-.586-1.883 1.755-3.7 3.582-5.519 5.4a25.294 25.294 0 0 0-2.3 2.541 1.22 1.22 0 0 0 .177 1.178 1.194 1.194 0 0 0 1.171.078c2.94-2.83 5.827-5.715 8.755-8.614m9.622 27.827c1.059 1.552 1.3 1.638 2.32.65q3.779-3.661 7.462-7.42c1.06-1.088.9-1.529-.7-2.218l-9.086 8.988" style="fill:#fff"/>
    <path data-name="Path 1169" d="M40.68 54.242c-3.88 0-7.761.041-11.64-.018a2.9 2.9 0 0 1-3.1-2.928 3.156 3.156 0 0 1 3.253-2.97q11.646-.026 23.292.005a3.27 3.27 0 0 1 3.189 3.085 3.236 3.236 0 0 1-3.229 2.908c-3.922.025-7.845.008-11.768.008v-.09" style="fill:#fff"/>
    <path data-name="Path 1170" d="M40.6 46.578h-9.44c-.581 0-1.212.086-1.24-.766-.028-.9.609-.923 1.258-.923q9.5 0 19 .01a2.215 2.215 0 0 1 .963.12 1 1 0 0 1 .528.69.934.934 0 0 1-.545.659 3.557 3.557 0 0 1-1.211.134c-3.1.01-6.21 0-9.316 0v.069" style="fill:#fff"/>
</svg>
