<svg id="Youtube" xmlns="http://www.w3.org/2000/svg" width="24.256" height="16.958" viewBox="0 0 24.256 16.958">
  <defs>
    <style>
      .cls-1 {
        fill: #fff;
      }
    </style>
  </defs>
  <path id="Path_1023" data-name="Path 1023" class="cls-1" d="M11.938,0c1.137.014,2.041.021,2.944.037.672.012,1.343.033,2.015.057.553.02,1.1.044,1.657.078q.886.055,1.769.134a7.191,7.191,0,0,1,1.114.166,3.065,3.065,0,0,1,2.331,2.389c.116.54.206,1.085.273,1.634.071.594.12,1.189.155,1.786.062,1.025.073,2.05.046,3.075q-.025.964-.1,1.926c-.046.593-.113,1.184-.191,1.773-.054.407-.123.814-.217,1.214a2.884,2.884,0,0,1-1.019,1.6,3.01,3.01,0,0,1-1.387.635c-.5.092-1,.151-1.5.2q-1.191.112-2.385.155c-.8.029-1.606.057-2.41.076-1.556.038-3.112.033-4.668.012-.813-.011-1.626-.034-2.439-.059q-.858-.026-1.715-.075-.957-.056-1.913-.136a12.259,12.259,0,0,1-1.5-.2A2.944,2.944,0,0,1,.907,15.187,3.1,3.1,0,0,1,.45,14.06c-.1-.488-.178-.979-.236-1.474C.14,11.963.092,11.338.057,10.712,0,9.668-.012,8.624.012,7.579c.012-.585.04-1.169.076-1.753.047-.783.125-1.563.249-2.338A5.587,5.587,0,0,1,.545,2.5,2.971,2.971,0,0,1,2.6.545,4.456,4.456,0,0,1,3.288.419Q3.914.335,4.541.27C4.884.236,5.227.21,5.57.189Q6.421.136,7.273.1q.7-.031,1.4-.045C9.838.03,11,.014,11.938,0M9.771,12.121l6.347-3.641L9.771,4.839v7.282" transform="translate(0)"/>
</svg>
