<svg xmlns="http://www.w3.org/2000/svg" width="41.857" height="42.599" viewBox="0 0 41.857 42.599">
    <g data-name="Group 65">
        <path data-name="Union 7" d="M3.517 41.6a4 4 0 0 1-.717-.064 3.385 3.385 0 0 1-2.793-3.292 48.5 48.5 0 0 1-.002-1.321.7.7 0 0 1 .793-.78c.4-.006.791 0 1.248 0V22.124c0-.736.171-.956.83-.982a1.052 1.052 0 0 1 .262-.034h9.868c.978-.81 1.939-1.642 2.924-2.441 1.366-1.108 2.714-2.239 4.07-3.359.576-.476.951-.408 1.333.246.179.306.362.61.528.923a.687.687 0 0 1-.215.969.678.678 0 0 1-.952-.268c-.086-.128-.161-.263-.274-.45l-5.3 4.38h6.16a1.07 1.07 0 0 1 1.067 1.067v3.607c.893-.334 1.792-.666 2.7-1.008l-2.856-4.959a2.025 2.025 0 0 1-.2-.377.674.674 0 0 1 1.1-.7 1.48 1.48 0 0 1 .244.345q1.574 2.727 3.142 5.457c.4.693.282 1.023-.457 1.3l-3.68 1.386v1.865a.956.956 0 0 1 .121.484c.005 1.69 0 3.38 0 5.07v1.494h1.247c.533.008.789.253.792.779a12.1 12.1 0 0 1-.035 1.7A3.371 3.371 0 0 1 21 41.6H3.517zm27.047-7.507a1.987 1.987 0 0 1-1.883-1.443v-.013a1.347 1.347 0 0 1-.032-.125 2.023 2.023 0 0 1-.056-.467v-8.192a2.045 2.045 0 0 1 2.039-2.039h8.186a2.032 2.032 0 0 1 1.443.6v.005a2.032 2.032 0 0 1 .591 1.431v8.182a2.017 2.017 0 0 1-.058.473c0 .022-.011.043-.017.065s-.015.058-.025.087a1.981 1.981 0 0 1-1.852 1.43q-2.084.016-4.169.016t-4.167-.015zm-3.4-14.24a.694.694 0 0 1 .6-.751q1.644-.337 3.29-.665a.71.71 0 0 1 .933.5c.094.426-.146.75-.659.858-1.053.221-2.109.432-3.164.644a1.58 1.58 0 0 1-.208.02.72.72 0 0 1-.788-.611zM.9 19.093c-.67-.001-.9-.227-.9-.893V7.713c0-.669.225-.894.893-.895h7.743c.667 0 .893.226.894.894v10.485c0 .668-.227.9-.893.9H.9zm4.531-2.725H4.113h1.315zm-.661-4.094h.412-.412zm-.4 0h-.395zm1.39 0zm-1.978 0zm1.883 0zm-1.7 0zm1.6 0zm19.776 5.186a.672.672 0 0 1 .188-1c.866-.66 1.739-1.309 2.609-1.962a.618.618 0 0 1 .783-.076 3.012 3.012 0 0 1 .456.568 2.732 2.732 0 0 1-.417.584c-.87.677-1.754 1.337-2.642 1.989a.782.782 0 0 1-.461.167.647.647 0 0 1-.519-.273zm-1.928-2.61a.681.681 0 0 1-.06-1.017q.971-1.313 1.957-2.615a.6.6 0 0 1 .776-.251 2.676 2.676 0 0 1 .552.546 3.9 3.9 0 0 1-.269.551q-.956 1.3-1.931 2.582a.791.791 0 0 1-.614.36.654.654 0 0 1-.414-.158zm7.334-1.893H30.631a2.022 2.022 0 0 1-1.113-.334l-.013-.008-.063-.046a1.884 1.884 0 0 1-.382-.355 2.027 2.027 0 0 1-.468-1.3V2.727a2.017 2.017 0 0 1 .189-.85l.018-.036c.017-.035.034-.07.053-.1A1.957 1.957 0 0 1 30.534.69h.375Q34.7.661 38.5.688h.417a1.931 1.931 0 0 1 1.735 1.154 2.017 2.017 0 0 1 .2.883v8.187a2.023 2.023 0 0 1-.372 1.168 1.877 1.877 0 0 1-.679.613l-.023.014-.028.013a2.018 2.018 0 0 1-.936.231h-4.117q-1.978.006-3.953.003zm-13.789-.681a6.165 6.165 0 1 1 .034 0zm-1.979-5.189v-.979c.002.326.001.653 0 .979zm0-.979V5.15l.002.958z" transform="translate(.5 .5)" style="fill:none;stroke:#000;stroke-miterlimit:10"/>
    </g>
</svg>
