<svg xmlns="http://www.w3.org/2000/svg" width="22.918" height="22.866" viewBox="0 0 22.918 22.866">
    <path data-name="Path 1018" d="M24.263 28.21v-1.087c0-2.2.007-4.409 0-6.613a9.324 9.324 0 0 0-.111-1.617c-.268-1.472-.976-2.108-2.3-2.137a2.445 2.445 0 0 0-2.723 2.073 10.238 10.238 0 0 0-.18 2.015c-.021 2.243-.008 4.486-.008 6.73v.648h-4.688V12.981h4.5v1.807a20.582 20.582 0 0 1 2.122-1.642c1.7-1.011 5.452-.807 6.9 1.238a6.72 6.72 0 0 1 1.168 3.828c.069 3.286.043 6.573.054 9.86a.543.543 0 0 1-.051.139z" transform="translate(-6.079 -5.354)" style="fill:#fff"/>
    <path data-name="Rectangle 644" transform="translate(.403 7.619)" style="fill:#fff" d="M0 0h4.689v15.229H0z"/>
    <path data-name="Path 1019" d="M2.7 5.482A2.7 2.7 0 0 1 0 2.693 2.716 2.716 0 0 1 2.749 0 2.741 2.741 0 1 1 2.7 5.482" transform="translate(-.001)" style="fill:#fff"/>
</svg>
