<svg data-name="Animation Icon" xmlns="http://www.w3.org/2000/svg" width="32.886" height="38.75" viewBox="0 0 32.886 38.75">
    <defs>
        <clipPath id="kfyobrle9a">
            <path data-name="Rectangle 674" style="fill:none" d="M0 0h32.886v38.75H0z"/>
        </clipPath>
    </defs>
    <g data-name="Group 62" style="clip-path:url(#kfyobrle9a)">
        <path data-name="Path 1109" d="M17.655 38.75a.882.882 0 0 1-.366-.85c.017-.563 0-1.127 0-1.73h-5.896c-.939 0-1.37-.429-1.372-1.359 0-.429-.007-.858 0-1.286a1.142 1.142 0 0 1 1.219-1.2c1.867-.006 3.733 0 5.6 0h.426v-1.542h-5.905a1.179 1.179 0 0 1-1.342-1.349v-1.248a1.142 1.142 0 0 1 1.251-1.241h5.985c.054-.425.122-.811-.36-1a.249.249 0 0 1-.058-.048c-1.2-1.02-1.12-.737-1.118-2.34 0-.391-.012-.783.008-1.173a1 1 0 0 1 1.044-1.02 47.003 47.003 0 0 1 2.157 0 1.019 1.019 0 0 1 1.066 1.078c.009.668.039 1.34-.015 2a1.492 1.492 0 0 1-.372.821c-.293.322-.711.531-1 .854a2.449 2.449 0 0 0-.277.828h13.2c.946 0 1.349.407 1.35 1.36 0 .441.007.883 0 1.324a1.118 1.118 0 0 1-1.106 1.153c-.126.008-.252 0-.378 0H18.452v1.538h13.029c1 0 1.4.4 1.4 1.39v1.211a1.136 1.136 0 0 1-1.242 1.249c-1.4.006-2.8 0-4.2 0h-9.012c0 .631-.014 1.233.005 1.833a.733.733 0 0 1-.4.746zm.793-9.133h8.1v-1.515h-8.1zm5.852 5.4h7.415v-1.545H24.3zm-7.026-1.536h-6.08v1.537h6.08zm-6.091-3.864h6.081v-1.52h-6.081zm7.268 5.4h4.654v-1.54h-4.654zm13.28-6.92h-4v1.515h4zm-14.868-5.59c0 .52.031 1.023-.008 1.521-.048.627.488.78.834 1.054.3.236.522-.111.732-.288.166-.14.411-.309.427-.482.053-.6.02-1.2.02-1.8z"/>
        <path data-name="Path 1110" d="M16.429 0h13.663a2.682 2.682 0 0 1 2.733 2.15 3.641 3.641 0 0 1 .056.752v13.963a2.69 2.69 0 0 1-2.891 2.912H9.061a2.619 2.619 0 0 1-.3-.01.511.511 0 0 1-.5-.516.517.517 0 0 1 .467-.587 2.542 2.542 0 0 1 .452-.022h20.7a3.087 3.087 0 0 0 .714-.053 1.509 1.509 0 0 0 1.151-1.5q.009-7.189 0-14.379a1.546 1.546 0 0 0-1.7-1.571H2.904a1.575 1.575 0 0 0-1.764 1.74v14.038a1.562 1.562 0 0 0 1.733 1.725h3.368a1.976 1.976 0 0 1 .413.029.555.555 0 0 1-.06 1.1 2.4 2.4 0 0 1-.264.01c-1.161 0-2.321.006-3.482 0a2.68 2.68 0 0 1-2.843-2.848Q0 9.895.005 2.857A2.692 2.692 0 0 1 2.88 0h13.549"/>
        <path data-name="Path 1111" d="M14.275 10.553a7.32 7.32 0 0 1 3.214-2.026 15.1 15.1 0 0 1 2.26-.4.565.565 0 0 1 .71.545c.009.356-.227.559-.683.58a6.615 6.615 0 0 0-5.066 2.546c-.409.507-.835.465-1.139-.125a9.328 9.328 0 0 0-4.756-4.451 9.223 9.223 0 0 0-3.417-.721.777.777 0 0 1-.52-.146.848.848 0 0 1-.175-.6c.037-.281.285-.388.568-.389a10.055 10.055 0 0 1 3.373.574 10.4 10.4 0 0 1 5.429 4.312c.06.093.125.183.2.3"/>
        <path data-name="Path 1112" d="M3.9 36.17H1.253a1.116 1.116 0 0 1-1.248-1.231c0-.492-.008-.983 0-1.474a1.072 1.072 0 0 1 1.1-1.139q2.8-.02 5.6 0a1.077 1.077 0 0 1 1.115 1.129c.008.517.007 1.033 0 1.55a1.1 1.1 0 0 1-1.161 1.164c-.92.01-1.84 0-2.76 0m-2.734-1.158h5.49v-1.542H1.166z"/>
        <path data-name="Path 1113" d="M3.925 26.938h2.684a1.1 1.1 0 0 1 1.214 1.217c0 .491.006.983 0 1.474a1.073 1.073 0 0 1-1.1 1.141q-2.8.023-5.6 0a1.07 1.07 0 0 1-1.117-1.126 38.139 38.139 0 0 1 0-1.55 1.078 1.078 0 0 1 1.158-1.157c.92-.008 1.84 0 2.76 0m2.75 1.16H1.168v1.518h5.506z"/>
        <path data-name="Path 1114" d="M28.121 9.293a3.188 3.188 0 1 1-3.166-3.184 3.188 3.188 0 0 1 3.166 3.184m-1.136.05a2.053 2.053 0 0 0-4.1-.1 2.07 2.07 0 0 0 2.025 2.106 2.049 2.049 0 0 0 2.079-2.007"/>
        <path data-name="Path 1115" d="M5.375 7.73a8.173 8.173 0 0 1 7.793 6.532 1.681 1.681 0 0 1 .03.225.56.56 0 0 1-1.1.2c-.125-.435-.205-.885-.363-1.306a6.98 6.98 0 0 0-6.323-4.519 2.249 2.249 0 0 1-.264-.011.531.531 0 0 1-.491-.534.522.522 0 0 1 .415-.559 1.3 1.3 0 0 1 .3-.032"/>
        <path data-name="Path 1116" d="M19.665 10.493c.047 0 .148-.007.248 0a.522.522 0 0 1 .541.519.513.513 0 0 1-.467.584c-.309.052-.629.048-.934.117a4.123 4.123 0 0 0-3.148 2.793c-.021.059-.04.119-.062.178a.566.566 0 1 1-1.074-.342 5.338 5.338 0 0 1 4.9-3.851"/>
    </g>
</svg>
