<svg id="instagram" xmlns="http://www.w3.org/2000/svg" width="22.64" height="22.645" viewBox="0 0 22.64 22.645">
  <defs>
    <style>
      .cls-1 {
        fill: #fff;
      }
    </style>
  </defs>
  <path id="Path_1020" data-name="Path 1020" class="cls-1" d="M0,16.855V5.8c.014-.079.023-.159.043-.236A10.35,10.35,0,0,1,.52,3.809,6.052,6.052,0,0,1,6.277.025C9.636-.022,13,.011,16.357.015a6.033,6.033,0,0,1,3.57,1.108,6.154,6.154,0,0,1,2.707,5.257q.013,4.95,0,9.9a6.042,6.042,0,0,1-.115,1.273,6.144,6.144,0,0,1-4.655,4.905c-.331.092-.678.125-1.017.185H5.792c-.231-.036-.465-.06-.693-.112A6.169,6.169,0,0,1,.185,17.87C.094,17.54.06,17.194,0,16.855m2.007-5.525q0,2.453,0,4.905a4.491,4.491,0,0,0,.228,1.52,4.238,4.238,0,0,0,4.149,2.883c3.286,0,6.571.01,9.857-.009a4.864,4.864,0,0,0,1.5-.229,4.184,4.184,0,0,0,2.892-4.132c0-3.293.01-6.585-.009-9.877a4.8,4.8,0,0,0-.225-1.473,4.181,4.181,0,0,0-4.109-2.9q-4.962-.013-9.923,0A4.2,4.2,0,0,0,2.8,3.809,4.248,4.248,0,0,0,2.006,6.4q0,2.464,0,4.927" transform="translate(0 0)"/>
  <path id="Path_1021" data-name="Path 1021" class="cls-1" d="M20.108,14.3a5.834,5.834,0,1,1-5.836-5.835A5.858,5.858,0,0,1,20.108,14.3m-5.826-3.823A3.82,3.82,0,1,0,18.1,14.3a3.825,3.825,0,0,0-3.814-3.827" transform="translate(-2.956 -2.964)"/>
  <path id="Path_1022" data-name="Path 1022" class="cls-1" d="M25.98,5.851a1.467,1.467,0,1,1-1.473,1.456A1.478,1.478,0,0,1,25.98,5.851" transform="translate(-8.584 -2.05)"/>
</svg>
