<svg id="Skype" xmlns="http://www.w3.org/2000/svg" width="26.496" height="26.537" viewBox="0 0 26.496 26.537">
  <defs>
    <style>
      .cls-1 {
        fill: #fff;
      }
    </style>
  </defs>
  <path id="Path_1024" data-name="Path 1024" class="cls-1" d="M25.577,13.268c-.051.578-.106,1.157-.151,1.736a.527.527,0,0,0,.06.275,7.465,7.465,0,0,1-3.458,10.6,7.27,7.27,0,0,1-6.658-.32.831.831,0,0,0-.523-.1A12,12,0,0,1,4.68,22.074a12,12,0,0,1-3.7-9.7,4.468,4.468,0,0,0,.086-.962,3.961,3.961,0,0,0-.4-.851A7.483,7.483,0,0,1,6.239.109a7.287,7.287,0,0,1,4.882.851.81.81,0,0,0,.521.1,12.076,12.076,0,0,1,11.01,4.275,12.178,12.178,0,0,1,2.924,7.932M13.037,21.085a8.966,8.966,0,0,0,3.845-.684,4.35,4.35,0,0,0,2.829-3.918,3.618,3.618,0,0,0-1.856-3.536,9.143,9.143,0,0,0-2.384-.952c-1.112-.29-2.231-.551-3.343-.838a3.732,3.732,0,0,1-1.541-.739,1.315,1.315,0,0,1-.052-2.048,3.1,3.1,0,0,1,.915-.57,4.819,4.819,0,0,1,2.5-.186,2.376,2.376,0,0,1,1.626.963c.187.247.344.516.514.775.142.215.279.433.425.645a1.294,1.294,0,0,0,1.474.445,1.393,1.393,0,0,0,1-1.166A2.582,2.582,0,0,0,18.3,7.35a5.139,5.139,0,0,0-2.67-1.62,9.945,9.945,0,0,0-3.738-.22A6.988,6.988,0,0,0,9.016,6.4a3.726,3.726,0,0,0-1.652,4.7,3.612,3.612,0,0,0,1.9,1.913,12.935,12.935,0,0,0,2,.751c.976.281,1.975.484,2.961.732a4.528,4.528,0,0,1,1.6.7,1.818,1.818,0,0,1,.2,2.695,3.087,3.087,0,0,1-1.1.718,5.23,5.23,0,0,1-2.5.247,2.888,2.888,0,0,1-2.345-1.552c-.145-.267-.258-.551-.409-.813a4.283,4.283,0,0,0-.519-.787,1.4,1.4,0,0,0-1.6-.228,1.317,1.317,0,0,0-.76,1.339,3.259,3.259,0,0,0,.37,1.265,5.065,5.065,0,0,0,2.424,2.307,8.312,8.312,0,0,0,3.459.694" transform="translate(-0.001 0)"/>
</svg>
