<svg xmlns="http://www.w3.org/2000/svg" width="26.402" height="47" viewBox="0 0 26.402 47">
    <path data-name="Path 1148" d="M6.317 47a2.428 2.428 0 0 1-1.754-2.213H3.278A3.066 3.066 0 0 1 0 41.518V16.735a3.336 3.336 0 0 1 .637-2.153 2.907 2.907 0 0 1 2.331-1.175c1.037-.016 2.075 0 3.178 0V3.528A3.24 3.24 0 0 1 8.05.341 3.887 3.887 0 0 1 9.6.02c2.369-.033 4.739-.02 7.11-.014a3.316 3.316 0 0 1 3.541 3.521c.008 3.09 0 6.18 0 9.269v.604c1 0 1.977-.034 2.947.014a4.045 4.045 0 0 1 1.5.316 3.013 3.013 0 0 1 1.7 3v24.688a4.294 4.294 0 0 1-.038.594 3.007 3.007 0 0 1-3.1 2.769h-.345a4.566 4.566 0 0 1-.544 1.248A7.458 7.458 0 0 1 21.1 47h-1.01a2.423 2.423 0 0 1-1.763-2.194H9.2a7.743 7.743 0 0 1-.763 1.447 4.648 4.648 0 0 1-1.11.747zm6.55-6.706h6.56c.835 0 1.128-.3 1.128-1.132V27.051c0-.862-.288-1.151-1.155-1.151H6.371c-.9 0-1.172.28-1.172 1.178v12.019c0 .926.272 1.2 1.2 1.2h6.468m4.788-28.2a2.141 2.141 0 0 0 .025-.215c0-2.8.006-5.6 0-8.4 0-.674-.274-.918-.97-.919H9.783c-.834 0-1.058.223-1.059 1.061v8.493h2.47c.209-.548.263-1.129.582-1.41a2.442 2.442 0 0 1 2.859 0c.318.282.37.864.565 1.381zm-4.768 9.636h6.374a3.419 3.419 0 0 0 .5-.023.818.818 0 0 0 .789-.894q.017-.939 0-1.88a.824.824 0 0 0-.786-.9 2.266 2.266 0 0 0-.365-.022H6.329a2.172 2.172 0 0 0-.32.017.835.835 0 0 0-.81.924c-.01.52 0 1.039 0 1.559 0 .959.258 1.218 1.221 1.218h6.466" style="fill:#fff"/>
</svg>
