<svg xmlns="http://www.w3.org/2000/svg" width="189" height="188.997" viewBox="0 0 189 188.997">
    <defs>
        <filter id="b1ih273vja" x="0" y="0" width="189" height="188.997" filterUnits="userSpaceOnUse">
            <feOffset dy="10"/>
            <feGaussianBlur stdDeviation="20" result="blur"/>
            <feFlood flood-opacity=".02"/>
            <feComposite operator="in" in2="blur"/>
            <feComposite in="SourceGraphic"/>
        </filter>
    </defs>
    <g data-name="Chat Icon">
        <g style="filter:url(#b1ih273vja)">
            <path data-name="Path 728" d="M66.68 46.857a34.579 34.579 0 1 0-17.76 18.952h17.76z" transform="translate(60 49.996)" style="fill:#f84525"/>
        </g>
        <path data-name="Path 729" d="M154.7 156.969c-.23-.145-.458-.294-.692-.433q-2.4-1.438-4.812-2.868a.568.568 0 0 0-.339-.078 14.328 14.328 0 0 1-6.524-.482 12.654 12.654 0 0 1-4.42-2.6 3.21 3.21 0 0 1-.433-.443h.174c1.175 0 2.35.022 3.524-.015a17.149 17.149 0 0 0 7.912-2.061 12.675 12.675 0 0 0 5.34-5.467 12.219 12.219 0 0 0 1.219-4.119 23.241 23.241 0 0 0 .065-3.781v-.2c.3.274.592.517.861.779a10.845 10.845 0 0 1 2.593 3.868 9.414 9.414 0 0 1 .621 2.77 1.064 1.064 0 0 0 .032.152v1.087c-.025.219-.048.439-.077.657a10.056 10.056 0 0 1-1.929 4.726 12.239 12.239 0 0 1-2.951 2.82.3.3 0 0 0-.127.2c-.006 1.829 0 3.658 0 5.487z" transform="translate(-48.821 -55.404)" style="fill:#fff"/>
        <path data-name="Path 730" d="M25.382 10.053a9.654 9.654 0 0 0-1.432-4A12.852 12.852 0 0 0 15.818.3C15.221.154 14.6.119 13.986.032A1.343 1.343 0 0 1 13.854 0h-1.333c-.213.022-.426.047-.64.067a14.021 14.021 0 0 0-8.1 3.311 10.5 10.5 0 0 0-3.506 5.6C.153 9.477.112 10 .033 10.51c-.008.051-.022.1-.033.152v1.228c.022.19.049.38.066.57a10.923 10.923 0 0 0 3.9 7.5.368.368 0 0 1 .1.252c.006 1.736 0 3.472 0 5.208v.208c.075-.037.13-.062.182-.091q2.68-1.5 5.356-3.008a.682.682 0 0 1 .449-.08 20.426 20.426 0 0 0 4.681.157 12.256 12.256 0 0 0 6.144-2.318 11.028 11.028 0 0 0 4.259-6.433 10.527 10.527 0 0 0 .236-3.807M6.611 12.825a1.484 1.484 0 1 1 1.532-1.47 1.5 1.5 0 0 1-1.532 1.47m7.648-1.463a1.529 1.529 0 1 1-1.507-1.5 1.516 1.516 0 0 1 1.507 1.5m4.587 1.465a1.484 1.484 0 1 1 1.516-1.489 1.514 1.514 0 0 1-1.516 1.489" transform="translate(79.435 70)" style="fill:#fff"/>
    </g>
</svg>
