<svg xmlns="http://www.w3.org/2000/svg" width="63.026" height="40" viewBox="0 0 63.026 40">
    <g data-name="Group 73">
        <path data-name="Path 1179" d="M6.678 15.626h2.5a18.111 18.111 0 0 0 1.937 1.945 37.61 37.61 0 0 0 18.7 7 39.814 39.814 0 0 0 23.325-4.364A48.808 48.808 0 0 0 58 17.03a8.23 8.23 0 0 0 1.243-1.481h2.588V38.6h-2.954V20.529c-16.437 9.912-32.759 9.888-49.193.035v18.03H6.678z" transform="translate(-2.74 -6.379)" style="fill:#fff"/>
        <path data-name="Path 1180" d="M46.545 60.308h-9.6c-1.859 0-2.516-1.113-1.617-2.735C36.594 55.28 37.9 53 39.147 50.7a2.016 2.016 0 0 1 1.953-1.182q5.517.035 11.036 0a1.943 1.943 0 0 1 1.891 1.122c1.265 2.371 2.564 4.724 3.822 7.1.773 1.459.083 2.558-1.6 2.564-3.236.012-6.472 0-9.707 0" transform="translate(-14.329 -20.316)" style="fill:#fff"/>
        <path data-name="Path 1181" d="M5.294 64.569c-1.155 0-2.311.019-3.466 0A1.669 1.669 0 0 1 .1 62.248a3.043 3.043 0 0 1 2.715-2.276c1.695-.081 3.4-.086 5.095 0a2.986 2.986 0 0 1 2.8 2.643 1.55 1.55 0 0 1-1.644 1.945c-1.256.038-2.515.009-3.772.009" transform="translate(0 -24.579)" style="fill:#fff"/>
        <path data-name="Path 1182" d="M94.015 64.655c-1.189 0-2.38.021-3.568-.005a1.579 1.579 0 0 1-1.72-2.058 2.491 2.491 0 0 1 2-2.32 37.038 37.038 0 0 1 6.575-.019 2.555 2.555 0 0 1 2.055 2.285 1.6 1.6 0 0 1-1.67 2.109c-1.222.034-2.446.008-3.67.008" transform="translate(-36.386 -24.664)" style="fill:#fff"/>
        <path data-name="Path 1183" d="M45.551 4.083c2.495.285 3.948-.862 4.63-3.288.739 2.345 2.139 3.616 4.725 3.405-2.042 1.4-2.84 3.091-1.783 5.515-1.993-1.455-3.876-1.585-5.768.117.089-1.251.435-2.339.154-3.231s-1.187-1.575-1.957-2.521" transform="translate(-18.688 -.326)" style="fill:#fff"/>
        <path data-name="Path 1184" d="M95.687 6.131a3.035 3.035 0 0 1-3.1-2.975A3.094 3.094 0 0 1 95.64 0a3.151 3.151 0 0 1 3.075 3.057 3.071 3.071 0 0 1-3.028 3.072" transform="translate(-37.985)" style="fill:#fff"/>
        <path data-name="Path 1185" d="M10.035 3.134a3.033 3.033 0 0 1-3.081 3A3.079 3.079 0 0 1 3.9 3.079 3.152 3.152 0 0 1 7.059 0a3.1 3.1 0 0 1 2.976 3.133" transform="translate(-1.602)" style="fill:#fff"/>
    </g>
</svg>
