<svg xmlns="http://www.w3.org/2000/svg" width="37.876" height="50" viewBox="0 0 37.876 50">
    <defs>
        <clipPath id="gty95sm9xa">
            <path data-name="Rectangle 733" style="fill:#f2f2f2" d="M0 0h33.01v44.993H0z"/>
        </clipPath>
        <clipPath id="a7xu1uioeb">
            <path data-name="Rectangle 732" style="fill:none" d="M0 0h32.036v43.667H0z"/>
        </clipPath>
    </defs>
    <g data-name="Group 6184">
        <g data-name="Group 109">
            <g data-name="Group 108" style="clip-path:url(#gty95sm9xa)" transform="translate(4.867 5.007)">
                <path data-name="Path 1298" d="M33.008 22.761A4.507 4.507 0 0 0 28.252 18h-1.243v-.58c0-2.217.015-4.434-.009-6.65a12.2 12.2 0 0 0-.19-2.218 10.516 10.516 0 0 0-20.805 2.89.512.512 0 0 0 .571.544H8.45a.5.5 0 0 0 .555-.555c.005-.327 0-.655 0-.982A7.5 7.5 0 0 1 16.457 3a7.408 7.408 0 0 1 7.452 6.51A41.385 41.385 0 0 1 24 13.743c.012 1.4 0 2.8 0 4.256H4.89a6.465 6.465 0 0 0-1.2.076A4.5 4.5 0 0 0 0 22.672v17.541a4.522 4.522 0 0 0 4.788 4.78H28.22a4.522 4.522 0 0 0 4.788-4.779V22.762" style="fill:#f2f2f2"/>
            </g>
        </g>
        <g data-name="Group 107">
            <g data-name="Group 106" style="clip-path:url(#a7xu1uioeb)">
                <path data-name="Path 1296" d="M23.3 17.469c0-1.418.009-2.774 0-4.131a40.189 40.189 0 0 0-.09-4.109 7.19 7.19 0 0 0-7.232-6.317 7.274 7.274 0 0 0-7.23 7.226v.953a.487.487 0 0 1-.538.538H6.391a.5.5 0 0 1-.554-.528A10.206 10.206 0 0 1 26.02 8.3a11.838 11.838 0 0 1 .184 2.152c.023 2.151.008 4.3.008 6.454v.563h1.206a4.374 4.374 0 0 1 4.616 4.621v16.938a4.389 4.389 0 0 1-4.647 4.638H4.65A4.389 4.389 0 0 1 0 39.027V22a4.362 4.362 0 0 1 3.581-4.458 6.274 6.274 0 0 1 1.164-.073q8.965-.006 17.931 0h.624m-7.277 23.28h11.476a1.436 1.436 0 0 0 1.614-1.512q.007-8.684 0-17.369a1.444 1.444 0 0 0-1.463-1.5H4.39a1.443 1.443 0 0 0-1.461 1.5q-.007 8.706 0 17.412a1.4 1.4 0 0 0 1.015 1.4 2.811 2.811 0 0 0 .729.065q5.673.006 11.346 0"/>
                <path data-name="Path 1297" d="M137.122 277.531h-1.284c-.358 0-.427-.094-.38-.457.132-1.027.256-2.054.389-3.081a.335.335 0 0 0-.168-.376 2.559 2.559 0 0 1-.984-3.009 2.584 2.584 0 0 1 4.987.459 2.5 2.5 0 0 1-1.09 2.544.362.362 0 0 0-.178.4c.136 1.026.259 2.054.391 3.08.044.345-.029.441-.372.443h-1.31" transform="translate(-121.113 -242.642)" style="fill:#f84525"/>
            </g>
        </g>
    </g>
</svg>
