<svg data-name="Group 69" xmlns="http://www.w3.org/2000/svg" width="39.333" height="46.358" viewBox="0 0 39.333 46.358">
    <path data-name="Path 1166" d="M0 46.359V0h20.7v13.567c1.847-.546 3.483-.968 5.073-1.518a6.1 6.1 0 0 1 4.093-.038c3.127 1.032 6.292 1.949 9.465 2.92v31.428zm16.154-41.87H4.378V41.9h11.776zM34.97 41.9c0-7.67.018-15.151-.045-22.631a1.876 1.876 0 0 0-1.032-1.286c-3.67-1.578-7.395-2.244-11.168-.28a1.526 1.526 0 0 1-.472.118c-1.145.173-1.517.77-1.505 1.976.067 6.886.03 13.773.037 20.66 0 .468.065.936.1 1.443z" style="fill:#fff"/>
    <path data-name="Rectangle 680" transform="translate(6.966 20.987)" style="fill:#fff" d="M0 0h6.612v4.256H0z"/>
    <path data-name="Rectangle 681" transform="translate(6.93 32.708)" style="fill:#fff" d="M0 0h6.63v4.242H0z"/>
    <path data-name="Rectangle 682" transform="translate(6.946 9.349)" style="fill:#fff" d="M0 0h6.636v4.198H0z"/>
    <path data-name="Path 1167" d="M58.106 43.9v4.311h-9.1c0-1.118-.063-2.291.042-3.449a1.236 1.236 0 0 1 .874-.824c2.7-.065 5.4-.038 8.179-.038" transform="translate(-25.676 -23.005)" style="fill:#fff"/>
    <path data-name="Rectangle 683" transform="translate(23.456 32.663)" style="fill:#fff" d="M0 0h8.995v4.26H0z"/>
</svg>
