<svg xmlns="http://www.w3.org/2000/svg" width="48" height="56.767" viewBox="0 0 48 56.767">
    <path data-name="Path 1171" d="M578.828 18.937H576.8V0h2.029v1.563A12.74 12.74 0 0 1 583.5.551a6.733 6.733 0 0 1 1.571.225 25.27 25.27 0 0 1 1.985.529c.732.218 1.39.414 2.022.539a6.264 6.264 0 0 0 1.556.225 5.436 5.436 0 0 0 2.176-.436V10.2a8.439 8.439 0 0 1-2.176.307 6.844 6.844 0 0 1-1.556-.2 27.676 27.676 0 0 1-2.022-.551c-.7-.2-1.4-.377-2.047-.539A7.653 7.653 0 0 0 583.385 9a4.629 4.629 0 0 0-1.024.163 12.232 12.232 0 0 0-1.464.429c-.513.184-.954.355-1.364.5a3.526 3.526 0 0 1-.706.166v8.682z" transform="translate(-553.896)" style="fill:#fff"/>
    <path data-name="Path 1172" d="M131.44 437.66v-4.93h-29.559v4.93H92.66v31.366h16.372v-4.265h15.049v4.265h16.579V437.66zM106.9 458.1h-2.757l-5.477-8.866v8.866h-2.554v-13.591h2.675l5.558 9.077v-9.077h2.555zm15.138-1.874a7.445 7.445 0 0 1-2.5 1.471 9.147 9.147 0 0 1-3.311.635 7.456 7.456 0 0 1-3.725-.894 5.677 5.677 0 0 1-2.38-2.557 8.281 8.281 0 0 1-.8-3.622 7.859 7.859 0 0 1 .894-3.777 5.962 5.962 0 0 1 2.6-2.532 7.055 7.055 0 0 1 3.259-.676 6.517 6.517 0 0 1 3.954 1.061 4.823 4.823 0 0 1 1.833 2.938l-2.728.51a2.877 2.877 0 0 0-1.087-1.582 3.252 3.252 0 0 0-1.974-.58 3.71 3.71 0 0 0-2.861 1.142 4.748 4.748 0 0 0-1.064 3.382 5.309 5.309 0 0 0 1.072 3.629 3.586 3.586 0 0 0 2.824 1.213 4.7 4.7 0 0 0 1.73-.34 5.906 5.906 0 0 0 1.486-.817v-1.726h-3.141v-2.291h5.913zm13.372.248a7.139 7.139 0 0 1-9.6.007 6.994 6.994 0 0 1-1.789-5.092 8.664 8.664 0 0 1 .614-3.489 6.374 6.374 0 0 1 1.271-1.862 5.25 5.25 0 0 1 1.752-1.223 7.412 7.412 0 0 1 2.934-.54 6.4 6.4 0 0 1 4.812 1.862 8.32 8.32 0 0 1 .008 10.337z" transform="translate(-92.66 -412.259)" style="fill:#fff"/>
    <path data-name="Path 1173" d="M819.09 726.409a3.492 3.492 0 0 0-2.735 1.16 5.139 5.139 0 0 0-1.042 3.515 5.086 5.086 0 0 0 1.072 3.5 3.661 3.661 0 0 0 5.4.015 5.2 5.2 0 0 0 1.057-3.548 5.127 5.127 0 0 0-1.028-3.489 3.475 3.475 0 0 0-2.72-1.149z" transform="translate(-781.127 -692.045)" style="fill:#fff"/>
</svg>
