<svg xmlns="http://www.w3.org/2000/svg" width="41.161" height="47.597" viewBox="0 0 41.161 47.597">
    <g data-name="Creative Design Solution">
        <path d="M5.522 30.711h-2.5v6.259h2.5v3.755h11.266V36.97h2.5v-6.259h-2.5V28.32l4.381-8.248-9.938-18.014-10.09 18.013 4.381 8.136z" transform="rotate(-30 25.301 1.847)" style="fill:#f2f2f2"/>
        <g data-name="Creative Design Solution Icon" transform="rotate(-31 27.725 32.343)">
            <path data-name="Rectangle 672" transform="translate(20.139 34.112)" style="fill:none;stroke:#000;stroke-miterlimit:10;stroke-width:1.5px" d="M0 0h10.643v3.548H0z"/>
            <path data-name="Rectangle 673" transform="translate(17.774 28.199)" style="fill:none;stroke:#000;stroke-miterlimit:10;stroke-width:1.5px" d="M0 0h15.373v5.913H0z"/>
            <path data-name="Path 1107" d="M30.782 28.2v-2.366l4.139-7.687L25.461 1 16 18.147l4.139 7.687V28.2" style="fill:none;stroke:#000;stroke-miterlimit:10;stroke-width:1.5px"/>
            <circle data-name="Ellipse 49" cx="2.365" cy="2.365" r="2.365" transform="translate(23.095 15.117)" style="fill:none;stroke:#000;stroke-miterlimit:10;stroke-width:1.5px"/>
            <path data-name="Line 54" transform="translate(25.461 1)" style="fill:none;stroke:#000;stroke-miterlimit:10;stroke-width:1.5px" d="M0 0v14.191"/>
        </g>
    </g>
</svg>
