<svg xmlns="http://www.w3.org/2000/svg" width="49.986" height="49.971" viewBox="0 0 49.986 49.971">
    <path data-name="Path 1149" d="M24.955 322.158H5.495A5.325 5.325 0 0 1 0 316.518a5.381 5.381 0 0 1 5.016-5.056c.316-.01.632 0 .948 0h38.53a5.349 5.349 0 0 1 .309 10.693c-6.617.018-13.234.005-19.85.006m-19.591-2.676a2.675 2.675 0 0 0 .007-5.351 2.675 2.675 0 1 0-.007 5.351m12.48-2.648a2.678 2.678 0 1 0-2.689 2.648 2.739 2.739 0 0 0 2.689-2.648m9.815-.037a2.675 2.675 0 1 0-2.65 2.685 2.74 2.74 0 0 0 2.65-2.685m7.113 2.685a2.676 2.676 0 1 0-2.65-2.685 2.732 2.732 0 0 0 2.65 2.685m12.52-2.655a2.677 2.677 0 1 0-2.682 2.655 2.739 2.739 0 0 0 2.682-2.655" transform="translate(0 -276.665)" style="fill:#fff"/>
    <path data-name="Path 1150" d="M251.275 252.9h-19.62c0-1.569-.018-3.086.011-4.6a.787.787 0 0 1 .767-.751 3.109 3.109 0 0 1 .445-.007h17.162c.99 0 1.234.248 1.234 1.255v4.1" transform="translate(-205.774 -219.886)" style="fill:#fff"/>
    <path data-name="Path 1151" d="M86.074 207.62c1.253 0 2.4-.008 3.555 0a.839.839 0 0 1 .913.9q.014 4.014 0 8.027a.818.818 0 0 1-.876.876q-4.46.015-8.921 0a.827.827 0 0 1-.9-.91q-.012-3.986 0-7.971a.819.819 0 0 1 .778-.913c1.2-.026 2.408-.008 3.656-.008v2.626h1.8z" transform="translate(-70.921 -184.425)" style="fill:#fff"/>
    <path data-name="Path 1152" d="M282.952 144.424a5.5 5.5 0 0 0 6.164 2.388c-.314.634-.617 1.2-.87 1.786a1.093 1.093 0 0 0 .039.578c.032.158.16.307.161.46.013 1.482.008 2.965.008 4.485h-8.918v-2.545c0-.612-.008-1.225 0-1.838.011-.554.3-.913.829-.912.363 0 .476-.185.6-.445.646-1.3 1.3-2.6 1.979-3.957" transform="translate(-248.308 -128.292)" style="fill:#fff"/>
    <path data-name="Path 1153" d="M231.642 423.2h19.615a13.287 13.287 0 0 1-.033 1.976c-.039.26-.43.486-.694.683-.1.072-.289.019-.437.019h-17.272c-.921 0-1.177-.261-1.178-1.2v-1.483" transform="translate(-205.767 -375.931)" style="fill:#fff"/>
    <path data-name="Path 1154" d="M323.04 87.848a3.566 3.566 0 1 1-3.545 3.59 3.549 3.549 0 0 1 3.545-3.59m0 2.678a.89.89 0 1 0 .911.868.931.931 0 0 0-.911-.868" transform="translate(-283.806 -78.035)" style="fill:#fff"/>
    <path data-name="Path 1155" d="M235.144 7.137a3.545 3.545 0 0 1-3.544-3.593 3.569 3.569 0 1 1 7.139.05 3.549 3.549 0 0 1-3.6 3.543m0-2.68a.935.935 0 0 0 .914-.863.888.888 0 1 0-1.776-.05.932.932 0 0 0 .863.913" transform="translate(-205.73)" style="fill:#fff"/>
    <path data-name="Path 1156" d="m162.237 32.894 5.944-3.431a5.58 5.58 0 0 0 2.469 4.775l-6.05 3.49a4.745 4.745 0 0 0-2.362-4.834" transform="translate(-144.114 -26.172)" style="fill:#fff"/>
    <path data-name="Path 1157" d="m276.776 48.2-3.476-3.477a5.422 5.422 0 0 0 4.181-4.31l3.6 3.6a5.43 5.43 0 0 0-4.3 4.186" transform="translate(-242.771 -35.899)" style="fill:#fff"/>
    <path data-name="Path 1158" d="M119.775 74.511a2.677 2.677 0 1 1 2.652 2.712 2.652 2.652 0 0 1-2.652-2.712m2.654-.854a.892.892 0 1 0 .915.87.937.937 0 0 0-.915-.87" transform="translate(-106.396 -63.846)" style="fill:#fff"/>
    <path data-name="Path 1159" d="m167.811 111.684 1.617-2.166a10.818 10.818 0 0 1 1.465.911 1.435 1.435 0 0 1 .453.952c.046 1.557.031 3.117.016 4.675a1.332 1.332 0 0 1-2.664-.022c-.014-1.039-.038-2.08.009-3.116a.917.917 0 0 0-.632-1.068 1.158 1.158 0 0 1-.265-.166" transform="translate(-149.066 -97.285)" style="fill:#fff"/>
    <path data-name="Path 1160" d="m89.749 109.608 1.626 2.166c.033-.08.028-.033.009-.026-.825.285-.978.89-.915 1.69.068.866.022 1.741.013 2.613a1.336 1.336 0 1 1-2.669-.015c-.007-1.483.008-2.966-.007-4.449a1.345 1.345 0 0 1 .723-1.277l1.22-.7" transform="translate(-77.998 -97.364)" style="fill:#fff"/>
    <path data-name="Path 1161" d="M40.825 351.419a.89.89 0 1 1-.882.885.9.9 0 0 1 .882-.885" transform="translate(-35.482 -312.164)" style="fill:#fff"/>
    <path data-name="Path 1162" d="M129.582 352.321a.89.89 0 1 1-1.778-.056.89.89 0 0 1 1.778.056" transform="translate(-113.527 -312.162)" style="fill:#fff"/>
    <path data-name="Path 1163" d="M216.554 351.419a.89.89 0 0 1 .045 1.779.885.885 0 0 1-.924-.893.894.894 0 0 1 .879-.886" transform="translate(-191.583 -312.164)" style="fill:#fff"/>
    <path data-name="Path 1164" d="M305.322 352.326a.889.889 0 1 1-1.777-.069.889.889 0 0 1 1.777.069" transform="translate(-269.637 -312.159)" style="fill:#fff"/>
    <path data-name="Path 1165" d="M392.277 351.417a.9.9 0 0 1 .914.853.889.889 0 1 1-.914-.853" transform="translate(-347.69 -312.162)" style="fill:#fff"/>
</svg>
