<svg xmlns="http://www.w3.org/2000/svg" width="23.472" height="41.692" viewBox="0 0 23.472 41.692">
    <defs>
        <clipPath id="omb4i6mbka">
            <path data-name="Rectangle 670" style="fill:none" d="M0 0h20.312v37.442H0z"/>
        </clipPath>
    </defs>
    <g data-name="Mobile App Development" transform="translate(-909.028 -3656.308)">
        <rect data-name="Rectangle 671" width="20.5" height="38" rx="4" transform="translate(912 3660)" style="fill:#f2f2f2"/>
        <g data-name="Mobile Icon">
            <g data-name="Group 61" style="clip-path:url(#omb4i6mbka)" transform="translate(909.028 3656.308)">
                <path data-name="Path 1103" d="M16.879 0c.219.063.44.121.657.19a3.971 3.971 0 0 1 2.754 3.965q.014 10.985.022 21.969c0 2.388-.012 4.776-.021 7.164a3.953 3.953 0 0 1-4.159 4.153H4.176a3.952 3.952 0 0 1-4.16-4.188Q0 22.926 0 12.6q0-4.222.016-8.444a3.929 3.929 0 0 1 3.316-4.1A.313.313 0 0 0 3.421 0zm1.805 6.281H1.612v24.894h17.072zM1.614 4.663h17.107v-.6a2.378 2.378 0 0 0-2.5-2.506q-6.068-.009-12.137.007a2.919 2.919 0 0 0-1.1.219 2.5 2.5 0 0 0-1.372 2.88m-.029 28.105v.682a2.354 2.354 0 0 0 2.388 2.43q6.178.027 12.356 0a2.434 2.434 0 0 0 2.337-3.111z"/>
                <path data-name="Path 1104" d="M12.363 14.005c-.013.06-.031.18-.065.3l-2.773 9.26a.812.812 0 0 1-.613.652.649.649 0 0 1-.747-.252 1.085 1.085 0 0 1-.149-.74c.92-3.151 1.866-6.294 2.812-9.438a.788.788 0 0 1 .879-.6.8.8 0 0 1 .656.825"/>
                <path data-name="Path 1105" d="M6.904 14.057a3.658 3.658 0 0 1 .648.549.667.667 0 0 1-.07.818c-.459.615-.927 1.223-1.391 1.834-.31.407-.611.822-.933 1.218a.334.334 0 0 0-.005.5c.778 1 1.539 2.013 2.3 3.022a.752.752 0 0 1 .052.948.7.7 0 0 1-.829.3 1 1 0 0 1-.465-.323q-1.42-1.835-2.813-3.691a.739.739 0 0 1 0-1.007c.938-1.245 1.877-2.49 2.836-3.719a2.9 2.9 0 0 1 .669-.454"/>
                <path data-name="Path 1106" d="M13.449 23.401a3.4 3.4 0 0 1-.646-.541.69.69 0 0 1 .081-.849c.751-.99 1.492-1.987 2.262-2.962a.433.433 0 0 0-.007-.645c-.757-.969-1.493-1.955-2.239-2.934a.768.768 0 0 1-.085-.918.677.677 0 0 1 .772-.358 1.035 1.035 0 0 1 .538.33c.951 1.22 1.883 2.454 2.815 3.69a.776.776 0 0 1 0 1.04 271.927 271.927 0 0 1-2.817 3.688 2.96 2.96 0 0 1-.672.46"/>
            </g>
        </g>
    </g>
</svg>
