<svg data-name="Group 67" xmlns="http://www.w3.org/2000/svg" width="62.212" height="56.667" viewBox="0 0 62.212 56.667">
    <defs>
        <clipPath id="u8em3ecaua">
            <path data-name="Rectangle 679" style="fill:#fff" d="M0 0h62.212v56.667H0z"/>
        </clipPath>
    </defs>
    <g data-name="Group 66" style="clip-path:url(#u8em3ecaua)">
        <path data-name="Path 1143" d="M171.984 4.718a.618.618 0 0 1-.54-.9c.374-1.133.8-2.251 1.219-3.367a.62.62 0 0 1 .7-.439c.234.048.5.241.449.518a14.172 14.172 0 0 1-1.471 4.03c-.052.1-.256.116-.358.158" transform="translate(-119.934)" style="fill:#fff"/>
        <path data-name="Path 1144" d="M192.077 32.093a.594.594 0 0 1-.7-.472.566.566 0 0 1 .51-.751c1.165-.232 2.332-.464 3.5-.666a.6.6 0 0 1 .694.441c.128.441-.205.659-.545.737-1.11.254-2.231.462-3.467.712" transform="translate(-133.905 -21.129)" style="fill:#fff"/>
        <path data-name="Path 1145" d="M186.878 11.586c.56.1.681.561.306.928a30.038 30.038 0 0 1-2.916 2.505c-.491.37-.845.005-.875-.544-.025-.454 2.932-2.924 3.486-2.89" transform="translate(-128.333 -8.107)" style="fill:#fff"/>
        <path data-name="Path 1146" d="M56.489 46.893c.1-1.337-.486-1.839-1.765-1.685-.246.03-.5-.03-.748.01-1.263.208-1.67-.2-1.658-1.576.072-9.146.017-18.293.061-27.44.007-1.3-.388-1.756-1.712-1.735-4.248.067-8.5.032-12.745.02-1.039 0-2.382.312-3.033-.209-.7-.56-.216-1.962-.212-2.991 0-1.14-.42-1.63-1.6-1.609-2.7.047-5.4.015-8.1.015-3.71 0-3.752 0-3.757 3.687 0 .963-.292 1.141-1.182 1.133-4.9-.043-9.8-.022-14.694-.02-1.86 0-1.909.046-1.909 1.961 0 9-.037 17.994.035 26.99.012 1.443-.333 2.014-1.8 1.779-1.216-.2-1.751.353-1.673 1.606a28.834 28.834 0 0 1 0 3.3c-.063 1.2.356 1.667 1.634 1.65 5-.064 10 .007 14.994-.05 1.229-.014 1.49.192.885 1.358-1.446 2.786-2.8 5.618-4.162 8.449-.653 1.362-.346 1.834 1.134 1.853 1.4.018 2.808-.1 4.2.033a2.179 2.179 0 0 0 2.473-1.589c.858-1.975 1.853-3.89 2.79-5.83a18.516 18.516 0 0 1 .238 3.922c-.027.932.31 1.4 1.3 1.377q2.4-.05 4.8 0c.957.021 1.38-.4 1.373-1.337-.01-1.247 0-2.495 0-3.742l.273-.062c.913 1.865 1.913 3.695 2.71 5.609a2.332 2.332 0 0 0 2.734 1.646 34.163 34.163 0 0 1 3.446-.024c2.185 0 2.371-.263 1.46-2.183-1.26-2.655-2.552-5.3-3.822-7.946-.719-1.5-.711-1.509.888-1.51 5.148 0 10.3-.042 15.444.027 1.35.018 1.783-.47 1.7-1.738a22.887 22.887 0 0 1 0-3.147M23.011 12.8c-.118-.789-.1-1.453 1.09-1.338 1.287.123 2.595.028 3.893.028 1.249 0 2.5.086 3.743-.025 1.154-.1 1.231.515 1.115 1.337-.1.7.524 1.767-1.04 1.712-2.594-.091-5.2-.093-7.789 0-1.592.057-.911-1.036-1.013-1.715M6.525 16.266c7.143.05 14.287.026 21.43.026 7.094 0 14.187.02 21.28-.022 1-.006 1.358.186 1.352 1.284q-.072 13.188-.005 26.375c0 1.016-.231 1.366-1.31 1.364q-21.355-.052-42.71 0c-1.041 0-1.34-.275-1.335-1.328q.062-13.188 0-26.376c0-1.034.236-1.331 1.3-1.323m12.911 44.825a.869.869 0 0 1-.96.5c-.946-.006-1.892 0-3.127 0 1.592-3.237 3.084-6.252 4.554-9.277a.89.89 0 0 1 .915-.591c.983.021 1.966.006 3.165.006-1.572 3.226-3.077 6.286-4.547 9.363m10.424-5.249v.894c0 2.827 0 2.793-2.8 2.776-.818-.005-1.116-.19-1.087-1.058.065-1.935.046-3.874.007-5.81-.014-.707.207-.908.923-.938 2.957-.122 2.956-.151 2.956 2.795zm10.49 5.557c-.149.086-.222.165-.3.167-3.451.1-3.45.1-4.919-2.976-1.063-2.227-2.132-4.452-3.288-6.866 1.217 0 2.2.029 3.184-.011a.98.98 0 0 1 1.013.692q2.143 4.5 4.306 8.995m14.3-11.79a.6.6 0 0 1-.609.327h-.9q-24.893 0-49.786.016c-1.034 0-1.634-.052-1.594-1.393.037-1.221.32-1.6 1.588-1.589 8.3.058 16.6.03 24.893.03h24.893a1.733 1.733 0 0 1 1.514 2.6" transform="translate(0 -6.772)" style="fill:#fff"/>
        <path data-name="Path 1147" d="M58.294 47.416c2.381-.2 4.509-.35 6.632-.559.813-.08.922.307.86.967-.195 2.082-.368 4.167-.558 6.35a2.952 2.952 0 0 1-1.5-1.238c-.854-1.157-1.506-.91-2.427-.011-3.753 3.663-7.614 7.216-11.347 10.9-.946.933-1.479.857-2.356-.009-1.989-1.965-4.154-3.756-6.088-5.771-1.023-1.066-1.638-.9-2.658-.054-3.384 2.8-6.883 5.469-10.269 8.271-.844.7-1.166.4-1.727-.26s-.661-1.018.122-1.631q6.317-4.937 12.536-10c.7-.565 1.09-.488 1.72.125 2.182 2.125 4.464 4.148 6.661 6.258.685.659 1.092.636 1.786-.039q4.94-4.807 10.006-9.483c.933-.857 1.2-1.452.051-2.28a12.25 12.25 0 0 1-1.445-1.538" transform="translate(-18.484 -32.782)" style="fill:#fff"/>
    </g>
</svg>
