<svg xmlns="http://www.w3.org/2000/svg" width="141.945" height="125.987" viewBox="0 0 141.945 125.987">
    <g transform="translate(0 4.035)">
        <ellipse data-name="Ellipse 37" cx="58.99" cy="58.959" rx="58.99" ry="58.959" transform="translate(11.984)" style="stroke-width:8.07px;stroke:#4385f4;stroke-miterlimit:10;fill:#fff"/>
        <ellipse data-name="Ellipse 38" cx="55.004" cy="54.973" rx="55.004" ry="54.973" transform="translate(15.969 3.986)" style="fill:none;stroke-linecap:round;stroke-width:2.02px;stroke-dasharray:2.02 4.04 2.02 4.04 2.02 4.04;stroke:#4385f4;stroke-miterlimit:10"/>
        <path data-name="Path 1049" d="M155.735 115.858a1.993 1.993 0 0 1-.644 1.525 2.262 2.262 0 0 1-1.622.6 2.575 2.575 0 0 1-1.323-.348 2.509 2.509 0 0 1-.882-.8l.882-.789a1.6 1.6 0 0 0 .181.229 1.565 1.565 0 0 0 1.173.511 1.045 1.045 0 0 0 .745-.251.855.855 0 0 0 .273-.692c0-.339-.216-.573-.644-.7-.851-.26-1.323-.406-1.371-.441a2.363 2.363 0 0 1-.851-.657 1.9 1.9 0 0 1-.3-1.12 1.883 1.883 0 0 1 .63-1.446 2.147 2.147 0 0 1 1.5-.573 2.531 2.531 0 0 1 1.221.3 2.09 2.09 0 0 1 .8.67l-.776.816a2.423 2.423 0 0 0-.366-.309 1.468 1.468 0 0 0-.855-.322 1.08 1.08 0 0 0-.644.176.741.741 0 0 0-.3.635.653.653 0 0 0 .291.6 3.906 3.906 0 0 0 1.08.348 2.535 2.535 0 0 1 1.3.7 1.764 1.764 0 0 1 .502 1.338zm-5.7 2.037-1.252.185v-4.607a1.323 1.323 0 0 0-.278-.926 1.116 1.116 0 0 0-.833-.291 1.1 1.1 0 0 0-1 .551 1.543 1.543 0 0 0-.234.789v4.29l-1.248.234v-4.62a1.4 1.4 0 0 0-.273-.93.93.93 0 0 0-.745-.317h-.119a.992.992 0 0 0-.952.56 2.271 2.271 0 0 0-.225 1.071v4l-1.3.234v-6.754l1.168-.2v.882a2.6 2.6 0 0 1 .379-.481 1.631 1.631 0 0 1 1.168-.476 1.592 1.592 0 0 1 1.733 1.036 2.041 2.041 0 0 1 1.843-1.067 2 2 0 0 1 1.706.736 2.928 2.928 0 0 1 .441 1.764zm-9.307-6.8-.591 1.371a1.689 1.689 0 0 0-.234 0 2.5 2.5 0 0 0-.362.026 1.609 1.609 0 0 0-.392.137 1.517 1.517 0 0 0-.679.745 3 3 0 0 0-.326 1.38v3.146l-1.252.2v-6.741l1.16-.212v1.4c.145-.242.3-.485.441-.736a1.856 1.856 0 0 1 .745-.538 3.215 3.215 0 0 1 .833-.145 3.66 3.66 0 0 1 .652-.028zm-5.639 6.8-1.252.176v-6.706l1.252-.194zm.251-8.333-.838 1.071-.8-1.071.846-1.063zm-2.808.705h-3.5v2.42h2.716v1.239h-2.718v3.974l-1.362.2v-9.08h4.59zm-7.693 4.374a2.332 2.332 0 0 0-.679-1.711 2.107 2.107 0 0 0-1.556-.705 2.024 2.024 0 0 0-1.578.67 2.288 2.288 0 0 0-.573 1.556 2.5 2.5 0 0 0 .586 1.7 1.909 1.909 0 0 0 1.495.666 2.3 2.3 0 0 0 1.583-.617 2.024 2.024 0 0 0 .719-1.561zm1.1 3.254-1.177.185v-1.15l-.251.291a3.192 3.192 0 0 1-.745.52 2.967 2.967 0 0 1-1.279.282 3.06 3.06 0 0 1-2.336-1.023 3.474 3.474 0 0 1-.948-2.442 3.637 3.637 0 0 1 .939-2.509 2.98 2.98 0 0 1 2.306-1.049 3.324 3.324 0 0 1 1.362.26 2.345 2.345 0 0 1 .7.494c.066.088.132.185.2.269v-3.011l1.248-.185zm-8.787-3.32a2.271 2.271 0 0 0-.644-1.644 2.09 2.09 0 0 0-1.592-.675 1.975 1.975 0 0 0-1.521.7 2.3 2.3 0 0 0-.626 1.592 2.262 2.262 0 0 0 .635 1.6 2.094 2.094 0 0 0 1.578.675 2.028 2.028 0 0 0 1.517-.666 2.169 2.169 0 0 0 .648-1.583zm1.279 0a3.452 3.452 0 0 1-1.005 2.482 3.472 3.472 0 0 1-5.921-2.5 3.589 3.589 0 0 1 .979-2.509 3.117 3.117 0 0 1 2.394-1.063 3.4 3.4 0 0 1 2.557 1.023 3.461 3.461 0 0 1 .992 2.539zm-9.391 0a2.288 2.288 0 0 0-.644-1.644 2.1 2.1 0 0 0-1.6-.675 1.971 1.971 0 0 0-1.517.7 2.3 2.3 0 0 0-.626 1.592 2.262 2.262 0 0 0 .635 1.6 2.085 2.085 0 0 0 1.574.675 2.028 2.028 0 0 0 1.521-.666 2.2 2.2 0 0 0 .648-1.583zm1.279 0a3.439 3.439 0 0 1-1.01 2.482 3.474 3.474 0 0 1-5.921-2.5 3.589 3.589 0 0 1 .979-2.509 3.121 3.121 0 0 1 2.4-1.063 3.4 3.4 0 0 1 2.557 1.023 3.461 3.461 0 0 1 .992 2.539zm-8.227 2.416a8.35 8.35 0 0 1-.485.317 8.435 8.435 0 0 1-1.137.6 3.655 3.655 0 0 1-1.38.317 4.925 4.925 0 0 1-3.527-1.323 4.325 4.325 0 0 1-1.411-3.311 4.85 4.85 0 0 1 1.27-3.342 3.968 3.968 0 0 1 3.086-1.411 5.132 5.132 0 0 1 1.6.273 4.409 4.409 0 0 1 1.764 1.032l-.811.908a3.108 3.108 0 0 0-1.323-.745 4.59 4.59 0 0 0-1.3-.172 2.685 2.685 0 0 0-2.138 1.032 3.792 3.792 0 0 0-.855 2.482 3.143 3.143 0 0 0 .979 2.368 3.452 3.452 0 0 0 2.491.943 2.5 2.5 0 0 0 1.283-.392 6.656 6.656 0 0 0 .56-.441v-1.98h-2.72l.392-1.234h3.615z" transform="translate(-53.794 -63.72)" style="fill:#4385f4"/>
        <path data-name="Path 1050" d="M149.185 52.663s-1.186-.119-1.186.93v4.656h7.826v1.4a.675.675 0 0 1-.714.7H148V66.4h8.535s5.167-.789 5.216-6.053v-7.684zM161.3 45.12h-15.219c-5.507 1.323-5.621 5.873-5.621 5.873v15.43h5.855V52.372a1.442 1.442 0 0 1 1.173-1.406H161.3z" transform="translate(-79.689 -28.283)" style="fill:#4385f4"/>
        <path data-name="Path 1051" d="M304.329 166.8H288.36v24.83h15.969l-5.129-11.661z" transform="translate(-162.383 -96.317)" style="fill:#3876df"/>
        <path data-name="Path 1052" d="M2.62 166.8h15.969v24.83H2.62l5.123-11.661z" transform="translate(-2.62 -96.317)" style="fill:#3876df"/>
        <path data-name="Path 1053" d="m296.344 147.69-7.984 8.386V180.9l7.984-8.381z" transform="translate(-162.383 -85.632)" style="fill:#2354a6"/>
        <path data-name="Path 1054" d="m20.73 147.69 7.984 8.386V180.9l-7.984-8.38z" transform="translate(-12.745 -85.632)" style="fill:#2354a6"/>
        <path data-name="Path 1055" d="M158.087 223.647a1.089 1.089 0 0 0 .256-.727v-.472a1.1 1.1 0 0 0-.256-.727.917.917 0 0 0-1.261 0 1.1 1.1 0 0 0-.256.727v.458a1.089 1.089 0 0 0 .256.727.917.917 0 0 0 1.261 0zm-1.684.335a1.5 1.5 0 0 1-.4-1.032v-.533a1.5 1.5 0 0 1 .4-1.027 1.614 1.614 0 0 1 2.1 0 1.477 1.477 0 0 1 .4 1.027v.533a1.5 1.5 0 0 1-.392 1.032 1.411 1.411 0 0 1-1.058.384 1.393 1.393 0 0 1-1.04-.384zm-3.43 0a1.473 1.473 0 0 1-.392-1.058v-.5a1.473 1.473 0 0 1 .392-1.054 1.4 1.4 0 0 1 1.04-.379 1.631 1.631 0 0 1 .754.159 1.155 1.155 0 0 1 .463.4.979.979 0 0 1 .163.472.115.115 0 0 1-.04.1.141.141 0 0 1-.1.044h-.273a.15.15 0 0 1-.1-.026.516.516 0 0 1-.062-.106.829.829 0 0 0-.309-.441.882.882 0 0 0-.494-.128.816.816 0 0 0-.622.242 1.111 1.111 0 0 0-.251.741v.441a1.093 1.093 0 0 0 .251.741.816.816 0 0 0 .622.242.882.882 0 0 0 .5-.128.846.846 0 0 0 .3-.441.371.371 0 0 1 .062-.1.15.15 0 0 1 .1-.026h.273a.154.154 0 0 1 .1.04.119.119 0 0 1 .04.1.965.965 0 0 1-.163.467 1.2 1.2 0 0 1-.463.4 1.631 1.631 0 0 1-.754.159 1.393 1.393 0 0 1-1.04-.353zm-1.816.273a.141.141 0 0 1-.04-.1v-.441a.159.159 0 0 1 .04-.106.128.128 0 0 1 .1-.044h.441a.128.128 0 0 1 .1.044.159.159 0 0 1 .04.106v.441a.137.137 0 0 1-.141.141h-.441a.141.141 0 0 1-.1-.031zm-2.778-.04a1.226 1.226 0 0 1-.441-.317.538.538 0 0 1-.146-.3.119.119 0 0 1 .044-.1.163.163 0 0 1 .1-.035h.26a.1.1 0 0 1 .057 0 .226.226 0 0 1 .062.057 1.106 1.106 0 0 0 .322.273.957.957 0 0 0 .476.1 1.01 1.01 0 0 0 .538-.128.406.406 0 0 0 .2-.362.353.353 0 0 0-.088-.247.732.732 0 0 0-.291-.168 4.129 4.129 0 0 0-.6-.163 1.556 1.556 0 0 1-.767-.344.785.785 0 0 1-.225-.578.838.838 0 0 1 .137-.441.975.975 0 0 1 .41-.348 1.4 1.4 0 0 1 .644-.137 1.538 1.538 0 0 1 .67.132 1.186 1.186 0 0 1 .419.3.534.534 0 0 1 .141.3.132.132 0 0 1-.044.093.146.146 0 0 1-.1.035h-.234a.141.141 0 0 1-.128-.066 2.872 2.872 0 0 0-.176-.185.569.569 0 0 0-.207-.11.978.978 0 0 0-.344-.048.754.754 0 0 0-.467.128.414.414 0 0 0-.163.339.366.366 0 0 0 .071.22.6.6 0 0 0 .26.168 3.643 3.643 0 0 0 .573.159 1.763 1.763 0 0 1 .838.357.758.758 0 0 1 .247.591.82.82 0 0 1-.15.485 1.036 1.036 0 0 1-.441.344 1.856 1.856 0 0 1-.719.123 1.614 1.614 0 0 1-.741-.119zm-5.877.04a.141.141 0 0 1-.04-.1V221.2a.132.132 0 0 1 .04-.1.128.128 0 0 1 .1-.044h.265a.115.115 0 0 1 .1.044.132.132 0 0 1 .04.1v.212a1.111 1.111 0 0 1 .908-.419 1.01 1.01 0 0 1 .974.573 1.062 1.062 0 0 1 .441-.414 1.23 1.23 0 0 1 .622-.159 1.1 1.1 0 0 1 .833.348 1.433 1.433 0 0 1 .326 1.01v1.8a.136.136 0 0 1-.145.141h-.266a.136.136 0 0 1-.145-.141v-1.764a1 1 0 0 0-.207-.714.723.723 0 0 0-.542-.216.679.679 0 0 0-.511.225.966.966 0 0 0-.216.705v1.764a.137.137 0 0 1-.141.141h-.273a.136.136 0 0 1-.145-.141v-1.764a.979.979 0 0 0-.216-.71.719.719 0 0 0-.533-.22.692.692 0 0 0-.511.22.966.966 0 0 0-.216.705v1.764a.137.137 0 0 1-.141.141h-.278a.141.141 0 0 1-.1-.04zm-2.341 0a.141.141 0 0 1-.04-.1V221.2a.159.159 0 0 1 .04-.106.146.146 0 0 1 .1-.044h.265a.132.132 0 0 1 .106.044.141.141 0 0 1 .04.106v.273a.939.939 0 0 1 .882-.441h.242a.141.141 0 0 1 .106.04.128.128 0 0 1 .035.106v.229a.137.137 0 0 1-.141.146h-.37a.727.727 0 0 0-.538.2.749.749 0 0 0-.194.542v1.838a.145.145 0 0 1-.044.1.159.159 0 0 1-.106.04h-.282a.141.141 0 0 1-.1-.013zm-3.06 0a.141.141 0 0 1-.04-.1v-2.619h-.538a.159.159 0 0 1-.1-.035.141.141 0 0 1-.04-.1v-.2a.132.132 0 0 1 .04-.1.128.128 0 0 1 .1-.044h.538v-.309a1.124 1.124 0 0 1 .247-.785 1.027 1.027 0 0 1 .807-.278h.935a.128.128 0 0 1 .1.044.141.141 0 0 1 .04.1v.2a.132.132 0 0 1-.04.1.137.137 0 0 1-.1.035h-.921a.481.481 0 0 0-.4.15.78.78 0 0 0-.11.463v.278h1.433a.115.115 0 0 1 .1.044.132.132 0 0 1 .04.1v2.954a.141.141 0 0 1-.04.1.123.123 0 0 1-.1.04h-.269a.137.137 0 0 1-.141-.141v-2.619h-1.014v2.619a.128.128 0 0 1-.044.1.132.132 0 0 1-.1.04h-.269a.141.141 0 0 1-.11-.031zm-2.107-.675a1.173 1.173 0 0 0 .234-.688v-.48a1.049 1.049 0 0 0-.238-.657.794.794 0 0 0-.652-.278.763.763 0 0 0-.653.282 1.323 1.323 0 0 0-.225.736v.181c0 .8.3 1.195.882 1.195a.772.772 0 0 0 .653-.282zm-1.764.353a1.843 1.843 0 0 1-.353-1.071v-.375a1.821 1.821 0 0 1 .357-1.067 1.155 1.155 0 0 1 .979-.441 1.2 1.2 0 0 1 1.005.441v-1.442a.146.146 0 0 1 .044-.1.141.141 0 0 1 .1-.04h.282a.137.137 0 0 1 .141.141v4.14a.137.137 0 0 1-.141.141h-.269a.132.132 0 0 1-.1-.04.159.159 0 0 1-.035-.1v-.269a1.217 1.217 0 0 1-1.027.472 1.164 1.164 0 0 1-.974-.379zm-1.821-.3a1.089 1.089 0 0 0 .256-.727v-.472a1.1 1.1 0 0 0-.256-.727.917.917 0 0 0-1.261 0 1.1 1.1 0 0 0-.256.727v.467a1.089 1.089 0 0 0 .256.727.917.917 0 0 0 1.261 0zm-1.689.335a1.521 1.521 0 0 1-.392-1.032v-.533a1.5 1.5 0 0 1 .4-1.027 1.614 1.614 0 0 1 2.1 0 1.5 1.5 0 0 1 .4 1.027v.533a1.521 1.521 0 0 1-.392 1.032 1.653 1.653 0 0 1-2.116 0zm-1.874-.335a1.062 1.062 0 0 0 .251-.727v-.472a1.071 1.071 0 0 0-.251-.727.815.815 0 0 0-.63-.251.829.829 0 0 0-.635.251 1.115 1.115 0 0 0-.251.727v.467a1.107 1.107 0 0 0 .251.727.829.829 0 0 0 .635.251.816.816 0 0 0 .639-.238zm-1.689.335a1.5 1.5 0 0 1-.392-1.032v-.533a1.477 1.477 0 0 1 .4-1.027 1.614 1.614 0 0 1 2.1 0 1.5 1.5 0 0 1 .4 1.027v.534a1.525 1.525 0 0 1-.4 1.032 1.645 1.645 0 0 1-2.112 0zm-2.006-.414a1.168 1.168 0 0 0 .242-.683v-.432a1.155 1.155 0 0 0-.242-.679.78.78 0 0 0-.657-.287.736.736 0 0 0-.648.287 1.323 1.323 0 0 0-.225.732v.331a1.323 1.323 0 0 0 .225.732.732.732 0 0 0 .648.282.776.776 0 0 0 .666-.273zm-1.473 1.931a1.12 1.12 0 0 1-.441-.4.816.816 0 0 1-.123-.388.145.145 0 0 1 .04-.1.154.154 0 0 1 .1-.04h.273a.123.123 0 0 1 .093.031.2.2 0 0 1 .066.1.745.745 0 0 0 .789.5 1.023 1.023 0 0 0 .692-.2.913.913 0 0 0 .225-.705v-.441a1.217 1.217 0 0 1-1.01.441 1.168 1.168 0 0 1-.988-.441 1.763 1.763 0 0 1-.348-1.071v-.344a1.763 1.763 0 0 1 .348-1.067 1.16 1.16 0 0 1 .988-.441 1.213 1.213 0 0 1 1.023.481v-.269a.159.159 0 0 1 .04-.106.146.146 0 0 1 .1-.044h.269a.146.146 0 0 1 .1.044.159.159 0 0 1 .04.106v3.086a1.276 1.276 0 0 1-1.45 1.437 1.666 1.666 0 0 1-.82-.168z" transform="translate(-69.395 -125.882)" style="fill:#4a4a4a"/>
        <path data-name="Rectangle 654" transform="translate(7.861 62.063)" style="fill:#4385f4" d="M0 0h125.977v24.826H0z"/>
        <g data-name="Group 56">
            <path data-name="Path 1056" d="M101.483 163.762v-4.369H99.94v-.913h4.2v.913h-1.525v4.369z" transform="translate(-57.034 -91.664)" style="fill:#fff"/>
            <path data-name="Path 1057" d="M114.9 161a2.552 2.552 0 1 1-2.548-2.733A2.461 2.461 0 0 1 114.9 161zm-3.968 0c0 1.107.555 1.808 1.42 1.808s1.42-.7 1.42-1.808-.556-1.812-1.42-1.812-1.418.726-1.418 1.812z" transform="translate(-62.552 -91.547)" style="fill:#fff"/>
            <path data-name="Path 1058" d="M125.2 158.469a1.728 1.728 0 0 1 1.83 1.808 1.764 1.764 0 0 1-1.887 1.808h-1.04v1.667H123v-5.292zm-1.1 2.751h.8a.939.939 0 0 0 0-1.878h-.8z" transform="translate(-69.927 -91.653)" style="fill:#fff"/>
            <path data-name="Path 1059" d="M137.9 162.141c.048.441.5.719 1.089.719s.992-.282.992-.67-.251-.533-.882-.675l-.688-.15c-.974-.212-1.451-.705-1.451-1.477 0-.974.838-1.618 2.019-1.618s2 .635 2.019 1.592h-1.036c-.035-.441-.441-.719-.979-.719s-.913.26-.913.653c0 .322.256.507.882.644l.639.137c1.058.229 1.521.683 1.521 1.486 0 1.027-.833 1.675-2.143 1.675s-2.081-.6-2.112-1.6z" transform="translate(-77.676 -91.547)" style="fill:#fff"/>
            <path data-name="Path 1060" d="M152.7 161a2.552 2.552 0 1 1-2.548-2.733A2.461 2.461 0 0 1 152.7 161zm-3.968 0c0 1.107.555 1.808 1.42 1.808s1.42-.7 1.42-1.808-.556-1.812-1.42-1.812-1.418.726-1.418 1.812z" transform="translate(-83.687 -91.547)" style="fill:#fff"/>
            <path data-name="Path 1061" d="M160.77 163.751v-5.291h3.461v.913h-2.354v1.415h2.147v.882h-2.147v2.081z" transform="translate(-91.045 -91.653)" style="fill:#fff"/>
            <path data-name="Path 1062" d="M171.043 163.762v-4.369H169.5v-.913h4.188v.913h-1.547v4.369z" transform="translate(-95.926 -91.664)" style="fill:#fff"/>
            <path data-name="Path 1063" d="M182.2 163.751h-1.04l-1.4-5.291h1.146l.833 3.822h.026l.988-3.822h.935l.988 3.822h.04l.833-3.822h1.151l-1.4 5.291h-1.045l-1-3.611h-.031z" transform="translate(-101.663 -91.653)" style="fill:#fff"/>
            <path data-name="Path 1064" d="M198.325 162.468h-1.856l-.406 1.283h-1.133l1.834-5.291h1.283l1.834 5.291h-1.173zm-1.6-.824h1.38l-.679-2.165h-.026z" transform="translate(-110.144 -91.653)" style="fill:#fff"/>
            <path data-name="Path 1065" d="M208.527 163.751h-1.107v-5.291h2.2c1.217 0 1.909.639 1.909 1.684a1.548 1.548 0 0 1-.957 1.5l1.111 2.1h-1.252l-1-1.922h-.882zm0-2.733h.97a.794.794 0 0 0 .882-.842.811.811 0 0 0-.882-.842h-.957z" transform="translate(-117.128 -91.653)" style="fill:#fff"/>
            <path data-name="Path 1066" d="M221.846 163.751h-3.5v-5.291h3.5v.913h-2.394v1.274h2.271v.846h-2.257v1.323h2.394z" transform="translate(-123.239 -91.653)" style="fill:#fff"/>
            <path data-name="Path 1067" d="M61.411 178.846a2.635 2.635 0 0 1 0 5.264H59.37v-5.29zm-.93 4.365h.8c.988 0 1.525-.6 1.525-1.741s-.56-1.689-1.534-1.689h-.8z" transform="translate(-34.35 -103.037)" style="fill:#fff"/>
            <path data-name="Path 1068" d="M74.8 184.151h-3.5v-5.291h3.5v.943h-2.393v1.274h2.257v.846h-2.257v1.323H74.8z" transform="translate(-41.02 -103.059)" style="fill:#fff"/>
            <path data-name="Path 1069" d="m82.074 184.151-1.764-5.291h1.239l1.208 4.14h.026l1.208-4.144h1.2l-1.764 5.291z" transform="translate(-46.058 -103.059)" style="fill:#fff"/>
            <path data-name="Path 1070" d="M96.076 184.151h-3.5v-5.291h3.5v.943h-2.394v1.274h2.262v.846h-2.262v1.323h2.394z" transform="translate(-52.918 -103.059)" style="fill:#fff"/>
            <path data-name="Path 1071" d="M105.737 184.151h-3.417v-5.291h1.107v4.365h2.31z" transform="translate(-58.364 -103.059)" style="fill:#fff"/>
            <path data-name="Path 1072" d="M115.777 181.4a2.555 2.555 0 1 1-2.548-2.733 2.463 2.463 0 0 1 2.548 2.733zm-3.968 0c0 1.107.551 1.808 1.42 1.808s1.415-.7 1.415-1.808-.551-1.808-1.415-1.808-1.42.708-1.42 1.808z" transform="translate(-63.038 -102.953)" style="fill:#fff"/>
            <path data-name="Path 1073" d="M126.056 178.875a1.724 1.724 0 0 1 1.834 1.816 1.764 1.764 0 0 1-1.883 1.808h-1.045v1.667h-1.1v-5.291zm-1.1 2.751h.8a.939.939 0 0 0 0-1.878h-.807z" transform="translate(-70.408 -103.066)" style="fill:#fff"/>
            <path data-name="Path 1074" d="M140.054 184.151h-.988v-3.567h-.026l-1.437 3.527h-.703l-1.433-3.527h-.031v3.567h-.983v-5.291h1.283l1.5 3.743h.031l1.5-3.743h1.283z" transform="translate(-76.329 -103.059)" style="fill:#fff"/>
            <path data-name="Path 1075" d="M152.646 184.151h-3.5v-5.291h3.5v.943h-2.394v1.274h2.262v.846h-2.262v1.323h2.394z" transform="translate(-84.548 -103.059)" style="fill:#fff"/>
            <path data-name="Path 1076" d="M158.89 184.151v-5.291h.93l2.469 3.439h.031v-3.439h1.027v5.291h-.882L160 180.694h-.035v3.456z" transform="translate(-89.994 -103.059)" style="fill:#fff"/>
            <path data-name="Path 1077" d="M171.983 184.19v-4.347h-1.543v-.913h4.215v.913h-1.548v4.369z" transform="translate(-96.452 -103.098)" style="fill:#fff"/>
            <path data-name="Path 1078" d="M184.63 181.4a2.429 2.429 0 0 1 2.5-2.733 2.179 2.179 0 0 1 2.323 1.988h-1.076a1.226 1.226 0 0 0-1.248-1.071c-.833 0-1.371.7-1.371 1.812s.529 1.821 1.376 1.821a1.2 1.2 0 0 0 1.248-1.01h1.076a2.151 2.151 0 0 1-2.328 1.927 2.427 2.427 0 0 1-2.5-2.734z" transform="translate(-104.385 -102.953)" style="fill:#fff"/>
            <path data-name="Path 1079" d="M201.832 181.4a2.552 2.552 0 1 1-2.548-2.733 2.461 2.461 0 0 1 2.548 2.733zm-3.968 0c0 1.107.556 1.808 1.42 1.808s1.42-.7 1.42-1.808-.556-1.808-1.42-1.808-1.42.708-1.42 1.808z" transform="translate(-111.156 -102.953)" style="fill:#fff"/>
            <path data-name="Path 1080" d="M215.49 184.151h-.983v-3.567h-.026l-1.437 3.527h-.7l-1.433-3.527h-.031v3.567h-.98v-5.291h1.283l1.5 3.743h.031l1.5-3.743h1.279z" transform="translate(-118.514 -103.059)" style="fill:#fff"/>
            <path data-name="Path 1081" d="M226.78 178.869a1.724 1.724 0 0 1 1.83 1.808 1.764 1.764 0 0 1-1.883 1.808h-1.045v1.667h-1.1v-5.292zm-1.1 2.751h.8a.939.939 0 1 0 0-1.878h-.807z" transform="translate(-126.722 -103.059)" style="fill:#fff"/>
            <path data-name="Path 1082" d="M236.706 182.918h-1.852l-.4 1.283h-1.134l1.834-5.291h1.3l1.838 5.291h-1.177zm-1.618-.824h1.38l-.675-2.165h-.026z" transform="translate(-131.609 -103.087)" style="fill:#fff"/>
            <path data-name="Path 1083" d="M245.81 184.151v-5.291h.921l2.469 3.44h.026v-3.44h1.074v5.291h-.913l-2.491-3.465h-.031v3.457z" transform="translate(-138.592 -103.059)" style="fill:#fff"/>
            <path data-name="Path 1084" d="M259.028 184.162v-1.975l-1.838-3.307h1.2l1.182 2.257h.026l1.186-2.253h1.168l-1.843 3.307v1.975z" transform="translate(-144.955 -103.07)" style="fill:#fff"/>
        </g>
    </g>
</svg>
