<svg xmlns="http://www.w3.org/2000/svg" width="25.073" height="15.909" viewBox="0 0 25.073 15.909">
  <defs>
    <style>
      .cls-1 {
        fill: #fff;
      }
    </style>
  </defs>
  <g id="Behance" transform="translate(3 -12.332)">
    <path id="Path_1187" data-name="Path 1187" class="cls-1" d="M52.947,17.088a6.935,6.935,0,0,0-.538-2.147,4.437,4.437,0,0,0-2.923-2.616,7.186,7.186,0,0,0-3.367-.138,4.955,4.955,0,0,0-3.552,2.4,6.837,6.837,0,0,0-.685,5.719,4.747,4.747,0,0,0,2.975,3.222,8.072,8.072,0,0,0,4.977.163,4.115,4.115,0,0,0,2.337-1.512,3.633,3.633,0,0,0,.677-2.321h-2.72a1.563,1.563,0,0,1-1.011,1.38,3.7,3.7,0,0,1-2.768.039,2.345,2.345,0,0,1-1.409-2.456H52.7c.121,0,.247.019.3-.134v-1.47a.6.6,0,0,1-.046-.134m-8.06-.369a2.686,2.686,0,0,1,2.939-2.362,2.234,2.234,0,0,1,2.12,2.362Z" transform="translate(-30.92 4.232)"/>
    <path id="Path_1188" data-name="Path 1188" class="cls-1" d="M11.631,7.52a2.793,2.793,0,0,0-1.309-.414c.011-.019.014-.031.02-.033.023-.007.048-.009.071-.016a2.65,2.65,0,0,0,1.646-1.18,3.539,3.539,0,0,0,.415-2.1,3.9,3.9,0,0,0-.8-2.245A4.012,4.012,0,0,0,8.439.023C5.688-.016,2.936.007.185.006A1.768,1.768,0,0,0,0,.025V15.558c.089,0,.169.011.249.011q3.87,0,7.74,0a6.313,6.313,0,0,0,2.044-.32,4,4,0,0,0,2.755-2.656,5.8,5.8,0,0,0-.051-3.561,2.769,2.769,0,0,0-1.107-1.51M3.573,2.771h.3c1.307,0,2.613.022,3.919-.008A1.217,1.217,0,0,1,9.126,3.847,3.406,3.406,0,0,1,9.049,5.4a1.022,1.022,0,0,1-1,.822c-1.484.022-2.969.008-4.473.008Zm6.018,8.837a1.463,1.463,0,0,1-1.318,1.138,4.224,4.224,0,0,1-.681.048c-1.329,0-2.659,0-4.018,0V8.636H7.826a1.7,1.7,0,0,1,1.855,1.693,4.452,4.452,0,0,1-.09,1.281" transform="translate(-3 12.332)"/>
    <rect id="Rectangle_692" data-name="Rectangle 692" class="cls-1" width="6.395" height="1.904" transform="translate(13.277 13.254)"/>
  </g>
</svg>
