<svg xmlns="http://www.w3.org/2000/svg" width="56.194" height="62.401" viewBox="0 0 56.194 62.401">
    <g data-name="Fitness Icon" transform="translate(-2 .401)">
        <path data-name="Path 1140" d="M16.862 44.252h31.655A8.39 8.39 0 0 0 57 35.769h0a8.643 8.643 0 0 0-5.793-8.069L21.414 17.355C12.31 14.459 3 21.079 3 30.39h0a13.863 13.863 0 0 0 13.862 13.862z" transform="translate(0 16.748)" style="fill:none;stroke:#fff;stroke-linecap:round;stroke-linejoin:round;stroke-miterlimit:10;stroke-width:2px"/>
        <ellipse data-name="Ellipse 50" cx="6" cy="6.5" rx="6" ry="6.5" transform="translate(20 42)" style="fill:none;stroke:#fff;stroke-linecap:round;stroke-linejoin:round;stroke-miterlimit:10;stroke-width:2px"/>
        <path data-name="Path 1141" d="M20.552 11.138h-6.621A13.934 13.934 0 0 1 4 7h0" transform="translate(1.069 6.414)" style="fill:none;stroke:#fff;stroke-linecap:round;stroke-linejoin:round;stroke-miterlimit:10;stroke-width:2px"/>
        <path data-name="Line 55" transform="translate(16 17)" style="fill:none;stroke:#fff;stroke-linecap:round;stroke-linejoin:round;stroke-miterlimit:10;stroke-width:2px" d="m0 0 8 17"/>
        <path data-name="Line 56" transform="translate(42 7)" style="fill:none;stroke:#fff;stroke-linecap:round;stroke-linejoin:round;stroke-miterlimit:10;stroke-width:2px" d="M8 0 0 33"/>
        <path data-name="Path 1142" d="M21 9.276h0A20.974 20.974 0 0 0 37.552 1h0" transform="translate(19.241)" style="fill:none;stroke:#fff;stroke-linecap:round;stroke-linejoin:round;stroke-miterlimit:10;stroke-width:2px"/>
        <path data-name="Line 57" transform="translate(26 48)" style="fill:none;stroke:#fff;stroke-linecap:round;stroke-linejoin:round;stroke-miterlimit:10;stroke-width:2px" d="M0 0h12"/>
    </g>
</svg>
