<svg xmlns="http://www.w3.org/2000/svg" width="22.641" height="22.645" viewBox="0 0 22.641 22.645">
  <defs>
    <style>
      .cls-1 {
        fill: #fff;
      }
    </style>
  </defs>
  <g id="Dribble" transform="translate(-46 -127)">
    <path id="Path_1186" data-name="Path 1186" class="cls-1" d="M10.569,0h1.5c.268.034.537.063.8.1A11.362,11.362,0,0,1,22.51,9.61c.05.318.088.638.131.958v1.5c-.034.269-.062.539-.1.806a11.134,11.134,0,0,1-4.208,7.317A10.947,10.947,0,0,1,9.782,22.53a10.937,10.937,0,0,1-7.324-4.187A11.015,11.015,0,0,1,.107,9.776a10.881,10.881,0,0,1,2.7-5.911A11.146,11.146,0,0,1,9.612.13C9.93.08,10.25.043,10.569,0M5.407,18.725a.169.169,0,0,0,.026.034,9.478,9.478,0,0,0,9.6,1.3.247.247,0,0,0,.175-.329,32.968,32.968,0,0,0-1.066-4.3c-.253-.773-.522-1.541-.784-2.31a16.67,16.67,0,0,0-7.952,5.6M1.828,10.933a9.533,9.533,0,0,0,2.246,6.511,18.862,18.862,0,0,1,8.576-6.022L11.682,9.36a31.6,31.6,0,0,1-9.853,1.573m8.978-3.215A43.911,43.911,0,0,0,7.5,2.618,9.624,9.624,0,0,0,2.077,9.106a30.444,30.444,0,0,0,8.73-1.388m7.886-2.374a18.978,18.978,0,0,1-5.28,3.349l1.047,2.271a16.134,16.134,0,0,1,6.344.06,9.457,9.457,0,0,0-2.112-5.68m-1.285-1.3a9.4,9.4,0,0,0-5.172-2.176,8.3,8.3,0,0,0-2.81.156l3.185,5.024a16.726,16.726,0,0,0,4.8-3m-.49,14.941a9.586,9.586,0,0,0,3.775-6.114,14.348,14.348,0,0,0-5.555-.19,38.211,38.211,0,0,1,1.78,6.3" transform="translate(46 127.001)"/>
  </g>
</svg>
