<svg width="89" height="89" fill="none" xmlns="http://www.w3.org/2000/svg"><path d="M41.277 2.77l-.134-1.751.134 1.75A42.15 42.15 0 113.242 53.503c-.105-.495.236-1.064.89-1.158.591-.084 1.254.331 1.42 1.078A39.877 39.877 0 1041.847 5.009c-.763.05-1.348-.469-1.432-1.06-.094-.654.357-1.14.861-1.18zm31.377 33.635c.088.295-.084.723-.58.827-.416.087-.97-.176-1.165-.79a27.715 27.715 0 10-18.667 34.964c.617-.18 1.145.135 1.304.528.19.47-.07.852-.365.943a29.395 29.395 0 1119.473-36.472zM52.521 61.479a.092.092 0 01-.045.005.143.143 0 01-.055-.024.349.349 0 01-.138-.23.47.47 0 01.088-.35.92.92 0 01.464-.349A15.674 15.674 0 1032.34 48.658a.92.92 0 01-.072.575.47.47 0 01-.26.251.35.35 0 01-.268-.005.143.143 0 01-.048-.035.093.093 0 01-.018-.042A16.48 16.48 0 1152.521 61.48zM12.87 20.796a1.756 1.756 0 11-3.512 0 1.756 1.756 0 013.512 0zm15.221-14.05a1.756 1.756 0 11-3.512 0 1.756 1.756 0 013.512 0zM5.846 41.872a1.756 1.756 0 11-3.513 0 1.756 1.756 0 013.513 0zm46.835 3.512a5.269 5.269 0 11-10.538 0 5.269 5.269 0 0110.538 0z" stroke="#FF6C51" stroke-width="3.513"/></svg>