<svg width="22" height="20" fill="none" xmlns="http://www.w3.org/2000/svg"><path d="M8.838 4.153c.55-.231.781-.888.533-1.42L8.5.905A1.061 1.061 0 007.117.39c-1.509.64-2.804 1.473-3.834 2.485C2.023 4.064 1.171 5.43.71 6.939.248 8.466 0 10.542 0 13.186v5.449c0 .585.48 1.064 1.065 1.064H8.04c.585 0 1.064-.479 1.064-1.064V11.66c0-.586-.479-1.065-1.064-1.065H4.703c.036-1.793.462-3.23 1.242-4.313.64-.87 1.598-1.579 2.893-2.13zm12.53 0c.55-.23.78-.888.532-1.42l-.87-1.81a1.06 1.06 0 00-1.384-.515c-1.49.64-2.768 1.473-3.815 2.467-1.26 1.207-2.13 2.574-2.592 4.082-.461 1.49-.692 3.567-.692 6.23v5.448c0 .586.48 1.065 1.065 1.065h6.975c.586 0 1.065-.48 1.065-1.065V11.66c0-.586-.48-1.065-1.065-1.065h-3.354c.035-1.792.461-3.23 1.242-4.312.639-.87 1.597-1.58 2.893-2.13z" fill="tomato"/></svg>