<svg id="Logo" xmlns="http://www.w3.org/2000/svg" width="320.333" height="113.304" viewBox="0 0 320.333 113.304">
    <defs>
        <clipPath id="clip-path">
            <path id="Rectangle_529" data-name="Rectangle 529" style="fill:none" d="M0 0h320.333v113.304H0z"/>
        </clipPath>
        <style>
            .cls-3{fill:#bdbfc1}.cls-4{fill:#f84525}.cls-5{fill:#3a3b3c}
        </style>
    </defs>
    <g id="Group_19" data-name="Group 19" style="clip-path:url(#clip-path)">
        <path id="Path_731" data-name="Path 731" class="cls-3" d="M65.118 131.3c-2.467-10.66-2.86-30.421 13.982-44.33 3.49-2.683 18.112-15.2 42.409-7.089a55.8 55.8 0 0 1 8.548 4 44.243 44.243 0 0 1 13.516 11.8c-3.427-7.845-12.667-14.978-17.353-17.652a46.068 46.068 0 0 0-8.372-3.957c-23.723-8.347-39.347 4.257-42.809 7.012-21.283 17.694-13.673 44.676-13.673 44.676a47.838 47.838 0 0 0 8.943 18.48 47.14 47.14 0 0 1-5.2-12.937" transform="translate(-38.231 -45.368)"/>
        <path id="Path_732" data-name="Path 732" class="cls-3" d="M181.5 83.719s10.13 5.115 14.1 32.26c.28 1.921 3.071 26.458-8.579 44.486 0 0 8.881-9.128 11.276-33.169.19-1.891 2.69-25.207-9.088-42.59a28.36 28.36 0 0 0-7.705-.986" transform="translate(-115.555 -53.294)"/>
        <path id="Path_733" data-name="Path 733" class="cls-3" d="M77.011 149.905c4.471-2.8 33.611-15.824 67.961 1.663-3.556-2.9-27.746-17.811-62.509-8.414-.806.282-11.75 3.08-17.288 12.025-2.326 4.022-2.484 8.835-.581 11.866 2.225 3.538 11.554 7.824 13.077 8.309-4.786-2.375-7.193-5-8.4-6.947a10.656 10.656 0 0 1-.753-9.4c1.117-2.822 3.614-5.947 8.494-9.1" transform="translate(-40.293 -89.188)"/>
        <path id="Path_734" data-name="Path 734" class="cls-3" d="M162.478 124.18c2.436 10.669 3.156 30.473-14 44.2-3.5 2.672-18.314 15.047-42.542 7.054a55.811 55.811 0 0 1-8.539-4.02 44.274 44.274 0 0 1-13.48-11.844c3.4 7.855 12.625 15.015 17.3 17.7a46.163 46.163 0 0 0 8.36 3.981c23.7 8.413 39.358-4.144 42.827-6.891 21.336-17.628 13.8-44.632 13.8-44.632a47.805 47.805 0 0 0-8.888-18.507 47.243 47.243 0 0 1 5.157 12.952" transform="translate(-53.427 -70.815)"/>
        <path id="Path_735" data-name="Path 735" class="cls-3" d="M153.6 164.871s-10.115-5.146-14-32.3c-.275-1.923-2.993-26.466 8.709-44.461 0 0-8.906 9.1-11.373 33.137-.192 1.89-2.762 25.2 8.967 42.617a28.391 28.391 0 0 0 7.7 1.008" transform="translate(-86.946 -56.096)"/>
        <path id="Path_736" data-name="Path 736" class="cls-3" d="M153.807 170.942c-4.48 2.793-33.658 15.726-67.956-1.861 3.546 2.91 27.695 17.894 62.485 8.6.8-.28 11.757-3.047 17.318-11.974a11.575 11.575 0 0 0-.457-11.754c-2.214-3.545-8.937-7.478-10.46-7.967a22.884 22.884 0 0 1 7.323 7.873c1.123 1.989 1.523 3.971.262 8.013-1.123 2.819-3.628 5.937-8.518 9.075" transform="translate(-54.659 -92.942)"/>
        <path id="Path_737" data-name="Path 737" class="cls-3" d="M37.828 86.876S12.135 71.124 14.231 50.2c.936-9.348 7.2-22.058 16.467-27.48 1.219-.713 13.586-11.111 46.11-13.035 3.206-.188 25.772-2.866 74.407 5.4 4.192.552 59.265 11.566 86.7 24.881-10.315-6.5-46.015-23.73-109.238-35.224-3.607-.613-39.1-7.626-76.89-3.39-3.2.175-42.7 5-50.626 33.681C-1.854 45.789-1.846 66 37.828 86.876"/>
        <path id="Path_738" data-name="Path 738" class="cls-4" d="M223.589 126.987a22.637 22.637 0 0 1 10.732 2.248l-2.076 6.687a17.169 17.169 0 0 0-5.1-1.883 19.108 19.108 0 0 0-5.721-.245 14.936 14.936 0 0 0-9.969 4.651 22.341 22.341 0 0 0-5.447 10.669 21.69 21.69 0 0 0-.593 5.775 12.129 12.129 0 0 0 1.105 4.741 7.862 7.862 0 0 0 2.95 3.314 10.753 10.753 0 0 0 4.949 1.489 22.019 22.019 0 0 0 11.779-2.066l-.968 6.625a29.351 29.351 0 0 1-11.763 2.249 20.953 20.953 0 0 1-8.629-1.732 14.357 14.357 0 0 1-5.745-4.651 15.421 15.421 0 0 1-2.711-7.021 24.3 24.3 0 0 1 .518-8.783 29.719 29.719 0 0 1 3.471-8.662 28.535 28.535 0 0 1 5.862-7.022 27.04 27.04 0 0 1 7.856-4.713 26.706 26.706 0 0 1 9.529-1.792z" transform="translate(-124.907 -80.771)"/>
        <path id="Path_739" data-name="Path 739" class="cls-4" d="M314.795 160.16a17.315 17.315 0 0 1 7.009 1.248 10.212 10.212 0 0 1 4.351 3.432 11.165 11.165 0 0 1 1.9 5.137 18.278 18.278 0 0 1-.406 6.292 23.275 23.275 0 0 1-2.334 6.079 19.327 19.327 0 0 1-10.056 8.754 21.213 21.213 0 0 1-7.783 1.335 16.729 16.729 0 0 1-6.973-1.275 10.224 10.224 0 0 1-4.282-3.464 11.064 11.064 0 0 1-1.834-5.139 18.751 18.751 0 0 1 .436-6.291 22.715 22.715 0 0 1 2.312-5.987 19.532 19.532 0 0 1 4.124-5.137 19.94 19.94 0 0 1 5.934-3.618 20.651 20.651 0 0 1 7.728-1.367zm-1.289 5.9a8.69 8.69 0 0 0-3.706.791 9.577 9.577 0 0 0-2.986 2.159 13.046 13.046 0 0 0-2.2 3.22 18.545 18.545 0 0 0-1.41 4.043 17.2 17.2 0 0 0-.458 3.86 7.954 7.954 0 0 0 .625 3.253 4.892 4.892 0 0 0 1.955 2.218 6.509 6.509 0 0 0 3.459.821 9.293 9.293 0 0 0 3.791-.759 9.168 9.168 0 0 0 3.01-2.127 13.013 13.013 0 0 0 2.2-3.253 18.859 18.859 0 0 0 1.418-4.073 15.976 15.976 0 0 0 .435-3.891 7.98 7.98 0 0 0-.694-3.222 5.068 5.068 0 0 0-1.983-2.217 6.637 6.637 0 0 0-3.521-.822z" transform="translate(-187.36 -101.969)"/>
        <path id="Path_740" data-name="Path 740" class="cls-4" d="M416.982 159.994a13.046 13.046 0 0 1 4.629.759 6.828 6.828 0 0 1 3.214 2.431 9.1 9.1 0 0 1 1.51 4.285 18.58 18.58 0 0 1-.518 6.262l-4.045 17.69h-7.783l3.948-17.263a22.911 22.911 0 0 0 .505-3.131 6.432 6.432 0 0 0-.254-2.615 3.352 3.352 0 0 0-1.445-1.793 5.51 5.51 0 0 0-3.082-.608 7.794 7.794 0 0 0-2.647.547 14.879 14.879 0 0 0-2.879 1.429 11.649 11.649 0 0 0-2.448 2.067 5.566 5.566 0 0 0-1.353 2.461l-4.324 18.906h-7.78l6.952-30.393h6.99l-.754 3.827a21.072 21.072 0 0 1 5.5-3.463 15.8 15.8 0 0 1 6-1.4z" transform="translate(-249.719 -101.863)"/>
        <path id="Path_741" data-name="Path 741" class="cls-4" d="M512.091 160.16q6.932 0 9.52 2.492t1.3 8.144l-4.728 20.671h-6.748l.832-4.437a19.381 19.381 0 0 1-5.962 4.011 17.094 17.094 0 0 1-6.838 1.459 11.935 11.935 0 0 1-3.933-.608 6.7 6.7 0 0 1-2.858-1.854 6.568 6.568 0 0 1-1.5-3.162 10.915 10.915 0 0 1 .215-4.527 10.084 10.084 0 0 1 2.387-4.59 14.64 14.64 0 0 1 4.458-3.283 25.417 25.417 0 0 1 6.084-2.005 43.125 43.125 0 0 1 7.269-.82l3.3-.062.347-1.52q.584-2.552-.394-3.585T511 165.448a35.457 35.457 0 0 0-5.907.578 50.972 50.972 0 0 0-7.5 1.975l1.265-5.531a43.258 43.258 0 0 1 13.158-2.249zm-1.015 15.866q-10.577 0-12.009 6.26a4.324 4.324 0 0 0 .512 3.739 4.057 4.057 0 0 0 3.426 1.368 9.619 9.619 0 0 0 3.263-.578 11.463 11.463 0 0 0 3.013-1.61 10.585 10.585 0 0 0 2.387-2.462 9.041 9.041 0 0 0 1.4-3.193l.806-3.524z" transform="translate(-312.623 -101.969)"/>
        <path id="Path_742" data-name="Path 742" class="cls-4" d="m616.7 146.552-1.295 5.653h-9.238l-3.352 14.651a6.7 6.7 0 0 0-.093 3.86q.518 1.186 2.829 1.186a15.7 15.7 0 0 0 5.249-1.156l-.876 5.168a20.931 20.931 0 0 1-7.689 1.459q-4.973-.062-6.737-2.706t-.556-7.932l3.35-14.652h-6.442l1.292-5.651h6.445l2.14-9.364h7.9l-2.14 9.364z" transform="translate(-376.809 -87.267)"/>
        <path id="Path_743" data-name="Path 743" class="cls-4" d="m656.746 193.233 6.951-30.393h7.78l-6.951 30.393z" transform="translate(-418.13 -103.675)"/>
        <path id="Path_744" data-name="Path 744" class="cls-4" d="M713.846 193.233 709 162.839h8.816l2.336 24.072 13.348-24.072h8.813l-18.745 30.393z" transform="translate(-451.4 -103.675)"/>
        <path id="Path_745" data-name="Path 745" class="cls-4" d="M814.021 160.326a16.544 16.544 0 0 1 5.078.791 9.114 9.114 0 0 1 4.13 2.675 10.333 10.333 0 0 1 2.271 4.953 18.717 18.717 0 0 1-.438 7.63l-.588 2.31h-22.312q-.534 4.2 1.5 6.2t6.215 2.067a28.967 28.967 0 0 0 10.461-1.884l-.8 5.35a34.611 34.611 0 0 1-12.217 2.126 19.3 19.3 0 0 1-6.373-.971 10.944 10.944 0 0 1-4.585-2.948 9.9 9.9 0 0 1-2.356-4.986 17.836 17.836 0 0 1 .387-7.143 21.06 21.06 0 0 1 6.859-11.916 19.2 19.2 0 0 1 12.706-4.254zm-1.19 5.472a8.833 8.833 0 0 0-6.16 2.218 12.247 12.247 0 0 0-3.5 5.987H818q.767-3.889-.447-6.017t-4.681-2.127z" transform="translate(-505.388 -102.075)"/>
        <path id="Rectangle_524" data-name="Rectangle 524" class="cls-5" transform="translate(108.04 100.82)" d="M0 0h.657v5.826H0z"/>
        <path id="Path_746" data-name="Path 746" class="cls-5" d="M303.453 277.489h.617l3.668 4.67v-4.67h.642v5.826h-.524l-3.762-4.778v4.778h-.641z" transform="translate(-193.199 -176.669)"/>
        <path id="Path_747" data-name="Path 747" class="cls-5" d="M321.125 277.489h.617l3.671 4.67v-4.67h.64v5.826h-.524l-3.763-4.778v4.778h-.641z" transform="translate(-204.45 -176.669)"/>
        <path id="Path_748" data-name="Path 748" class="cls-5" d="M338.094 280.245v-.015a2.97 2.97 0 1 1 5.94-.017v.017a2.97 2.97 0 1 1-5.94.015m5.258 0v-.015a2.314 2.314 0 0 0-2.294-2.4 2.287 2.287 0 0 0-2.281 2.387v.017a2.316 2.316 0 0 0 2.3 2.4 2.288 2.288 0 0 0 2.28-2.39" transform="translate(-215.254 -176.496)"/>
        <path id="Path_749" data-name="Path 749" class="cls-5" d="M355.546 277.489h.729l2.073 5.02 2.082-5.02h.707l-2.5 5.869h-.585z" transform="translate(-226.365 -176.669)"/>
        <path id="Path_750" data-name="Path 750" class="cls-5" d="M372.67 277.376h.615l2.657 5.867h-.709l-.683-1.539h-3.169l-.692 1.539h-.673zm1.623 3.731-1.324-2.965-1.33 2.965z" transform="translate(-235.578 -176.597)"/>
        <path id="Path_751" data-name="Path 751" class="cls-5" d="M387.817 278.1h-1.955v-.608h4.576v.608h-1.955v5.219h-.666z" transform="translate(-245.666 -176.668)"/>
        <path id="Rectangle_525" data-name="Rectangle 525" class="cls-5" transform="translate(145.91 100.82)" d="M0 0h.656v5.826H0z"/>
        <path id="Path_752" data-name="Path 752" class="cls-5" d="M406.968 280.245v-.015a2.971 2.971 0 1 1 5.941-.017v.017a2.971 2.971 0 1 1-5.941.015m5.26 0v-.015a2.315 2.315 0 0 0-2.3-2.4 2.288 2.288 0 0 0-2.28 2.387v.017a2.315 2.315 0 0 0 2.3 2.4 2.289 2.289 0 0 0 2.279-2.39" transform="translate(-259.104 -176.496)"/>
        <path id="Path_753" data-name="Path 753" class="cls-5" d="M426.728 277.489h.617l3.668 4.67v-4.67h.641v5.826h-.524l-3.763-4.778v4.778h-.639z" transform="translate(-271.685 -176.669)"/>
        <path id="Path_754" data-name="Path 754" class="cls-5" d="M531.266 277.489h2.178c1.318 0 2.181.7 2.181 1.849v.017c0 1.255-1.049 1.906-2.289 1.906h-1.414v2.054h-.657zm2.095 3.172c.966 0 1.6-.515 1.6-1.281v-.017c0-.831-.623-1.266-1.563-1.266h-1.473v2.564z" transform="translate(-338.24 -176.669)"/>
        <path id="Path_755" data-name="Path 755" class="cls-5" d="M545.825 277.376h.616l2.653 5.867h-.7l-.683-1.539h-3.172l-.692 1.539h-.672zm1.623 3.731-1.324-2.965-1.332 2.965z" transform="translate(-345.819 -176.597)"/>
        <path id="Path_756" data-name="Path 756" class="cls-5" d="m560.844 282.324.409-.481a2.772 2.772 0 0 0 2 .822c.782 0 1.3-.415 1.3-.99v-.016c0-.541-.29-.85-1.515-1.109-1.339-.29-1.954-.724-1.954-1.679v-.017a1.72 1.72 0 0 1 1.913-1.589 3.028 3.028 0 0 1 2.049.716l-.384.506a2.559 2.559 0 0 0-1.68-.631c-.756 0-1.24.415-1.24.941v.015c0 .549.3.857 1.581 1.133 1.3.284 1.9.755 1.9 1.648v.016c0 1-.831 1.647-1.988 1.647a3.409 3.409 0 0 1-2.38-.932" transform="translate(-357.072 -176.526)"/>
        <path id="Path_757" data-name="Path 757" class="cls-5" d="m574.856 282.324.408-.481a2.775 2.775 0 0 0 2 .822c.782 0 1.3-.415 1.3-.99v-.016c0-.541-.29-.85-1.516-1.109-1.34-.29-1.956-.724-1.956-1.679v-.017a1.72 1.72 0 0 1 1.908-1.589 3.031 3.031 0 0 1 2.049.716l-.382.506a2.564 2.564 0 0 0-1.682-.631c-.755 0-1.241.415-1.241.941v.015c0 .549.3.857 1.583 1.133 1.3.284 1.9.755 1.9 1.648v.016c0 1-.833 1.647-1.989 1.647a3.411 3.411 0 0 1-2.381-.932" transform="translate(-365.993 -176.526)"/>
        <path id="Rectangle_526" data-name="Rectangle 526" class="cls-5" transform="translate(214.481 100.82)" d="M0 0h.656v5.826H0z"/>
        <path id="Path_758" data-name="Path 758" class="cls-5" d="M595.7 280.245v-.015a2.971 2.971 0 1 1 5.941-.017v.017a2.971 2.971 0 1 1-5.941.015m5.258 0v-.015a2.314 2.314 0 0 0-2.3-2.4 2.288 2.288 0 0 0-2.281 2.387v.017a2.317 2.317 0 0 0 2.3 2.4 2.289 2.289 0 0 0 2.281-2.39" transform="translate(-379.26 -176.496)"/>
        <path id="Path_759" data-name="Path 759" class="cls-5" d="M615.455 277.489h.615l3.67 4.67v-4.67h.642v5.826h-.526l-3.76-4.778v4.778h-.641z" transform="translate(-391.841 -176.669)"/>
        <path id="Path_760" data-name="Path 760" class="cls-5" d="M722.239 277.489h2.022a2.9 2.9 0 0 1 3.094 2.9v.017a2.915 2.915 0 0 1-3.094 2.912h-2.022zm.655.608v4.613h1.367a2.256 2.256 0 0 0 2.412-2.292v-.018a2.268 2.268 0 0 0-2.412-2.306z" transform="translate(-459.827 -176.669)"/>
        <path id="Path_761" data-name="Path 761" class="cls-5" d="M739.112 277.489h4.211v.6h-3.554v1.988h3.178v.6h-3.178v2.038h3.6v.6h-4.252z" transform="translate(-470.569 -176.669)"/>
        <path id="Path_762" data-name="Path 762" class="cls-5" d="M753.421 277.489h2.022a2.9 2.9 0 0 1 3.095 2.9v.017a2.915 2.915 0 0 1-3.095 2.912h-2.022zm.658.608v4.613h1.364a2.255 2.255 0 0 0 2.411-2.292v-.018a2.267 2.267 0 0 0-2.411-2.306z" transform="translate(-479.68 -176.669)"/>
        <path id="Rectangle_527" data-name="Rectangle 527" class="cls-5" transform="translate(279.929 100.82)" d="M0 0h.659v5.826H0z"/>
        <path id="Path_763" data-name="Path 763" class="cls-5" d="M775.211 280.245v-.015a2.936 2.936 0 0 1 2.947-3.012 3.042 3.042 0 0 1 2.274.922l-.451.482a2.529 2.529 0 0 0-1.831-.8 2.284 2.284 0 0 0-2.255 2.387v.017a2.3 2.3 0 0 0 2.255 2.4 2.533 2.533 0 0 0 1.882-.839l.434.424a3.042 3.042 0 0 1-2.331 1.022 2.908 2.908 0 0 1-2.924-3" transform="translate(-493.553 -176.496)"/>
        <path id="Path_764" data-name="Path 764" class="cls-5" d="M793.077 277.376h.616l2.656 5.867h-.708l-.683-1.539h-3.171l-.691 1.539h-.671zm1.623 3.731-1.323-2.965-1.329 2.965z" transform="translate(-503.239 -176.597)"/>
        <path id="Path_765" data-name="Path 765" class="cls-5" d="M807.6 278.1h-1.95v-.608h4.575v.608h-1.954v5.219h-.671z" transform="translate(-512.932 -176.668)"/>
        <path id="Rectangle_528" data-name="Rectangle 528" class="cls-5" transform="translate(298.209 100.82)" d="M0 0h.657v5.826H0z"/>
        <path id="Path_766" data-name="Path 766" class="cls-5" d="M825.524 280.245v-.015a2.971 2.971 0 1 1 5.941-.017v.017a2.971 2.971 0 1 1-5.941.015m5.258 0v-.015a2.314 2.314 0 0 0-2.3-2.4 2.286 2.286 0 0 0-2.279 2.387v.017a2.315 2.315 0 0 0 2.295 2.4 2.288 2.288 0 0 0 2.281-2.39" transform="translate(-525.585 -176.496)"/>
        <path id="Path_767" data-name="Path 767" class="cls-5" d="M844.663 277.489h.615l3.671 4.67v-4.67h.641v5.826h-.524l-3.761-4.778v4.778h-.642z" transform="translate(-537.77 -176.669)"/>
        <path id="Path_768" data-name="Path 768" class="cls-4" d="M476.2 274.052a.378.378 0 0 1 .539 0l3.777 3.777a.381.381 0 0 1 0 .54l-3.777 3.779a.382.382 0 0 1-.539 0l-3.778-3.779a.378.378 0 0 1 0-.54z" transform="translate(-300.705 -174.409)"/>
        <path id="Path_769" data-name="Path 769" class="cls-4" d="M672.061 274.052a.381.381 0 0 1 .541 0l3.777 3.777a.382.382 0 0 1 0 .54l-3.777 3.779a.384.384 0 0 1-.541 0l-3.778-3.779a.38.38 0 0 1 0-.54z" transform="translate(-425.404 -174.409)"/>
        <path id="Path_770" data-name="Path 770" class="cls-3" d="M687.168 122.421a6.88 6.88 0 0 1-6.741 6.156 5.569 5.569 0 0 1-5.659-6.156 6.885 6.885 0 0 1 6.741-6.157 5.569 5.569 0 0 1 5.659 6.157" transform="translate(-429.588 -74.022)"/>
    </g>
</svg>
