<svg xmlns="http://www.w3.org/2000/svg" width="55.776" height="83.998" viewBox="0 0 55.776 83.998">
  <g id="honor_icon-1320193373056870983_0" data-name="honor+icon-1320193373056870983_0" transform="translate(-86.966 -12)">
    <path id="Path_802" data-name="Path 802" d="M114.854,12l9.424,16.352,18.464,3.91L130.1,46.278l1.987,18.768-17.236-7.689L97.618,65.046l1.987-18.768L86.966,32.262l18.464-3.91L114.854,12m0,6.852-6.46,11.208-.762,1.322-1.493.316-12.656,2.68,8.664,9.607,1.022,1.134-.161,1.518L101.646,59.5l11.814-5.271,1.394-.622,1.394.622L128.062,59.5,126.7,46.638l-.161-1.518,1.022-1.134,8.664-9.607L123.57,31.7l-1.493-.316-.762-1.322Z" transform="translate(0 0)" fill="#eee"/>
    <rect id="Rectangle_539" data-name="Rectangle 539" width="34.215" height="3.593" transform="translate(97.75 92.405)" fill="#eee"/>
    <path id="Path_803" data-name="Path 803" d="M200.529,310.607v-6.672L191.975,300l-8.554,3.935v6.672L180,331.478l23.95.171Zm-14.7,5.4h12.3l2.46,14.957-17.218.048Z" transform="translate(-77.118 -238.731)" fill="#eee"/>
  </g>
</svg>
