<svg xmlns="http://www.w3.org/2000/svg" width="56.361" height="72" viewBox="0 0 56.361 72">
  <g id="hourglass-1.1s-200px" transform="translate(-18.688 -10)">
    <path id="Path_798" data-name="Path 798" d="M71.7,71.17H67.008V66.216c0-5.366-3.224-10.4-8.622-13.469a7.187,7.187,0,0,1-3.99-6.065V45.317a7.19,7.19,0,0,1,3.991-6.066c5.4-3.067,8.621-8.1,8.621-13.468V20.829H71.7a3.366,3.366,0,0,0,2.678-1.286,3.108,3.108,0,0,0,.578-2.679L74.4,14.637A6.266,6.266,0,0,0,68.224,10H25.513a6.267,6.267,0,0,0-6.177,4.638l-.555,2.226a3.107,3.107,0,0,0,.578,2.68,3.366,3.366,0,0,0,2.677,1.286h4.693v4.955c0,5.366,3.224,10.4,8.622,13.468a7.192,7.192,0,0,1,3.99,6.066v1.365a7.189,7.189,0,0,1-3.99,6.065c-5.4,3.068-8.622,8.1-8.622,13.468v4.954H22.036a3.365,3.365,0,0,0-2.677,1.286,3.112,3.112,0,0,0-.578,2.68l.555,2.226A6.268,6.268,0,0,0,25.513,82H68.224A6.269,6.269,0,0,0,74.4,77.362l.554-2.226a3.1,3.1,0,0,0-.578-2.68A3.366,3.366,0,0,0,71.7,71.17Zm-7.188,0H60.342v-1.8c0-3.209-1.975-6.171-5.42-8.13l-.1-.056a15.953,15.953,0,0,0-15.919.005l-.1.055C35.369,63.2,33.4,66.166,33.4,69.375v1.8h-4.17V66.216c0-4.456,2.75-8.68,7.358-11.3a9.645,9.645,0,0,0,5.254-8.237V45.317a9.644,9.644,0,0,0-5.254-8.237c-4.606-2.618-7.358-6.841-7.358-11.3V20.829H64.513v4.955c0,4.455-2.75,8.679-7.358,11.3A9.644,9.644,0,0,0,51.9,45.317v1.365a9.644,9.644,0,0,0,5.252,8.237c4.608,2.618,7.359,6.841,7.359,11.3V71.17Z" transform="translate(0)" fill="#eee"/>
    <path id="Path_799" data-name="Path 799" d="M48.518,45.177a1.244,1.244,0,0,0,1.21-.946,13.845,13.845,0,0,1,6.851-8.567,10.1,10.1,0,0,0,5.25-6.622,1.249,1.249,0,0,0-1.225-1.49H36.432a1.246,1.246,0,0,0-1.225,1.49,10.094,10.094,0,0,0,5.25,6.622,13.841,13.841,0,0,1,6.85,8.566,1.247,1.247,0,0,0,1.211.947Z" transform="translate(-1.65 -1.755)" fill="#eee"/>
    <path id="Path_800" data-name="Path 800" d="M49.861,54.5a1.25,1.25,0,0,0,1.248-1.248V51.45a1.248,1.248,0,1,0-2.5,0v1.805A1.249,1.249,0,0,0,49.861,54.5Z" transform="translate(-2.992 -4.02)" fill="#eee"/>
    <path id="Path_801" data-name="Path 801" d="M49.863,58.163a1.229,1.229,0,0,0-.883,2.114,1.268,1.268,0,0,0,1.136.341c.076-.023.156-.044.236-.075.054-.028.135-.069.217-.118a2.271,2.271,0,0,0,.172-.149,1.237,1.237,0,0,0,0-1.769,1.244,1.244,0,0,0-.877-.345Z" transform="translate(-2.993 -4.816)" fill="#eee"/>
  </g>
</svg>
