<svg xmlns="http://www.w3.org/2000/svg" width="28" height="27.989" viewBox="0 0 28 27.989">
  <g id="Call" transform="translate(0 -0.005)">
    <path id="Path_98" data-name="Path 98" d="M236.29,13.32a1.147,1.147,0,0,1-.186-.557,10.7,10.7,0,0,0-1.233-4.026c-.1-.194-.215-.381-.323-.572a.381.381,0,0,0-.08-.133l-.647-.926a1.643,1.643,0,0,0-.459-.523,11.038,11.038,0,0,0-4.143-2.945,10.264,10.264,0,0,0-2.908-.735,1.1,1.1,0,0,1-.45-.108,2.678,2.678,0,0,1-.76-.685l-.013-.039c.008-.084-.055-.142-.079-.215A1.385,1.385,0,0,1,226.074.1c.168-.052.345.02.512-.039h.256a13.61,13.61,0,0,1,5.622,2.021c.07.076.127.168.235.2a.27.27,0,0,1,.049.027.457.457,0,0,0,.256.148,3.811,3.811,0,0,1,.894.676.173.173,0,0,0,.125.093,6.047,6.047,0,0,1,.879.8,6.7,6.7,0,0,1,.874.955.528.528,0,0,0,.052.132,1.056,1.056,0,0,0,.246.243,2.539,2.539,0,0,1,.474.651.237.237,0,0,0,.126.2,3.075,3.075,0,0,1,.558.9.242.242,0,0,0,.095.148.838.838,0,0,1,.15.23,14.254,14.254,0,0,1,1.37,4.023c.043.242.033.491.093.731v.128a1.065,1.065,0,0,0,0,.469v.128c-.081,0-.074.075-.092.122a1.307,1.307,0,0,1-1.333.9,1.167,1.167,0,0,1-.745-.178,6.025,6.025,0,0,1-.481-.5" transform="translate(-210.94 -0.061)" fill="#707070"/>
    <path id="Path_100" data-name="Path 100" d="M243.567.065c-.163.11-.341.037-.512.039,0-.013,0-.026,0-.039Z" transform="translate(-227.921 -0.061)" fill="#707070"/>
    <path id="Path_101" data-name="Path 101" d="M448.769,198.26a.477.477,0,0,1,0-.469Z" transform="translate(-420.769 -185.475)" fill="#707070"/>
    <path id="Path_102" data-name="Path 102" d="M2.089,54.92A21.756,21.756,0,0,1,.494,51.285a9.287,9.287,0,0,1-.477-3.553,3.251,3.251,0,0,1,.6-1.675.972.972,0,0,0,.225-.249c.346-.355.689-.713,1.058-1.045.121-.109.224-.236.339-.351a.963.963,0,0,0,.221-.221c.261-.28.554-.527.821-.8a5.206,5.206,0,0,0,.525-.4,2.03,2.03,0,0,1,2.17.251c.518.512,1.03,1.031,1.548,1.544.612.607,1.22,1.219,1.829,1.829a2.164,2.164,0,0,1,.333.355c.062.058.111.129.174.186A1.99,1.99,0,0,1,9.7,49.724c-.226.227-.47.437-.68.68-.1.107-.212.2-.309.309-.429.4-.813.838-1.249,1.226-.019.017-.01.055-.034.075a.636.636,0,0,0,.072.586,10.9,10.9,0,0,0,.617,1.159.358.358,0,0,0,.08.133l.942,1.314a1.08,1.08,0,0,0,.331.393l0,0c.055.046.056.137.137.162a24.8,24.8,0,0,0,2.3,2.38,5.435,5.435,0,0,0,.55.5.4.4,0,0,1,.115.086c.145.175.385.239.51.439.009.015.066-.028.1.007a13.676,13.676,0,0,0,2.434,1.465.643.643,0,0,0,.365.105c.088-.018.18-.027.233-.115a.27.27,0,0,1,.04-.039,1.253,1.253,0,0,0,.347-.365.165.165,0,0,1,.061-.061,1.014,1.014,0,0,0,.314-.294.244.244,0,0,1,.038-.041.343.343,0,0,0,.14-.158.161.161,0,0,1,.055-.058.277.277,0,0,0,.12-.1.26.26,0,0,1,.041-.038.774.774,0,0,0,.253-.272.163.163,0,0,1,.061-.061.427.427,0,0,0,.2-.193.345.345,0,0,1,.1-.105.978.978,0,0,0,.325-.314,1.051,1.051,0,0,1,.183-.176c.066-.05.118-.115.184-.165a1.928,1.928,0,0,1,.813-.33,4.024,4.024,0,0,0,.594,0,2.007,2.007,0,0,1,.937.421c.354.357.711.711,1.076,1.057.679.687,1.356,1.376,2.046,2.052.166.163.322.336.5.491.045.061.1.112.145.175a1.442,1.442,0,0,0,.166.18,2.011,2.011,0,0,1-.2,2.6c-.336.355-.694.689-1.038,1.037-.389.393-.77.793-1.16,1.186a.968.968,0,0,1-.379.294,1.167,1.167,0,0,0-.213.173h0a.326.326,0,0,0-.133.078,3.388,3.388,0,0,1-1.585.493,7.877,7.877,0,0,1-2.277-.2,18.488,18.488,0,0,1-5.412-2.26c-.6-.346-1.192-.707-1.757-1.109a2.561,2.561,0,0,0-.595-.423l-.219-.165c-.029-.048-.085-.058-.127-.087l-.09-.074a.964.964,0,0,0-.337-.266l-.045-.035c-.095-.078-.158-.2-.292-.223-.506-.4-.984-.827-1.455-1.266-.188-.227-.412-.418-.616-.629-.258-.268-.532-.52-.8-.782a18.343,18.343,0,0,1-1.267-1.452,1.42,1.42,0,0,0-.3-.382l-.633-.812a.652.652,0,0,0-.176-.251c-.425-.578-.825-1.172-1.191-1.789a.338.338,0,0,0-.078-.135l-.426-.724c-.022-.038.01-.1-.054-.121" transform="translate(0 -40.127)" fill="#707070"/>
    <path id="Path_103" data-name="Path 103" d="M233,89.082a1.381,1.381,0,0,1-1.921-1.025,6.259,6.259,0,0,0-1.985-3.566,6.024,6.024,0,0,0-3.055-1.465,1.331,1.331,0,0,1-.452-.173,2.094,2.094,0,0,1-.681-.974,1.457,1.457,0,0,1,1.715-1.625,9.6,9.6,0,0,1,3.611,1.554,8.282,8.282,0,0,1,1.8,1.729c.156.254.338.491.5.739a1.7,1.7,0,0,0,.3.456c.037.016.044.05.05.084-.018.068.028.1.073.131h0c.019.04,0,.1.046.126a8.179,8.179,0,0,1,.838,2.41,1.343,1.343,0,0,1-.156,1,2.311,2.311,0,0,1-.683.6" transform="translate(-210.881 -75.228)" fill="#707070"/>
    <path id="Path_104" data-name="Path 104" d="M99.664,53.79q-.843-.835-1.687-1.669-.94-.936-1.876-1.877c-.058-.058-.14-.1-.147-.2a.743.743,0,0,1,.261.209q1.671,1.666,3.338,3.336c.059.059.107.13.161.2q-.023.034-.051,0" transform="translate(-89.98 -46.928)" fill="#707070"/>
    <path id="Path_105" data-name="Path 105" d="M356.895,310.528a3.6,3.6,0,0,1-.547-.522c-.655-.649-1.3-1.3-1.956-1.957a.386.386,0,0,1-.045-.07.038.038,0,0,1,.006-.057q1.138,1.131,2.276,2.262c.11.109.214.225.321.338a.035.035,0,0,1-.055.005" transform="translate(-332.274 -288.749)" fill="#707070"/>
    <path id="Path_106" data-name="Path 106" d="M259.9,296.59l-.081.095a1.319,1.319,0,0,1-.216.2l-.043.043a1.816,1.816,0,0,1-.294.3h0a.51.51,0,0,1-.132.123l-.042.043a.69.69,0,0,1-.166.173h0a2.063,2.063,0,0,1-.344.337l-.042.043a2.794,2.794,0,0,1-.379.387h0c-.054.042-.083.147-.184.072l1.982-1.984c.05-.05.105-.093.158-.14a.083.083,0,0,1,.023.052.708.708,0,0,1-.236.248" transform="translate(-241.907 -277.841)" fill="#707070"/>
    <path id="Path_107" data-name="Path 107" d="M99.875,328.574a1.527,1.527,0,0,1,.414.354c.339.3.652.636.973.959.021.021.018.065.026.1a15.246,15.246,0,0,1-1.412-1.411" transform="translate(-93.656 -308.115)" fill="#707070"/>
    <path id="Path_108" data-name="Path 108" d="M14.087,67.953c-.444.5-.97.911-1.41,1.411a.048.048,0,0,1-.075,0c.467-.524.984-1,1.486-1.487a.048.048,0,0,1,0,.075" transform="translate(-11.817 -63.651)" fill="#707070"/>
    <path id="Path_109" data-name="Path 109" d="M119.2,170.95c-.014-.145.126-.178.2-.256a12.292,12.292,0,0,1,1.079-1.068c.014.01.019.02.016.031s-.008.017-.012.017L119.2,170.95" transform="translate(-111.774 -159.064)" fill="#707070"/>
    <path id="Path_110" data-name="Path 110" d="M338.544,292.561l-.006.057a7.535,7.535,0,0,1-1.06-1.077,8.9,8.9,0,0,1,1.066,1.02" transform="translate(-316.465 -273.387)" fill="#707070"/>
    <path id="Path_111" data-name="Path 111" d="M339.889,134.613c-.1.005-.122-.076-.161-.141a4.8,4.8,0,0,0-.643-.939c-.037-.037-.068-.079,0-.115a5.484,5.484,0,0,1,.8,1.195" transform="translate(-317.935 -125.11)" fill="#707070"/>
    <path id="Path_112" data-name="Path 112" d="M39.47,51.292c-.242.3-.567.515-.817.805a.05.05,0,0,1-.078,0,9.136,9.136,0,0,1,.927-.907c.04.05-.009.071-.032.1" transform="translate(-36.173 -48.003)" fill="#707070"/>
    <path id="Path_113" data-name="Path 113" d="M227.426,32.889c.228.107.342.34.534.491.075.059.206.068.227.194a1.3,1.3,0,0,1-.76-.685" transform="translate(-213.265 -30.84)" fill="#707070"/>
    <path id="Path_114" data-name="Path 114" d="M225.314,106.794a4.478,4.478,0,0,0,.681.974,1.363,1.363,0,0,1-.681-.974" transform="translate(-211.285 -100.143)" fill="#707070"/>
    <path id="Path_115" data-name="Path 115" d="M144.44,154.784a2.885,2.885,0,0,1,.7-.671,5.44,5.44,0,0,1-.653.674.028.028,0,0,1-.048,0" transform="translate(-135.447 -144.516)" fill="#707070"/>
    <path id="Path_116" data-name="Path 116" d="M355.309,213.467l.683-.6a1.184,1.184,0,0,1-.683.6" transform="translate(-333.186 -199.614)" fill="#707070"/>
    <path id="Path_117" data-name="Path 117" d="M191.71,289.845a1.855,1.855,0,0,1-.541-.525,6.274,6.274,0,0,1,.626.523.067.067,0,0,1-.084,0" transform="translate(-179.266 -271.305)" fill="#707070"/>
    <path id="Path_118" data-name="Path 118" d="M407.128,212.944a1.567,1.567,0,0,1,.481.5,1.05,1.05,0,0,1-.481-.5" transform="translate(-381.778 -199.684)" fill="#707070"/>
    <path id="Path_119" data-name="Path 119" d="M202.037,299.184c-.04,0-.089.039-.12,0-.145-.177-.371-.254-.516-.428a.059.059,0,0,1,.085,0l.551.427" transform="translate(-188.861 -280.138)" fill="#707070"/>
    <path id="Path_120" data-name="Path 120" d="M52.946,46.431l.032-.1a1.589,1.589,0,0,1,.476-.323c-.1.223-.34.28-.508.424" transform="translate(-49.649 -43.141)" fill="#707070"/>
    <path id="Path_121" data-name="Path 121" d="M163.76,385.229a1.085,1.085,0,0,1,.595.423,4.7,4.7,0,0,1-.595-.423" transform="translate(-153.564 -361.242)" fill="#707070"/>
    <path id="Path_122" data-name="Path 122" d="M360.105,104.722a.815.815,0,0,1,.459.523l-.459-.523" transform="translate(-337.683 -98.201)" fill="#707070"/>
    <path id="Path_123" data-name="Path 123" d="M147.019,242.545c-.15-.1-.339-.163-.331-.393a2.24,2.24,0,0,1,.331.393" transform="translate(-137.555 -227.074)" fill="#707070"/>
    <path id="Path_124" data-name="Path 124" d="M313.477,284.306a1.029,1.029,0,0,1-.594,0,1.437,1.437,0,0,1,.594,0" transform="translate(-293.402 -266.573)" fill="#707070"/>
    <path id="Path_125" data-name="Path 125" d="M292.333,292.329l-.005-.053a.962.962,0,0,1,.292-.267.032.032,0,0,1,.006.055l-.167.177c-.043.028-.055.1-.126.088" transform="translate(-274.126 -273.828)" fill="#707070"/>
    <path id="Path_126" data-name="Path 126" d="M74.633,299.129c.133.1.3.175.3.382a1.62,1.62,0,0,1-.3-.382" transform="translate(-69.986 -280.503)" fill="#707070"/>
    <path id="Path_127" data-name="Path 127" d="M140,164.9l.048,0a2.092,2.092,0,0,1-.34.34l0-.048A1.445,1.445,0,0,1,140,164.9" transform="translate(-131.005 -154.629)" fill="#707070"/>
    <path id="Path_128" data-name="Path 128" d="M151.333,375.678c.2-.027.249.147.337.266a1.4,1.4,0,0,1-.337-.266" transform="translate(-141.91 -352.283)" fill="#707070"/>
    <path id="Path_129" data-name="Path 129" d="M36.587,65.747h.078a.559.559,0,0,1-.21.208q0-.038,0-.075a.313.313,0,0,1,.131-.132" transform="translate(-34.185 -61.652)" fill="#707070"/>
    <path id="Path_130" data-name="Path 130" d="M145.922,371.537c.171-.021.222.114.292.223a.949.949,0,0,1-.292-.223" transform="translate(-136.836 -348.401)" fill="#707070"/>
    <path id="Path_131" data-name="Path 131" d="M10.064,91.745h.075a.456.456,0,0,1-.243.217.519.519,0,0,1,.168-.215" transform="translate(-9.28 -86.031)" fill="#707070"/>
    <path id="Path_132" data-name="Path 132" d="M61.639,282.049c.1.052.188.119.176.251a.62.62,0,0,1-.176-.251" transform="translate(-57.801 -264.487)" fill="#707070"/>
    <path id="Path_133" data-name="Path 133" d="M395.427,349.689l.055-.005a.381.381,0,0,1,.143.161.034.034,0,0,1-.057.009.315.315,0,0,1-.141-.165" transform="translate(-370.806 -327.91)" fill="#707070"/>
    <path id="Path_134" data-name="Path 134" d="M256.643,329.3c.079.022.12-.053.184-.072-.036.167-.164.118-.272.117l.088-.045" transform="translate(-240.581 -308.729)" fill="#707070"/>
    <path id="Path_135" data-name="Path 135" d="M397.688,352.283l.057-.009a.348.348,0,0,1,.122.174c-.11,0-.127-.1-.179-.165" transform="translate(-372.926 -330.339)" fill="#707070"/>
    <path id="Path_136" data-name="Path 136" d="M225.943,28.8c.03.071.165.1.079.215a.3.3,0,0,1-.079-.215" transform="translate(-211.874 -27.008)" fill="#707070"/>
    <path id="Path_137" data-name="Path 137" d="M155.531,110.134l.051,0a.337.337,0,0,1,.124.172c-.106-.007-.125-.1-.174-.168" transform="translate(-145.847 -103.272)" fill="#707070"/>
    <path id="Path_138" data-name="Path 138" d="M352.616,437.475a.25.25,0,0,1,.213-.173.347.347,0,0,1-.213.173" transform="translate(-330.661 -410.073)" fill="#707070"/>
    <path id="Path_139" data-name="Path 139" d="M297.03,290.249l-.006-.055a.326.326,0,0,1,.174-.12.353.353,0,0,1-.168.175" transform="translate(-278.53 -272.012)" fill="#707070"/>
    <path id="Path_140" data-name="Path 140" d="M352.89,154.1c-.058-.025-.171-.02-.073-.131a.2.2,0,0,1,.073.131" transform="translate(-330.813 -144.378)" fill="#707070"/>
    <path id="Path_141" data-name="Path 141" d="M152.165,248.664c-.1-.006-.12-.083-.137-.162a.3.3,0,0,1,.137.162" transform="translate(-142.562 -233.028)" fill="#707070"/>
    <path id="Path_142" data-name="Path 142" d="M130.283,219.045c-.093,0-.089-.067-.08-.133a.155.155,0,0,1,.08.133" transform="translate(-122.091 -205.281)" fill="#707070"/>
    <path id="Path_143" data-name="Path 143" d="M33.544,237.567c.123-.006.08.061.054.121l-.054-.121" transform="translate(-31.455 -222.774)" fill="#707070"/>
    <path id="Path_144" data-name="Path 144" d="M354.194,156.209c-.11-.007-.071-.069-.046-.126a.117.117,0,0,1,.046.126" transform="translate(-332.071 -146.364)" fill="#707070"/>
    <path id="Path_145" data-name="Path 145" d="M200.047,297.795h-.085l-.1-.08.084,0,.1.082" transform="translate(-187.422 -279.176)" fill="#707070"/>
    <path id="Path_146" data-name="Path 146" d="M41.254,251.151c.093.006.09.068.078.135a.154.154,0,0,1-.078-.135" transform="translate(-38.685 -235.512)" fill="#707070"/>
    <path id="Path_147" data-name="Path 147" d="M158.2,381.155c.066-.005.128-.005.127.087a.164.164,0,0,1-.127-.087" transform="translate(-148.351 -357.42)" fill="#707070"/>
    <path id="Path_148" data-name="Path 148" d="M377.867,128c.09.007.089.067.08.134a.158.158,0,0,1-.08-.134" transform="translate(-354.339 -120.028)" fill="#707070"/>
    <path id="Path_149" data-name="Path 149" d="M350.487,440.094c0-.1.068-.088.133-.078a.151.151,0,0,1-.133.078" transform="translate(-328.664 -412.613)" fill="#707070"/>
    <path id="Path_150" data-name="Path 150" d="M399.108,81.257a.855.855,0,0,1,.2.261c-.123-.047-.181-.16-.259-.253a.039.039,0,0,1,.054-.008" transform="translate(-374.207 -76.19)" fill="#707070"/>
    <path id="Path_151" data-name="Path 151" d="M349.892,36.232a.629.629,0,0,1,.255.172c-.136.018-.2-.07-.255-.172" transform="translate(-328.106 -33.976)" fill="#707070"/>
    <path id="Path_152" data-name="Path 152" d="M345.741,33.531A.619.619,0,0,1,346,33.7c-.137.023-.2-.074-.258-.168" transform="translate(-324.214 -31.443)" fill="#707070"/>
    <path id="Path_153" data-name="Path 153" d="M410.7,95.821a.458.458,0,0,1,.137.209c-.131-.014-.142-.106-.137-.209" transform="translate(-385.128 -89.854)" fill="#707070"/>
    <path id="Path_154" data-name="Path 154" d="M398.451,79.538l-.054.008a.126.126,0,0,1-.041-.13.192.192,0,0,1,.1.121" transform="translate(-373.55 -74.471)" fill="#707070"/>
    <path id="Path_155" data-name="Path 155" d="M368.348,49.92a.161.161,0,0,1,.124.09c-.064,0-.129,0-.124-.09" transform="translate(-345.413 -46.811)" fill="#707070"/>
    <path id="Path_156" data-name="Path 156" d="M421.669,113.514a.155.155,0,0,1,.077.136c-.1-.006-.087-.07-.077-.136" transform="translate(-395.409 -106.445)" fill="#707070"/>
    <path id="Path_157" data-name="Path 157" d="M260.942,323.383a1.834,1.834,0,0,1,.379-.387.754.754,0,0,1-.379.387" transform="translate(-244.695 -302.884)" fill="#707070"/>
    <path id="Path_158" data-name="Path 158" d="M289.133,295.814l.126-.088a.61.61,0,0,1-.344.335l.218-.247" transform="translate(-270.926 -277.312)" fill="#707070"/>
    <path id="Path_159" data-name="Path 159" d="M267.7,317.234a1.658,1.658,0,0,1,.344-.337.594.594,0,0,1-.344.337" transform="translate(-251.03 -297.165)" fill="#707070"/>
    <path id="Path_160" data-name="Path 160" d="M278.726,306.888a1.134,1.134,0,0,1,.294-.3.481.481,0,0,1-.294.3" transform="translate(-261.371 -287.497)" fill="#707070"/>
    <path id="Path_161" data-name="Path 161" d="M284.138,302.825a.519.519,0,0,1,.216-.2.273.273,0,0,1-.216.2" transform="translate(-266.446 -283.778)" fill="#707070"/>
    <path id="Path_162" data-name="Path 162" d="M273.24,314.271a.425.425,0,0,1,.167-.173.184.184,0,0,1-.167.173" transform="translate(-256.227 -294.54)" fill="#707070"/>
    <path id="Path_163" data-name="Path 163" d="M276.589,311.559a.254.254,0,0,1,.132-.123.123.123,0,0,1-.132.123" transform="translate(-259.367 -292.044)" fill="#707070"/>
  </g>
</svg>
