<svg xmlns="http://www.w3.org/2000/svg" xmlns:xlink="http://www.w3.org/1999/xlink" width="19" height="16.008" viewBox="0 0 19 16.008">
  <defs>
    <clipPath id="clip-path">
      <rect id="Rectangle_536" data-name="Rectangle 536" width="19" height="16.008" fill="#fff"/>
    </clipPath>
  </defs>
  <g id="Group_25" data-name="Group 25" transform="translate(0 0)">
    <g id="Group_24" data-name="Group 24" transform="translate(0 0)" clip-path="url(#clip-path)">
      <path id="Path_795" data-name="Path 795" d="M0,14.288a8.818,8.818,0,0,0,5.52-1.741A4.688,4.688,0,0,1,2.856,11.3a3.026,3.026,0,0,1-.257-.283c-.269-.365-.72-.758-.581-1.174.1-.293.69-.026,1.049-.124.1-.026.19-.054.385-.11A4.2,4.2,0,0,1,.446,5.676a6.493,6.493,0,0,0,1.723.43A4.163,4.163,0,0,1,.535,3.137C.526,2.959.514,2.78.52,2.6.542,2.01.547,1.233.992.985c.367-.2.747.546,1.1.881A11.584,11.584,0,0,0,8.481,4.891c.555.083.856.077.8-.678A3.7,3.7,0,0,1,11.512.448a3.792,3.792,0,0,1,4.292.5.931.931,0,0,0,1.041.182,5.581,5.581,0,0,1,.86-.307c.279-.064.586-.463.8-.2s-.149.579-.325.821a12.114,12.114,0,0,1-.879.982c.6.093,1.09-.312,1.7-.267a2.624,2.624,0,0,1-1.068,1.306,1.74,1.74,0,0,0-.658,1.506c-.334,4.521-2.4,8-6.541,9.939A11.084,11.084,0,0,1,0,14.288" transform="translate(0 0)" fill="#fff"/>
    </g>
  </g>
</svg>
