<svg id="Icon" xmlns="http://www.w3.org/2000/svg" width="19.124" height="19.121" viewBox="0 0 19.124 19.121">
  <path id="Path_805" data-name="Path 805" d="M147.717,148.8H147.7a1.85,1.85,0,0,1-.287-.153c-.145-.085-.285-.177-.435-.255a.442.442,0,0,1-.037-.025c-.128-.083-.262-.156-.393-.233a2.594,2.594,0,0,0-.3-.183,1.456,1.456,0,0,0-.127-.074c-.138-.086-.277-.171-.418-.251-.043-.032-.091-.056-.137-.085-.1-.052-.192-.119-.292-.172-.126-.078-.256-.149-.381-.228a.905.905,0,0,0-.112-.07c-.112-.061-.219-.13-.33-.193a.467.467,0,0,0-.43-.08,2.009,2.009,0,0,0-.231.031,11.666,11.666,0,0,1-1.578.044c-.191-.032-.385-.03-.577-.057-.07-.01-.139-.023-.21-.028-.122-.026-.247-.038-.368-.068-.144-.039-.295-.041-.438-.084a1.959,1.959,0,0,1-.3-.1.147.147,0,0,0-.057-.021.249.249,0,0,1-.059-.015c-.135-.066-.279-.108-.417-.164-.064-.031-.133-.052-.2-.084-.08-.032-.157-.07-.234-.108-.146-.078-.3-.146-.441-.232-.039-.021-.075-.047-.114-.068-.114-.067-.226-.14-.337-.212s-.2-.132-.3-.208c-.043-.031-.083-.065-.127-.093-.127-.1-.262-.2-.382-.312a.449.449,0,0,0-.07-.053c-.1-.1-.214-.174-.3-.279-.05-.078,0-.093.063-.1.141,0,.282,0,.424,0,.6,0,1.2.007,1.8,0a6.136,6.136,0,0,0,.736-.052c.26-.017.516-.061.773-.1.128-.018.255-.047.383-.068.157-.028.314-.058.468-.1.177-.049.356-.094.532-.146.253-.063.492-.168.737-.255.122-.044.24-.1.358-.15.019-.007.038-.014.057-.022.133-.063.269-.117.4-.187.146-.069.283-.154.424-.232s.3-.179.443-.273c.067-.04.13-.084.193-.128.08-.053.154-.113.23-.171.108-.079.211-.166.315-.251a.708.708,0,0,0,.11-.09c.118-.111.245-.212.354-.333.025-.023.049-.047.072-.072a4.688,4.688,0,0,0,.332-.354.469.469,0,0,0,.092-.107c.087-.1.172-.208.25-.318.061-.075.116-.154.17-.233a1.36,1.36,0,0,0,.128-.191,5.354,5.354,0,0,0,.274-.464,2.735,2.735,0,0,0,.205-.411,3.678,3.678,0,0,0,.168-.4,1.028,1.028,0,0,0,.071-.168c.034-.083.058-.168.085-.253a3.664,3.664,0,0,0,.143-.489q.048-.19.085-.383c.035-.169.07-.338.088-.509a5.6,5.6,0,0,0,.057-.753.21.21,0,0,1,.006-.039.3.3,0,0,0,.011-.062c0-.4,0-.8,0-1.2a.207.207,0,0,0-.01-.052.388.388,0,0,1-.01-.093c0-.066,0-.132,0-.2,0-.037-.021-.084.016-.107s.076.017.11.037c.08.078.175.141.252.224s.165.134.235.215c.042.046.09.087.129.136.073.109.187.18.258.29.081.089.151.187.23.277.036.051.075.1.113.151q.179.248.339.509c.057.1.118.2.171.306a6.632,6.632,0,0,1,.382.893c.041.12.076.242.112.364.058.2.085.4.126.605a7.136,7.136,0,0,1,.042,1.256c0,.13,0,.261-.02.39-.052.249-.078.5-.15.749-.038.138-.085.274-.13.41-.04.109-.074.22-.121.327a.8.8,0,0,0-.054.126c-.073.14-.134.286-.21.424-.047.095-.106.183-.152.277a6.671,6.671,0,0,1-.376.554c-.024.03-.046.062-.07.093-.088.115-.181.227-.276.336a1.311,1.311,0,0,0-.151.172q-.128.126-.255.255a2.861,2.861,0,0,1-.213.192,2.655,2.655,0,0,1-.24.212c-.063.042-.113.1-.175.142-.123.094-.244.192-.375.276a.174.174,0,0,0-.087.168c0,.106,0,.211,0,.317,0,.135,0,.269,0,.4s0,.281,0,.421,0,.283,0,.424,0,.283,0,.425,0,.283,0,.425,0,.284,0,.426c0,.1,0,.2,0,.306a.165.165,0,0,1-.033.119" transform="translate(-131.684 -129.674)" fill="#f84525"/>
  <path id="Path_806" data-name="Path 806" d="M15.424,6.285c-.012-.073-.019-.146-.028-.219-.025-.162-.051-.324-.085-.485s-.084-.314-.124-.472c-.04-.129-.084-.257-.134-.382a6.5,6.5,0,0,0-.423-.892c-.03-.053-.065-.1-.091-.156A8.055,8.055,0,0,0,14.073,3a1,1,0,0,1-.09-.113c-.088-.109-.181-.213-.272-.32-.045-.043-.089-.087-.132-.132-.1-.1-.2-.2-.3-.3-.046-.043-.087-.091-.137-.13-.118-.1-.227-.2-.35-.294-.029-.026-.061-.047-.091-.071-.114-.1-.246-.173-.362-.269a1.915,1.915,0,0,1-.17-.111L11.9,1.1c-.149-.087-.3-.167-.451-.254S11.148.7,11,.627c-.265-.109-.531-.218-.806-.3C10.049.285,9.906.241,9.762.2S9.49.14,9.354.111A6.715,6.715,0,0,0,8.371,0H7.593a.487.487,0,0,1-.147.01,3.167,3.167,0,0,0-.411.022c-.241.027-.482.055-.72.1C6.2.151,6.086.18,5.97.2c-.164.04-.326.087-.491.124-.1.03-.2.062-.3.089-.163.054-.322.12-.487.171s-.3.13-.448.19a1.74,1.74,0,0,1-.194.087c-.109.052-.213.112-.319.17s-.2.107-.3.167c-.049.031-.1.06-.15.09-.1.056-.2.129-.3.191s-.219.147-.321.229c-.039.028-.077.059-.114.09a6.633,6.633,0,0,0-.846.769c-.155.168-.306.341-.449.52a.247.247,0,0,1-.064.09.251.251,0,0,0-.049.07c-.044.073-.092.144-.142.213S.9,3.621.854,3.7c-.03.051-.059.1-.088.153-.082.128-.137.27-.211.4L.407,4.59c-.008.019-.017.038-.025.057-.066.158-.112.324-.169.485-.03.113-.063.224-.09.338C.1,5.61.066,5.748.044,5.887c-.012.048,0,.1-.018.146a.175.175,0,0,0,0,.032A.942.942,0,0,1,.015,6.2C0,6.226.019,6.254,0,6.274v.106c.013.012.011.027.011.042s0,.031-.011.042v.106A.217.217,0,0,1,0,6.72v.149a.524.524,0,0,1,.011.166C0,7.079.022,7.124,0,7.166V7.4a1.04,1.04,0,0,1,.023.279c.012.111.025.223.041.333.03.171.057.343.1.511.021.093.044.186.072.277.055.177.11.354.171.529.061.151.128.3.186.451.047.108.1.211.156.317a1.207,1.207,0,0,1,.107.195c.059.109.134.208.192.317.08.123.167.241.254.359.015.02.031.039.046.058a6.663,6.663,0,0,0,.9.967.845.845,0,0,1,.172.171,1.08,1.08,0,0,1,.011.179c-.005.817,0,1.633,0,2.45,0,.237-.011.473.008.71.037.069.082.019.124.008.273-.147.538-.308.813-.452.106-.065.212-.129.324-.184.03-.017.058-.037.089-.053.161-.09.322-.179.481-.272.065-.035.13-.069.193-.108s.13-.069.194-.107c.14-.077.277-.159.419-.233a.89.89,0,0,1,.155-.087c.086-.055.178-.1.266-.149.116-.067.235-.128.35-.2a.275.275,0,0,1,.171-.043,2.584,2.584,0,0,1,.272.036.237.237,0,0,0,.052.007c.206.025.414.036.621.057a.371.371,0,0,0,.094.008c.192,0,.382.041.574.022a.248.248,0,0,1,.093.013.231.231,0,0,0,.059.007c.291.01.581,0,.871-.02.088,0,.174-.024.263-.024.161-.021.323-.039.483-.066.051-.012.1-.018.154-.027.071-.017.142-.031.214-.043.119-.032.24-.053.359-.084.171-.045.341-.091.508-.148.135-.048.273-.09.4-.148.033-.016.067-.026.1-.041.1-.042.2-.1.307-.134.151-.072.3-.147.445-.231.039-.022.079-.041.117-.066.106-.063.21-.127.316-.19.086-.056.169-.116.253-.174.178-.125.342-.268.513-.4.168-.149.329-.306.486-.466.017-.018.035-.035.051-.053.166-.193.335-.383.486-.589.054-.082.113-.16.17-.239s.114-.183.171-.275c.03-.051.059-.1.088-.153.1-.155.164-.325.252-.484.023-.051.05-.1.071-.152.046-.1.078-.2.122-.3s.08-.219.117-.33a3.305,3.305,0,0,0,.1-.326A.97.97,0,0,1,15.23,8.5c.041-.148.069-.3.1-.449.03-.134.038-.271.065-.406.029-.186.019-.375.042-.561a.2.2,0,0,0,.005-.038c.018-.254-.015-.507-.021-.761M4,7.8a.929.929,0,1,1,.929-.929A.929.929,0,0,1,4,7.8m3.705-.021a.929.929,0,1,1,.929-.929.929.929,0,0,1-.929.929m3.654,0a.929.929,0,1,1,.929-.929.929.929,0,0,1-.929.929" transform="translate(0.001 0)" fill="#f84525"/>
</svg>
