<svg xmlns="http://www.w3.org/2000/svg" width="32" height="32.585" viewBox="0 0 32 32.585">
  <g id="Group_23" data-name="Group 23" transform="translate(0)">
    <path id="Path_775" data-name="Path 775" d="M31.992,29.357q0-8.684,0-17.368a.47.47,0,0,0-.1-.378c-.377-.27-.756-.535-1.129-.809-1.1-.806-2.195-1.618-3.3-2.423a.472.472,0,0,1-.208-.43c.009-1.342,0-2.684.01-4.026,0-.223-.05-.287-.278-.286a10.367,10.367,0,0,1-1.545-.027c-.091-.063-.194-.03-.291-.03-1.135,0-2.271-.021-3.405.007a1.441,1.441,0,0,1-1.288-.456,10.513,10.513,0,0,1-1.371-.949c-.3-.213-.565-.462-.874-.658a1.077,1.077,0,0,1-.237-.174.522.522,0,0,1-.166-.086C17.375.9,16.941.533,16.469.212a3.056,3.056,0,0,0-.392-.2l0-.008L16.03.012c-.067.049-.158.049-.221.107h0c-.2.116-.351.307-.548.433h0a3.274,3.274,0,0,0-.324.221h0A.744.744,0,0,1,14.8.868a.956.956,0,0,1-.257.161l-.421.293c-.286.236-.573.47-.877.684-.1.052-.173.134-.271.185h0c-.155.1-.28.233-.436.327h0c-.167.081-.273.242-.436.327h0c-.167.08-.271.245-.438.325h0c-.154.1-.283.228-.434.329h0a.748.748,0,0,1-.421.081q-2.737,0-5.474,0a.935.935,0,0,0-.347.045c-.095.037-.162.077-.163.186a2.339,2.339,0,0,0-.029.4c0,1.211,0,2.423,0,3.634a.6.6,0,0,1-.224.524,1.077,1.077,0,0,1-.219.141,2.4,2.4,0,0,0-.615.455,2.723,2.723,0,0,1-.6.423c-.061.039-.136.057-.179.12-.044.093-.137.132-.211.19-.09.074-.192.131-.285.2-.366.279-.724.571-1.11.823a3.907,3.907,0,0,0-.649.488c-.062.076-.163.1-.232.164a1.135,1.135,0,0,1-.267.17A.713.713,0,0,0,0,11.835c0,.245,0,.49,0,.736,0,1.231,0,2.461,0,3.692,0,.23.109.431.108.665C.1,21.1.108,25.265.1,29.433A2.91,2.91,0,0,0,.58,31.1a3.125,3.125,0,0,0,2.737,1.475c1.934.014,3.869,0,5.8,0q9.836,0,19.671,0a3.159,3.159,0,0,0,2.3-.936,3.292,3.292,0,0,0,.845-1.552A1.213,1.213,0,0,1,32,29.656c0-.1-.008-.2-.008-.3M6.689,5.207q4.685.01,9.369.005T25.4,5.206c.228,0,.281.055.281.281q-.012,4.944,0,9.887a.4.4,0,0,1-.18.383q-1.59,1.1-3.173,2.2-1.881,1.312-3.758,2.631a.218.218,0,0,1-.324-.017c-.639-.546-1.293-1.075-1.928-1.625a.336.336,0,0,0-.531,0c-.627.55-1.275,1.074-1.907,1.617a.242.242,0,0,1-.349.011c-.6-.422-1.208-.837-1.811-1.257-1.056-.736-2.114-1.47-3.166-2.213-.658-.464-1.31-.937-1.988-1.373-.117-.075-.122-.2-.122-.336q0-4.059,0-8.117c0-.608.007-1.217-.01-1.825-.006-.208.053-.253.255-.253M28.87,30.972q-12.791-.022-25.581,0a1.592,1.592,0,0,1-1.569-1.566q.015-7.123.006-14.246c0-.546,0-1.092,0-1.694.411.3.773.563,1.131.831.764.571,1.523,1.148,2.289,1.716.936.695,1.879,1.381,2.817,2.074q2.284,1.687,4.567,3.374c.13.1.152.129.014.244q-2.018,1.663-4.024,3.341-2.058,1.717-4.112,3.441c-.407.34-.822.67-1.235,1a.188.188,0,0,0-.088.147,3.539,3.539,0,0,0,1.044-.027c.281-.046.468-.321.7-.491.7-.519,1.386-1.061,2.08-1.591q2-1.528,4-3.052,1.764-1.343,3.529-2.686.708-.541,1.409-1.092a.269.269,0,0,1,.392-.008c1.274.98,2.559,1.946,3.837,2.922,1.132.864,2.256,1.74,3.389,2.6,1.372,1.045,2.777,2.048,4.111,3.139.471.385.926.2,1.387.285L29,29.567q-.869-.73-1.739-1.459c-.783-.653-1.55-1.326-2.34-1.968-1.39-1.128-2.749-2.293-4.135-3.426-.413-.337-.814-.689-1.228-1.024-.146-.118-.115-.136.027-.245.987-.756,2-1.478,2.993-2.224.964-.723,1.943-1.428,2.909-2.149,1.082-.807,2.176-1.6,3.264-2.4l1.559-1.143c.072.094.04.187.04.272,0,5.222-.011,10.444.014,15.665a1.574,1.574,0,0,1-1.5,1.5" transform="translate(0 -0.001)" fill="#707070"/>
    <path id="Path_776" data-name="Path 776" d="M75.5,50.228A3.584,3.584,0,0,0,73.6,47.164a4.7,4.7,0,0,0-5.043.576A5.029,5.029,0,0,0,66.9,53.006a3.633,3.633,0,0,0,2.181,2.586,4.3,4.3,0,0,0,2.406.326,7.378,7.378,0,0,0,1.506-.4c.322-.119.333-.162.22-.481a2.558,2.558,0,0,1-.149-.4c-.041-.238-.165-.2-.3-.11a3.362,3.362,0,0,1-1.572.427,3.011,3.011,0,0,1-.961-.086,2.558,2.558,0,0,1-1.763-1.132,4.044,4.044,0,0,1,.063-4.436,3.286,3.286,0,0,1,3.294-1.62,2.52,2.52,0,0,1,2.289,1.556,3.639,3.639,0,0,1,.124,2.449,1.456,1.456,0,0,1-.717,1c-.367.181-.551.061-.563-.308a7.876,7.876,0,0,1,.211-1.524c.083-.522.19-1.041.288-1.562a.185.185,0,0,0-.113-.241,3.435,3.435,0,0,0-2.14-.217,3.278,3.278,0,0,0-2.542,3.089,1.682,1.682,0,0,0,2.435,1.713,3.447,3.447,0,0,0,.848-.619,1.068,1.068,0,0,0,.848.765,2.141,2.141,0,0,0,2.025-.89,3.732,3.732,0,0,0,.684-2.66m-3.423.016a5.025,5.025,0,0,1-.406,1.571,1.946,1.946,0,0,1-.671.758.8.8,0,0,1-.774.063.676.676,0,0,1-.324-.664A2.107,2.107,0,0,1,71.3,49.9a3.853,3.853,0,0,1,.4-.048c.438,0,.451,0,.376.392" transform="translate(-55.068 -38.521)" fill="#707070"/>
  </g>
</svg>
