<svg id="Location" xmlns="http://www.w3.org/2000/svg" width="30" height="30.026" viewBox="0 0 30 30.026">
  <path id="Path_164" data-name="Path 164" d="M30,352.91c-.013.056-.017.119-.1.119l-.235,0q-14.667,0-29.334,0c-.112,0-.287.1-.333-.117q1.559-4.679,3.113-9.359c.068-.2.15-.29.382-.285.852.017,1.7.006,2.558.007a.885.885,0,1,1,0,1.762c-.451,0-.9.007-1.352,0a.236.236,0,0,0-.269.191q-1.008,2.93-2.031,5.855c-.064.182-.048.257.158.234a1.624,1.624,0,0,1,.176,0H27.194c.421,0,.421,0,.276-.385-.707-1.878-1.418-3.755-2.117-5.636a.323.323,0,0,0-.373-.26c-.362.019-.725.011-1.087,0a.878.878,0,1,1-.021-1.755c.833-.015,1.666,0,2.5-.009.176,0,.179.116.216.218q.595,1.633,1.185,3.268L30,352.91" transform="translate(0 -323.024)" fill="#707070"/>
  <path id="Path_165" data-name="Path 165" d="M111.379,7.679a8.789,8.789,0,0,0-2.74-5.374,8.19,8.19,0,0,0-6.029-2.3,9.265,9.265,0,0,0-5.364,2.045A8.8,8.8,0,0,0,93.733,8.92a13.432,13.432,0,0,0,1.5,6.68,19.824,19.824,0,0,0,6.827,7.673c.81.552.814.545,1.646-.009a17.528,17.528,0,0,0,5.336-5.615A16.1,16.1,0,0,0,111.5,9.465a12.171,12.171,0,0,0-.124-1.786m-8.685,5.756A4.43,4.43,0,1,1,107.079,9a4.423,4.423,0,0,1-4.385,4.434" transform="translate(-88.191 0)" fill="#707070"/>
</svg>
