<svg xmlns="http://www.w3.org/2000/svg" width="9.187" height="17" viewBox="0 0 9.187 17">
  <path id="Path_77" data-name="Path 77" d="M2.834,17a.428.428,0,0,1-.273-.457c0-2.252,0-4.5.006-6.756,0-.144-.026-.2-.185-.193-.647.01-1.294,0-1.942,0C.12,9.6,0,9.48,0,9.157q0-1.3,0-2.606c0-.318.125-.44.443-.44.658,0,1.317,0,1.975,0,.114,0,.148-.025.147-.144,0-.708-.021-1.417.011-2.124a4.049,4.049,0,0,1,.994-2.592A3.679,3.679,0,0,1,5.631.1,5.157,5.157,0,0,1,6.7,0L8.727,0c.339,0,.459.119.459.458q0,1.187,0,2.373c0,.344-.114.453-.457.458-.564.008-1.129-.028-1.692.023a.866.866,0,0,0-.753.406,1.064,1.064,0,0,0-.127.509c-.008.592,0,1.184-.01,1.776,0,.113.053.107.131.107q1.17,0,2.34,0c.345,0,.464.116.464.453q0,1.295,0,2.589c0,.333-.115.445-.451.446-.774,0-1.549,0-2.324,0-.135,0-.16.041-.16.165,0,2.252,0,4.5,0,6.756A.464.464,0,0,1,5.888,17Z" transform="translate(0)" fill="#fff"/>
</svg>
