<svg xmlns="http://www.w3.org/2000/svg" width="21.167" height="40.182" viewBox="0 0 21.167 40.182">
  <path id="Path_671" data-name="Path 671" d="M31.62,35.407h2.47V28H31.62V26.3l4.408-8.187L25.445-1.07,14.861,18.113,19.269,26.3V28H16.8v7.41h2.47v3.705H31.62ZM25.445,15.569a1.853,1.853,0,1,1-1.853,1.853A1.855,1.855,0,0,1,25.445,15.569ZM16.268,18.12,24.827,2.606V14.4a3.088,3.088,0,1,0,1.235,0V2.606L34.622,18.12l-4.237,7.868V28H20.5V25.988Zm1.767,16.052v-4.94h14.82v4.94H18.034Zm12.35,3.705H20.5v-2.47h9.88Z" transform="translate(-14.861 1.07)" fill="#fff"/>
</svg>
