<svg xmlns="http://www.w3.org/2000/svg" width="20.32" height="38.25" viewBox="0 0 20.32 38.25">
  <g id="basic_smartphone" transform="translate(-15)" fill="#fff">
    <path id="Path_677" data-name="Path 677" d="M15,38.25H35.32V0H15Zm1.2-1.2V31.078h17.93v5.977Zm0-7.172V5.977h17.93V29.883ZM34.125,1.2V4.781H16.2V1.2Z" transform="translate(0)"/>
    <rect id="Rectangle_484" data-name="Rectangle 484" width="4" height="1" transform="translate(22.863 2.625)"/>
    <path id="Path_678" data-name="Path 678" d="M30.793,54a1.793,1.793,0,1,0,1.793,1.793A1.8,1.8,0,0,0,30.793,54Zm0,2.391a.6.6,0,1,1,.6-.6A.6.6,0,0,1,30.793,56.391Z" transform="translate(-5.633 -21.727)"/>
  </g>
</svg>
