<svg xmlns="http://www.w3.org/2000/svg" width="34.368" height="34.308" viewBox="0 0 34.368 34.308">
  <g id="basic_world" transform="translate(0.112 0.113)" fill="#fff">
    <path id="Path_674" data-name="Path 674" d="M17.072-.113A17.164,17.164,0,0,0,4.92,29.192a17.042,17.042,0,0,0,12.151,5h0a17.154,17.154,0,1,0,0-34.308Zm12.142,6.6a10.029,10.029,0,0,1-4.256,3.247A22.892,22.892,0,0,0,19.679,1.17a15.992,15.992,0,0,1,8.788,4.507C28.727,5.937,28.973,6.207,29.214,6.482ZM17.9,33.164c-.1,0-.2,0-.295.007V22.966a20.246,20.246,0,0,1,6.335,1.047A21.9,21.9,0,0,1,17.9,33.164Zm-7.7-9.151a20.146,20.146,0,0,1,6.335-1.047V33.172c-.1,0-.2,0-.3-.009A21.9,21.9,0,0,1,10.2,24.013ZM16.241.979c.1,0,.2-.005.3-.009V11.176A20.246,20.246,0,0,1,10.2,10.129,21.9,21.9,0,0,1,16.241.979Zm7.7,9.15a20.146,20.146,0,0,1-6.335,1.047V.97c.1,0,.2,0,.3.009A21.9,21.9,0,0,1,23.942,10.129Zm-6.335,2.117a21.391,21.391,0,0,0,6.659-1.085,21.245,21.245,0,0,1,.82,5.374h-7.48Zm-1.07,0v4.29H9.056a21.241,21.241,0,0,1,.82-5.374A21.415,21.415,0,0,0,16.536,12.246Zm-8.551,4.29H.971A15.963,15.963,0,0,1,4.227,7.341a11.243,11.243,0,0,0,4.629,3.428A22.61,22.61,0,0,0,7.986,16.536Zm0,1.07a22.586,22.586,0,0,0,.871,5.767A11.239,11.239,0,0,0,4.227,26.8,15.967,15.967,0,0,1,.971,17.606Zm1.07,0h7.48V21.9a21.391,21.391,0,0,0-6.659,1.085A21.248,21.248,0,0,1,9.056,17.606Zm8.551,4.29v-4.29h7.48a21.241,21.241,0,0,1-.82,5.374A21.415,21.415,0,0,0,17.607,21.9Zm8.551-4.29h7.015a16.021,16.021,0,0,1-3.261,9.188,11.256,11.256,0,0,0-4.625-3.422A22.586,22.586,0,0,0,26.157,17.606Zm0-1.07a22.586,22.586,0,0,0-.871-5.767,11.239,11.239,0,0,0,4.629-3.428,15.972,15.972,0,0,1,3.257,9.2H26.157ZM14.464,1.17A22.9,22.9,0,0,0,9.185,9.73,12.236,12.236,0,0,1,7.206,8.648,8.7,8.7,0,0,1,4.931,6.48c.24-.274.486-.544.746-.8A15.99,15.99,0,0,1,14.464,1.17ZM4.929,27.66a10.033,10.033,0,0,1,4.256-3.247,22.907,22.907,0,0,0,5.279,8.56,15.994,15.994,0,0,1-8.788-4.507C5.416,28.206,5.17,27.935,4.929,27.66Zm12.144,6h0v0Zm2.607-.689a22.905,22.905,0,0,0,5.277-8.558,12.236,12.236,0,0,1,1.979,1.081,8.711,8.711,0,0,1,2.27,2.161A16.1,16.1,0,0,1,19.681,32.971Z" transform="translate(0 0)"/>
  </g>
</svg>
